2, 0, Note_on_c, 0, 60, 42
2, 256, Note_on_c, 0, 65, 52
2, 512, Note_on_c, 0, 65, 49
2, 768, Note_on_c, 0, 67, 49
2, 896, Note_on_c, 0, 69, 49
2, 1024, Note_on_c, 0, 65, 46
2, 1280, Note_on_c, 0, 65, 50
2, 1536, Note_on_c, 0, 69, 54
2, 1536, Note_on_c, 0, 65, 53
2, 1664, Note_on_c, 0, 70, 51
2, 1792, Note_on_c, 0, 72, 47
2, 1792, Note_on_c, 0, 69, 52
2, 2048, Note_on_c, 0, 72, 49
2, 2048, Note_on_c, 0, 67, 46
2, 2304, Note_on_c, 0, 74, 50
2, 2304, Note_on_c, 0, 66, 46
2, 2560, Note_on_c, 0, 70, 46
2, 2560, Note_on_c, 0, 67, 49
2, 3072, Note_on_c, 0, 67, 47
2, 3072, Note_on_c, 0, 65, 47
2, 3200, Note_on_c, 0, 69, 51
2, 3328, Note_on_c, 0, 70, 51
2, 3328, Note_on_c, 0, 67, 49
2, 3584, Note_on_c, 0, 70, 48
2, 3584, Note_on_c, 0, 65, 46
2, 3840, Note_on_c, 0, 72, 50
2, 3840, Note_on_c, 0, 64, 44
2, 4096, Note_on_c, 0, 69, 47
2, 4096, Note_on_c, 0, 65, 49
2, 4352, Note_on_c, 0, 69, 49
2, 4352, Note_on_c, 0, 64, 47
2, 4608, Note_on_c, 0, 65, 46
2, 4608, Note_on_c, 0, 60, 43
2, 4736, Note_on_c, 0, 69, 50
2, 4864, Note_on_c, 0, 67, 46
2, 5120, Note_on_c, 0, 62, 46
2, 5376, Note_on_c, 0, 65, 51
2, 5376, Note_on_c, 0, 62, 52
2, 5632, Note_on_c, 0, 64, 46
2, 5632, Note_on_c, 0, 60, 46
2, 6144, Note_on_c, 0, 60, 45
2, 6400, Note_on_c, 0, 65, 53
2, 6656, Note_on_c, 0, 65, 49
2, 6912, Note_on_c, 0, 67, 48
2, 7040, Note_on_c, 0, 69, 51
2, 7168, Note_on_c, 0, 65, 47
2, 7424, Note_on_c, 0, 65, 47
2, 7680, Note_on_c, 0, 69, 50
2, 7680, Note_on_c, 0, 65, 52
2, 7808, Note_on_c, 0, 70, 50
2, 7936, Note_on_c, 0, 72, 48
2, 7936, Note_on_c, 0, 69, 49
2, 8192, Note_on_c, 0, 72, 47
2, 8192, Note_on_c, 0, 67, 48
2, 8448, Note_on_c, 0, 74, 50
2, 8448, Note_on_c, 0, 66, 47
2, 8704, Note_on_c, 0, 70, 46
2, 8704, Note_on_c, 0, 67, 49
2, 9216, Note_on_c, 0, 67, 46
2, 9216, Note_on_c, 0, 65, 46
2, 9344, Note_on_c, 0, 69, 49
2, 9472, Note_on_c, 0, 70, 49
2, 9472, Note_on_c, 0, 67, 49
2, 9728, Note_on_c, 0, 70, 49
2, 9728, Note_on_c, 0, 65, 47
2, 9984, Note_on_c, 0, 72, 48
2, 9984, Note_on_c, 0, 64, 45
2, 10240, Note_on_c, 0, 69, 46
2, 10240, Note_on_c, 0, 65, 48
2, 10496, Note_on_c, 0, 69, 49
2, 10496, Note_on_c, 0, 60, 44
2, 10752, Note_on_c, 0, 65, 44
2, 10880, Note_on_c, 0, 69, 52
2, 11008, Note_on_c, 0, 67, 49
2, 11264, Note_on_c, 0, 62, 47
2, 11520, Note_on_c, 0, 64, 51
2, 11520, Note_on_c, 0, 60, 50
2, 11776, Note_on_c, 0, 65, 48
2, 12288, Note_on_c, 0, 60, 46
2, 12544, Note_on_c, 0, 65, 47
2, 12800, Note_on_c, 0, 65, 48
2, 13056, Note_on_c, 0, 67, 51
2, 13184, Note_on_c, 0, 69, 52
2, 13312, Note_on_c, 0, 65, 45
2, 13568, Note_on_c, 0, 65, 51
2, 13824, Note_on_c, 0, 69, 53
2, 13824, Note_on_c, 0, 65, 52
2, 13952, Note_on_c, 0, 70, 50
2, 14080, Note_on_c, 0, 72, 48
2, 14080, Note_on_c, 0, 69, 52
2, 14336, Note_on_c, 0, 72, 49
2, 14336, Note_on_c, 0, 67, 46
2, 14592, Note_on_c, 0, 74, 49
2, 14592, Note_on_c, 0, 66, 48
2, 14848, Note_on_c, 0, 70, 45
2, 14848, Note_on_c, 0, 67, 47
2, 15360, Note_on_c, 0, 67, 47
2, 15360, Note_on_c, 0, 65, 45
2, 15488, Note_on_c, 0, 69, 47
2, 15616, Note_on_c, 0, 70, 51
2, 15616, Note_on_c, 0, 67, 50
2, 15872, Note_on_c, 0, 70, 49
2, 15872, Note_on_c, 0, 65, 47
2, 16128, Note_on_c, 0, 72, 50
2, 16128, Note_on_c, 0, 64, 47
2, 16384, Note_on_c, 0, 69, 45
2, 16384, Note_on_c, 0, 65, 48
2, 16640, Note_on_c, 0, 69, 48
2, 16640, Note_on_c, 0, 64, 47
2, 16896, Note_on_c, 0, 65, 45
2, 16896, Note_on_c, 0, 60, 45
2, 17024, Note_on_c, 0, 69, 52
2, 17152, Note_on_c, 0, 67, 46
2, 17408, Note_on_c, 0, 62, 45
2, 17664, Note_on_c, 0, 65, 51
2, 17664, Note_on_c, 0, 62, 53
2, 17920, Note_on_c, 0, 64, 48
2, 17920, Note_on_c, 0, 60, 45
2, 18432, Note_on_c, 0, 60, 46
2, 18688, Note_on_c, 0, 65, 52
2, 18944, Note_on_c, 0, 65, 49
2, 19200, Note_on_c, 0, 67, 49
2, 19328, Note_on_c, 0, 69, 50
2, 19456, Note_on_c, 0, 65, 44
2, 19712, Note_on_c, 0, 65, 47
2, 19968, Note_on_c, 0, 69, 51
2, 19968, Note_on_c, 0, 65, 51
2, 20096, Note_on_c, 0, 70, 47
2, 20224, Note_on_c, 0, 72, 49
2, 20224, Note_on_c, 0, 69, 49
2, 20480, Note_on_c, 0, 72, 48
2, 20480, Note_on_c, 0, 67, 48
2, 20736, Note_on_c, 0, 74, 50
2, 20736, Note_on_c, 0, 66, 47
2, 20992, Note_on_c, 0, 70, 46
2, 20992, Note_on_c, 0, 67, 49
2, 21504, Note_on_c, 0, 67, 47
2, 21504, Note_on_c, 0, 65, 47
2, 21632, Note_on_c, 0, 69, 51
2, 21760, Note_on_c, 0, 70, 49
2, 21760, Note_on_c, 0, 67, 51
2, 22016, Note_on_c, 0, 70, 48
2, 22016, Note_on_c, 0, 65, 45
2, 22272, Note_on_c, 0, 72, 48
2, 22272, Note_on_c, 0, 64, 48
2, 22528, Note_on_c, 0, 69, 47
2, 22528, Note_on_c, 0, 65, 49
2, 22784, Note_on_c, 0, 69, 49
2, 22784, Note_on_c, 0, 60, 44
2, 23040, Note_on_c, 0, 65, 45
2, 23168, Note_on_c, 0, 69, 51
2, 23296, Note_on_c, 0, 67, 48
2, 23552, Note_on_c, 0, 62, 45
2, 23808, Note_on_c, 0, 64, 48
2, 23808, Note_on_c, 0, 60, 49
2, 24064, Note_on_c, 0, 65, 49
