0, 0, Header, 1, 2, 256
1, 0, Start_track
1, 0, Tempo, 365854
1, 0, Key_signature, -1, "major"
1, 0, Title_t, "Deck the Halls"
1, 0, Time_signature, 4, 2, 24, 8
1, 15616, Tempo, 405405
1, 15872, Tempo, 666667
1, 16384, Tempo, 666667
1, 16384, Tempo, 365854
1, 32000, Tempo, 405405
1, 32256, Tempo, 666667
1, 32256, End_track
2, 0, Start_track
2, 0, Control_c, 0, 0, 0
2, 0, Control_c, 0, 32, 0
2, 0, Program_c, 0, 0
2, 0, Title_t, "Organ manuals"
2, 0, Control_c, 0, 7, 127
2, 0, Control_c, 0, 64, 0
2, 0, Control_c, 0, 91, 48
2, 0, Control_c, 0, 10, 76
2, 0, Control_c, 0, 7, 105
2, 0, Control_c, 0, 64, 0
2, 0, Control_c, 0, 91, 52
2, 0, Control_c, 0, 10, 51
2, 0, Control_c, 0, 7, 100
2, 0, Note_on_c, 0, 69, 72
2, 0, Note_on_c, 0, 72, 72
2, 384, Note_off_c, 0, 69, 0
2, 384, Note_off_c, 0, 72, 0
2, 384, Note_on_c, 0, 67, 77
2, 384, Note_on_c, 0, 70, 77
2, 512, Note_off_c, 0, 67, 0
2, 512, Note_off_c, 0, 70, 0
2, 512, Note_on_c, 0, 65, 78
2, 512, Note_on_c, 0, 69, 78
2, 768, Note_off_c, 0, 69, 0
2, 768, Note_off_c, 0, 65, 0
2, 768, Note_on_c, 0, 64, 77
2, 768, Note_on_c, 0, 67, 77
2, 1024, Note_off_c, 0, 67, 0
2, 1024, Note_off_c, 0, 64, 0
2, 1024, Note_on_c, 0, 62, 78
2, 1024, Note_on_c, 0, 65, 78
2, 1280, Note_off_c, 0, 65, 0
2, 1280, Note_off_c, 0, 62, 0
2, 1280, Note_on_c, 0, 64, 81
2, 1280, Note_on_c, 0, 67, 81
2, 1536, Note_off_c, 0, 67, 0
2, 1536, Note_off_c, 0, 64, 0
2, 1536, Note_on_c, 0, 65, 82
2, 1536, Note_on_c, 0, 69, 82
2, 1792, Note_off_c, 0, 69, 0
2, 1792, Note_off_c, 0, 65, 0
2, 1792, Note_on_c, 0, 65, 77
2, 2048, Note_off_c, 0, 65, 0
2, 2048, Note_on_c, 0, 64, 82
2, 2048, Note_on_c, 0, 67, 82
2, 2176, Note_off_c, 0, 67, 0
2, 2176, Note_off_c, 0, 64, 0
2, 2176, Note_on_c, 0, 65, 82
2, 2176, Note_on_c, 0, 69, 82
2, 2304, Note_off_c, 0, 69, 0
2, 2304, Note_off_c, 0, 65, 0
2, 2304, Note_on_c, 0, 67, 82
2, 2304, Note_on_c, 0, 70, 82
2, 2432, Note_off_c, 0, 70, 0
2, 2432, Note_off_c, 0, 67, 0
2, 2432, Note_on_c, 0, 64, 78
2, 2432, Note_on_c, 0, 67, 78
2, 2560, Note_off_c, 0, 67, 0
2, 2560, Note_off_c, 0, 64, 0
2, 2560, Note_on_c, 0, 65, 82
2, 2560, Note_on_c, 0, 69, 82
2, 2944, Note_off_c, 0, 69, 0
2, 2944, Note_off_c, 0, 65, 0
2, 2944, Note_on_c, 0, 62, 78
2, 2944, Note_on_c, 0, 67, 78
2, 3072, Note_off_c, 0, 67, 0
2, 3072, Note_off_c, 0, 62, 0
2, 3072, Note_on_c, 0, 65, 78
2, 3328, Note_off_c, 0, 65, 0
2, 3328, Note_on_c, 0, 64, 76
2, 3584, Note_off_c, 0, 64, 0
2, 3584, Note_on_c, 0, 65, 83
2, 4096, Note_off_c, 0, 65, 0
2, 4096, Note_on_c, 0, 69, 87
2, 4096, Note_on_c, 0, 72, 87
2, 4480, Note_off_c, 0, 69, 0
2, 4480, Note_off_c, 0, 72, 0
2, 4480, Note_on_c, 0, 67, 78
2, 4480, Note_on_c, 0, 70, 78
2, 4608, Note_off_c, 0, 67, 0
2, 4608, Note_off_c, 0, 70, 0
2, 4608, Note_on_c, 0, 65, 77
2, 4608, Note_on_c, 0, 69, 77
2, 4864, Note_off_c, 0, 69, 0
2, 4864, Note_off_c, 0, 65, 0
2, 4864, Note_on_c, 0, 64, 77
2, 4864, Note_on_c, 0, 67, 77
2, 5120, Note_off_c, 0, 67, 0
2, 5120, Note_off_c, 0, 64, 0
2, 5120, Note_on_c, 0, 62, 79
2, 5120, Note_on_c, 0, 65, 79
2, 5376, Note_off_c, 0, 65, 0
2, 5376, Note_off_c, 0, 62, 0
2, 5376, Note_on_c, 0, 64, 83
2, 5376, Note_on_c, 0, 67, 83
2, 5632, Note_off_c, 0, 67, 0
2, 5632, Note_off_c, 0, 64, 0
2, 5632, Note_on_c, 0, 65, 82
2, 5632, Note_on_c, 0, 69, 82
2, 5888, Note_off_c, 0, 69, 0
2, 5888, Note_off_c, 0, 65, 0
2, 5888, Note_on_c, 0, 65, 76
2, 6144, Note_off_c, 0, 65, 0
2, 6144, Note_on_c, 0, 64, 84
2, 6144, Note_on_c, 0, 67, 84
2, 6272, Note_off_c, 0, 67, 0
2, 6272, Note_off_c, 0, 64, 0
2, 6272, Note_on_c, 0, 65, 82
2, 6272, Note_on_c, 0, 69, 82
2, 6400, Note_off_c, 0, 69, 0
2, 6400, Note_off_c, 0, 65, 0
2, 6400, Note_on_c, 0, 67, 84
2, 6400, Note_on_c, 0, 70, 84
2, 6528, Note_off_c, 0, 70, 0
2, 6528, Note_off_c, 0, 67, 0
2, 6528, Note_on_c, 0, 64, 77
2, 6528, Note_on_c, 0, 67, 77
2, 6656, Note_off_c, 0, 67, 0
2, 6656, Note_off_c, 0, 64, 0
2, 6656, Note_on_c, 0, 65, 82
2, 6656, Note_on_c, 0, 69, 82
2, 7040, Note_off_c, 0, 69, 0
2, 7040, Note_off_c, 0, 65, 0
2, 7040, Note_on_c, 0, 62, 79
2, 7040, Note_on_c, 0, 67, 79
2, 7168, Note_off_c, 0, 67, 0
2, 7168, Note_off_c, 0, 62, 0
2, 7168, Note_on_c, 0, 65, 78
2, 7424, Note_off_c, 0, 65, 0
2, 7424, Note_on_c, 0, 64, 79
2, 7680, Note_off_c, 0, 64, 0
2, 7680, Note_on_c, 0, 65, 81
2, 8192, Note_off_c, 0, 65, 0
2, 8192, Note_on_c, 0, 64, 82
2, 8192, Note_on_c, 0, 67, 82
2, 8576, Note_off_c, 0, 67, 0
2, 8576, Note_off_c, 0, 64, 0
2, 8576, Note_on_c, 0, 65, 81
2, 8576, Note_on_c, 0, 69, 81
2, 8704, Note_off_c, 0, 69, 0
2, 8704, Note_off_c, 0, 65, 0
2, 8704, Note_on_c, 0, 67, 81
2, 8704, Note_on_c, 0, 70, 81
2, 8960, Note_off_c, 0, 70, 0
2, 8960, Note_off_c, 0, 67, 0
2, 8960, Note_on_c, 0, 64, 77
2, 8960, Note_on_c, 0, 67, 77
2, 9216, Note_off_c, 0, 67, 0
2, 9216, Note_off_c, 0, 64, 0
2, 9216, Note_on_c, 0, 65, 86
2, 9216, Note_on_c, 0, 69, 86
2, 9600, Note_off_c, 0, 69, 0
2, 9600, Note_off_c, 0, 65, 0
2, 9600, Note_on_c, 0, 65, 82
2, 9600, Note_on_c, 0, 70, 82
2, 9728, Note_off_c, 0, 70, 0
2, 9728, Note_off_c, 0, 65, 0
2, 9728, Note_on_c, 0, 65, 84
2, 9728, Note_on_c, 0, 72, 84
2, 9984, Note_off_c, 0, 72, 0
2, 9984, Note_off_c, 0, 65, 0
2, 9984, Note_on_c, 0, 64, 76
2, 9984, Note_on_c, 0, 67, 76
2, 10240, Note_off_c, 0, 67, 0
2, 10240, Note_off_c, 0, 64, 0
2, 10240, Note_on_c, 0, 65, 81
2, 10240, Note_on_c, 0, 69, 81
2, 10368, Note_off_c, 0, 69, 0
2, 10368, Note_off_c, 0, 65, 0
2, 10368, Note_on_c, 0, 65, 77
2, 10368, Note_on_c, 0, 67, 77
2, 10496, Note_off_c, 0, 67, 0
2, 10496, Note_off_c, 0, 65, 0
2, 10496, Note_on_c, 0, 65, 82
2, 10496, Note_on_c, 0, 69, 82
2, 10624, Note_off_c, 0, 69, 0
2, 10624, Note_off_c, 0, 65, 0
2, 10624, Note_on_c, 0, 65, 82
2, 10624, Note_on_c, 0, 71, 82
2, 10752, Note_off_c, 0, 71, 0
2, 10752, Note_off_c, 0, 65, 0
2, 10752, Note_on_c, 0, 67, 83
2, 10752, Note_on_c, 0, 72, 83
2, 11008, Note_off_c, 0, 72, 0
2, 11008, Note_off_c, 0, 67, 0
2, 11008, Note_on_c, 0, 69, 87
2, 11008, Note_on_c, 0, 77, 87
2, 11264, Note_off_c, 0, 77, 0
2, 11264, Note_off_c, 0, 69, 0
2, 11264, Note_on_c, 0, 67, 78
2, 11264, Note_on_c, 0, 76, 78
2, 11520, Note_off_c, 0, 76, 0
2, 11520, Note_off_c, 0, 67, 0
2, 11520, Note_on_c, 0, 65, 77
2, 11520, Note_on_c, 0, 74, 77
2, 11776, Note_off_c, 0, 74, 0
2, 11776, Note_off_c, 0, 65, 0
2, 11776, Note_on_c, 0, 64, 78
2, 11776, Note_on_c, 0, 72, 78
2, 12288, Note_off_c, 0, 72, 0
2, 12288, Note_off_c, 0, 64, 0
2, 12288, Note_on_c, 0, 69, 80
2, 12288, Note_on_c, 0, 72, 80
2, 12672, Note_off_c, 0, 69, 0
2, 12672, Note_off_c, 0, 72, 0
2, 12672, Note_on_c, 0, 67, 74
2, 12672, Note_on_c, 0, 70, 74
2, 12800, Note_off_c, 0, 67, 0
2, 12800, Note_off_c, 0, 70, 0
2, 12800, Note_on_c, 0, 65, 79
2, 12800, Note_on_c, 0, 69, 79
2, 13056, Note_off_c, 0, 69, 0
2, 13056, Note_off_c, 0, 65, 0
2, 13056, Note_on_c, 0, 64, 78
2, 13056, Note_on_c, 0, 67, 78
2, 13312, Note_off_c, 0, 67, 0
2, 13312, Note_off_c, 0, 64, 0
2, 13312, Note_on_c, 0, 62, 75
2, 13312, Note_on_c, 0, 65, 75
2, 13568, Note_off_c, 0, 65, 0
2, 13568, Note_off_c, 0, 62, 0
2, 13568, Note_on_c, 0, 64, 80
2, 13568, Note_on_c, 0, 67, 80
2, 13824, Note_off_c, 0, 67, 0
2, 13824, Note_off_c, 0, 64, 0
2, 13824, Note_on_c, 0, 65, 82
2, 13824, Note_on_c, 0, 69, 82
2, 14080, Note_off_c, 0, 69, 0
2, 14080, Note_off_c, 0, 65, 0
2, 14080, Note_on_c, 0, 65, 77
2, 14336, Note_off_c, 0, 65, 0
2, 14336, Note_on_c, 0, 65, 89
2, 14336, Note_on_c, 0, 74, 89
2, 14464, Note_off_c, 0, 74, 0
2, 14464, Note_off_c, 0, 65, 0
2, 14464, Note_on_c, 0, 65, 81
2, 14464, Note_on_c, 0, 74, 81
2, 14592, Note_off_c, 0, 74, 0
2, 14592, Note_off_c, 0, 65, 0
2, 14592, Note_on_c, 0, 65, 80
2, 14592, Note_on_c, 0, 74, 80
2, 14720, Note_off_c, 0, 74, 0
2, 14720, Note_off_c, 0, 65, 0
2, 14720, Note_on_c, 0, 65, 78
2, 14720, Note_on_c, 0, 74, 78
2, 14848, Note_off_c, 0, 74, 0
2, 14848, Note_off_c, 0, 65, 0
2, 14848, Note_on_c, 0, 65, 78
2, 14848, Note_on_c, 0, 72, 78
2, 15232, Note_off_c, 0, 72, 0
2, 15232, Note_off_c, 0, 65, 0
2, 15232, Note_on_c, 0, 67, 80
2, 15232, Note_on_c, 0, 70, 80
2, 15360, Note_off_c, 0, 70, 0
2, 15360, Note_off_c, 0, 67, 0
2, 15360, Note_on_c, 0, 65, 77
2, 15360, Note_on_c, 0, 69, 77
2, 15616, Note_off_c, 0, 69, 0
2, 15616, Note_off_c, 0, 65, 0
2, 15616, Note_on_c, 0, 64, 78
2, 15616, Note_on_c, 0, 67, 78
2, 15872, Note_off_c, 0, 67, 0
2, 15872, Note_off_c, 0, 64, 0
2, 15872, Note_on_c, 0, 65, 79
2, 16384, Note_off_c, 0, 65, 0
2, 16384, Note_on_c, 0, 69, 86
2, 16384, Note_on_c, 0, 72, 86
2, 16768, Note_off_c, 0, 69, 0
2, 16768, Note_off_c, 0, 72, 0
2, 16768, Note_on_c, 0, 67, 79
2, 16768, Note_on_c, 0, 70, 79
2, 16896, Note_off_c, 0, 67, 0
2, 16896, Note_off_c, 0, 70, 0
2, 16896, Note_on_c, 0, 65, 75
2, 16896, Note_on_c, 0, 69, 75
2, 17152, Note_off_c, 0, 69, 0
2, 17152, Note_off_c, 0, 65, 0
2, 17152, Note_on_c, 0, 64, 76
2, 17152, Note_on_c, 0, 67, 76
2, 17408, Note_off_c, 0, 67, 0
2, 17408, Note_off_c, 0, 64, 0
2, 17408, Note_on_c, 0, 62, 77
2, 17408, Note_on_c, 0, 65, 77
2, 17664, Note_off_c, 0, 65, 0
2, 17664, Note_off_c, 0, 62, 0
2, 17664, Note_on_c, 0, 64, 81
2, 17664, Note_on_c, 0, 67, 81
2, 17920, Note_off_c, 0, 67, 0
2, 17920, Note_off_c, 0, 64, 0
2, 17920, Note_on_c, 0, 65, 84
2, 17920, Note_on_c, 0, 69, 84
2, 18176, Note_off_c, 0, 69, 0
2, 18176, Note_off_c, 0, 65, 0
2, 18176, Note_on_c, 0, 65, 75
2, 18432, Note_off_c, 0, 65, 0
2, 18432, Note_on_c, 0, 64, 83
2, 18432, Note_on_c, 0, 67, 83
2, 18560, Note_off_c, 0, 67, 0
2, 18560, Note_off_c, 0, 64, 0
2, 18560, Note_on_c, 0, 65, 83
2, 18560, Note_on_c, 0, 69, 83
2, 18688, Note_off_c, 0, 69, 0
2, 18688, Note_off_c, 0, 65, 0
2, 18688, Note_on_c, 0, 67, 81
2, 18688, Note_on_c, 0, 70, 81
2, 18816, Note_off_c, 0, 70, 0
2, 18816, Note_off_c, 0, 67, 0
2, 18816, Note_on_c, 0, 64, 78
2, 18816, Note_on_c, 0, 67, 78
2, 18944, Note_off_c, 0, 67, 0
2, 18944, Note_off_c, 0, 64, 0
2, 18944, Note_on_c, 0, 65, 84
2, 18944, Note_on_c, 0, 69, 84
2, 19328, Note_off_c, 0, 69, 0
2, 19328, Note_off_c, 0, 65, 0
2, 19328, Note_on_c, 0, 62, 78
2, 19328, Note_on_c, 0, 67, 78
2, 19456, Note_off_c, 0, 67, 0
2, 19456, Note_off_c, 0, 62, 0
2, 19456, Note_on_c, 0, 65, 75
2, 19712, Note_off_c, 0, 65, 0
2, 19712, Note_on_c, 0, 64, 80
2, 19968, Note_off_c, 0, 64, 0
2, 19968, Note_on_c, 0, 65, 80
2, 20480, Note_off_c, 0, 65, 0
2, 20480, Note_on_c, 0, 69, 87
2, 20480, Note_on_c, 0, 72, 87
2, 20864, Note_off_c, 0, 69, 0
2, 20864, Note_off_c, 0, 72, 0
2, 20864, Note_on_c, 0, 67, 78
2, 20864, Note_on_c, 0, 70, 78
2, 20992, Note_off_c, 0, 67, 0
2, 20992, Note_off_c, 0, 70, 0
2, 20992, Note_on_c, 0, 65, 79
2, 20992, Note_on_c, 0, 69, 79
2, 21248, Note_off_c, 0, 69, 0
2, 21248, Note_off_c, 0, 65, 0
2, 21248, Note_on_c, 0, 64, 79
2, 21248, Note_on_c, 0, 67, 79
2, 21504, Note_off_c, 0, 67, 0
2, 21504, Note_off_c, 0, 64, 0
2, 21504, Note_on_c, 0, 62, 77
2, 21504, Note_on_c, 0, 65, 77
2, 21760, Note_off_c, 0, 65, 0
2, 21760, Note_off_c, 0, 62, 0
2, 21760, Note_on_c, 0, 64, 83
2, 21760, Note_on_c, 0, 67, 83
2, 22016, Note_off_c, 0, 67, 0
2, 22016, Note_off_c, 0, 64, 0
2, 22016, Note_on_c, 0, 65, 84
2, 22016, Note_on_c, 0, 69, 84
2, 22272, Note_off_c, 0, 69, 0
2, 22272, Note_off_c, 0, 65, 0
2, 22272, Note_on_c, 0, 65, 75
2, 22528, Note_off_c, 0, 65, 0
2, 22528, Note_on_c, 0, 64, 83
2, 22528, Note_on_c, 0, 67, 83
2, 22656, Note_off_c, 0, 67, 0
2, 22656, Note_off_c, 0, 64, 0
2, 22656, Note_on_c, 0, 65, 82
2, 22656, Note_on_c, 0, 69, 82
2, 22784, Note_off_c, 0, 69, 0
2, 22784, Note_off_c, 0, 65, 0
2, 22784, Note_on_c, 0, 67, 80
2, 22784, Note_on_c, 0, 70, 80
2, 22912, Note_off_c, 0, 70, 0
2, 22912, Note_off_c, 0, 67, 0
2, 22912, Note_on_c, 0, 64, 77
2, 22912, Note_on_c, 0, 67, 77
2, 23040, Note_off_c, 0, 67, 0
2, 23040, Note_off_c, 0, 64, 0
2, 23040, Note_on_c, 0, 65, 84
2, 23040, Note_on_c, 0, 69, 84
2, 23424, Note_off_c, 0, 69, 0
2, 23424, Note_off_c, 0, 65, 0
2, 23424, Note_on_c, 0, 62, 79
2, 23424, Note_on_c, 0, 67, 79
2, 23552, Note_off_c, 0, 67, 0
2, 23552, Note_off_c, 0, 62, 0
2, 23552, Note_on_c, 0, 65, 77
2, 23808, Note_off_c, 0, 65, 0
2, 23808, Note_on_c, 0, 64, 78
2, 24064, Note_off_c, 0, 64, 0
2, 24064, Note_on_c, 0, 65, 83
2, 24576, Note_off_c, 0, 65, 0
2, 24576, Note_on_c, 0, 64, 81
2, 24576, Note_on_c, 0, 67, 81
2, 24960, Note_off_c, 0, 67, 0
2, 24960, Note_off_c, 0, 64, 0
2, 24960, Note_on_c, 0, 65, 82
2, 24960, Note_on_c, 0, 69, 82
2, 25088, Note_off_c, 0, 69, 0
2, 25088, Note_off_c, 0, 65, 0
2, 25088, Note_on_c, 0, 67, 81
2, 25088, Note_on_c, 0, 70, 81
2, 25344, Note_off_c, 0, 67, 0
2, 25344, Note_off_c, 0, 70, 0
2, 25344, Note_on_c, 0, 64, 77
2, 25344, Note_on_c, 0, 67, 77
2, 25600, Note_off_c, 0, 64, 0
2, 25600, Note_off_c, 0, 67, 0
2, 25600, Note_on_c, 0, 65, 82
2, 25600, Note_on_c, 0, 69, 82
2, 25984, Note_off_c, 0, 65, 0
2, 25984, Note_off_c, 0, 69, 0
2, 25984, Note_on_c, 0, 65, 84
2, 25984, Note_on_c, 0, 70, 84
2, 26112, Note_off_c, 0, 65, 0
2, 26112, Note_off_c, 0, 70, 0
2, 26112, Note_on_c, 0, 65, 81
2, 26112, Note_on_c, 0, 72, 81
2, 26368, Note_off_c, 0, 65, 0
2, 26368, Note_off_c, 0, 72, 0
2, 26368, Note_on_c, 0, 64, 76
2, 26368, Note_on_c, 0, 67, 76
2, 26624, Note_off_c, 0, 64, 0
2, 26624, Note_off_c, 0, 67, 0
2, 26624, Note_on_c, 0, 65, 84
2, 26624, Note_on_c, 0, 69, 84
2, 26752, Note_off_c, 0, 65, 0
2, 26752, Note_off_c, 0, 69, 0
2, 26752, Note_on_c, 0, 65, 77
2, 26752, Note_on_c, 0, 67, 77
2, 26880, Note_off_c, 0, 65, 0
2, 26880, Note_off_c, 0, 67, 0
2, 26880, Note_on_c, 0, 65, 83
2, 26880, Note_on_c, 0, 69, 83
2, 27008, Note_off_c, 0, 65, 0
2, 27008, Note_off_c, 0, 69, 0
2, 27008, Note_on_c, 0, 65, 83
2, 27008, Note_on_c, 0, 71, 83
2, 27136, Note_off_c, 0, 65, 0
2, 27136, Note_off_c, 0, 71, 0
2, 27136, Note_on_c, 0, 67, 82
2, 27136, Note_on_c, 0, 72, 82
2, 27392, Note_off_c, 0, 67, 0
2, 27392, Note_off_c, 0, 72, 0
2, 27392, Note_on_c, 0, 69, 83
2, 27392, Note_on_c, 0, 77, 83
2, 27648, Note_off_c, 0, 69, 0
2, 27648, Note_off_c, 0, 77, 0
2, 27648, Note_on_c, 0, 67, 80
2, 27648, Note_on_c, 0, 76, 80
2, 27904, Note_off_c, 0, 67, 0
2, 27904, Note_off_c, 0, 76, 0
2, 27904, Note_on_c, 0, 65, 78
2, 27904, Note_on_c, 0, 74, 78
2, 28160, Note_off_c, 0, 65, 0
2, 28160, Note_off_c, 0, 74, 0
2, 28160, Note_on_c, 0, 64, 77
2, 28160, Note_on_c, 0, 72, 77
2, 28672, Note_off_c, 0, 64, 0
2, 28672, Note_off_c, 0, 72, 0
2, 28672, Note_on_c, 0, 69, 80
2, 28672, Note_on_c, 0, 72, 80
2, 29056, Note_off_c, 0, 69, 0
2, 29056, Note_off_c, 0, 72, 0
2, 29056, Note_on_c, 0, 67, 78
2, 29056, Note_on_c, 0, 70, 78
2, 29184, Note_off_c, 0, 70, 0
2, 29184, Note_off_c, 0, 67, 0
2, 29184, Note_on_c, 0, 65, 76
2, 29184, Note_on_c, 0, 69, 76
2, 29440, Note_off_c, 0, 65, 0
2, 29440, Note_off_c, 0, 69, 0
2, 29440, Note_on_c, 0, 64, 78
2, 29440, Note_on_c, 0, 67, 78
2, 29696, Note_off_c, 0, 64, 0
2, 29696, Note_off_c, 0, 67, 0
2, 29696, Note_on_c, 0, 62, 77
2, 29696, Note_on_c, 0, 65, 77
2, 29952, Note_off_c, 0, 62, 0
2, 29952, Note_off_c, 0, 65, 0
2, 29952, Note_on_c, 0, 64, 85
2, 29952, Note_on_c, 0, 67, 85
2, 30208, Note_off_c, 0, 64, 0
2, 30208, Note_off_c, 0, 67, 0
2, 30208, Note_on_c, 0, 65, 82
2, 30208, Note_on_c, 0, 69, 82
2, 30464, Note_off_c, 0, 65, 0
2, 30464, Note_off_c, 0, 69, 0
2, 30464, Note_on_c, 0, 65, 75
2, 30720, Note_off_c, 0, 65, 0
2, 30720, Note_on_c, 0, 65, 91
2, 30720, Note_on_c, 0, 74, 91
2, 30848, Note_off_c, 0, 65, 0
2, 30848, Note_off_c, 0, 74, 0
2, 30848, Note_on_c, 0, 65, 80
2, 30848, Note_on_c, 0, 74, 80
2, 30976, Note_off_c, 0, 65, 0
2, 30976, Note_off_c, 0, 74, 0
2, 30976, Note_on_c, 0, 65, 81
2, 30976, Note_on_c, 0, 74, 81
2, 31104, Note_off_c, 0, 65, 0
2, 31104, Note_off_c, 0, 74, 0
2, 31104, Note_on_c, 0, 65, 80
2, 31104, Note_on_c, 0, 74, 80
2, 31232, Note_off_c, 0, 65, 0
2, 31232, Note_off_c, 0, 74, 0
2, 31232, Note_on_c, 0, 65, 78
2, 31232, Note_on_c, 0, 72, 78
2, 31616, Note_off_c, 0, 65, 0
2, 31616, Note_off_c, 0, 72, 0
2, 31616, Note_on_c, 0, 67, 77
2, 31616, Note_on_c, 0, 70, 77
2, 31744, Note_off_c, 0, 67, 0
2, 31744, Note_off_c, 0, 70, 0
2, 31744, Note_on_c, 0, 65, 81
2, 31744, Note_on_c, 0, 69, 81
2, 32000, Note_off_c, 0, 65, 0
2, 32000, Note_off_c, 0, 69, 0
2, 32000, Note_on_c, 0, 64, 78
2, 32000, Note_on_c, 0, 67, 78
2, 32256, Note_off_c, 0, 64, 0
2, 32256, Note_off_c, 0, 67, 0
2, 32256, Note_on_c, 0, 65, 77
2, 32768, Note_off_c, 0, 65, 0
2, 32768, End_track
0, 0, End_of_file
