0, 0, Header, 1, 2, 256
1, 0, Start_track
1, 0, Tempo, 413793
1, 0, Key_signature, 1, "major"
1, 0, Time_signature, 4, 2, 24, 8
1, 14336, Tempo, 425532
1, 15872, Tempo, 444547
1, 16384, Tempo, 444547
1, 16384, Tempo, 413793
1, 30720, Tempo, 425532
1, 32256, Tempo, 444547
1, 32256, End_track
2, 0, Start_track
2, 0, Control_c, 0, 0, 0
2, 0, Control_c, 0, 32, 0
2, 0, Program_c, 0, 0
2, 0, Title_t, "Piano"
2, 0, Control_c, 0, 7, 127
2, 0, Control_c, 0, 64, 0
2, 0, Control_c, 0, 91, 48
2, 0, Control_c, 0, 10, 51
2, 0, Control_c, 0, 7, 99
2, 0, Control_c, 0, 64, 0
2, 0, Control_c, 0, 91, 48
2, 0, Control_c, 0, 10, 51
2, 0, Control_c, 0, 7, 99
2, 0, Note_on_c, 0, 67, 66
2, 0, Note_on_c, 0, 62, 68
2, 256, Note_off_c, 0, 67, 0
2, 256, Note_off_c, 0, 62, 0
2, 256, Note_on_c, 0, 67, 74
2, 256, Note_on_c, 0, 62, 74
2, 512, Note_off_c, 0, 67, 0
2, 512, Note_off_c, 0, 62, 0
2, 512, Note_on_c, 0, 69, 79
2, 512, Note_on_c, 0, 64, 74
2, 640, Note_off_c, 0, 69, 0
2, 640, Note_on_c, 0, 67, 77
2, 768, Note_off_c, 0, 64, 0
2, 768, Note_off_c, 0, 67, 0
2, 768, Note_on_c, 0, 66, 79
2, 768, Note_on_c, 0, 60, 68
2, 896, Note_off_c, 0, 66, 0
2, 896, Note_on_c, 0, 64, 69
2, 1024, Note_off_c, 0, 60, 0
2, 1024, Note_off_c, 0, 64, 0
2, 1024, Note_on_c, 0, 62, 72
2, 1536, Note_off_c, 0, 62, 0
2, 1792, Note_on_c, 0, 62, 66
2, 2048, Note_off_c, 0, 62, 0
2, 2048, Note_on_c, 0, 64, 78
2, 2048, Note_on_c, 0, 60, 84
2, 2304, Note_off_c, 0, 64, 0
2, 2304, Note_off_c, 0, 60, 0
2, 2304, Note_on_c, 0, 67, 85
2, 2304, Note_on_c, 0, 60, 74
2, 2560, Note_off_c, 0, 67, 0
2, 2560, Note_off_c, 0, 60, 0
2, 2560, Note_on_c, 0, 67, 75
2, 2560, Note_on_c, 0, 62, 80
2, 2816, Note_off_c, 0, 67, 0
2, 2816, Note_off_c, 0, 62, 0
2, 2816, Note_on_c, 0, 66, 66
2, 2816, Note_on_c, 0, 60, 73
2, 3072, Note_off_c, 0, 66, 0
2, 3072, Note_off_c, 0, 60, 0
2, 3072, Note_on_c, 0, 67, 82
2, 3072, Note_on_c, 0, 59, 71
2, 3584, Note_off_c, 0, 67, 0
2, 3584, Note_off_c, 0, 59, 0
2, 3584, Note_on_c, 0, 67, 75
2, 3584, Note_on_c, 0, 59, 73
2, 3840, Note_off_c, 0, 67, 0
2, 3840, Note_off_c, 0, 59, 0
2, 4096, Note_on_c, 0, 67, 72
2, 4096, Note_on_c, 0, 62, 69
2, 4352, Note_off_c, 0, 67, 0
2, 4352, Note_off_c, 0, 62, 0
2, 4352, Note_on_c, 0, 67, 75
2, 4352, Note_on_c, 0, 62, 76
2, 4608, Note_off_c, 0, 67, 0
2, 4608, Note_off_c, 0, 62, 0
2, 4608, Note_on_c, 0, 69, 83
2, 4608, Note_on_c, 0, 64, 78
2, 4736, Note_off_c, 0, 69, 0
2, 4736, Note_on_c, 0, 67, 75
2, 4864, Note_off_c, 0, 64, 0
2, 4864, Note_off_c, 0, 67, 0
2, 4864, Note_on_c, 0, 66, 75
2, 4864, Note_on_c, 0, 60, 68
2, 4992, Note_off_c, 0, 66, 0
2, 4992, Note_on_c, 0, 64, 70
2, 5120, Note_off_c, 0, 60, 0
2, 5120, Note_off_c, 0, 64, 0
2, 5120, Note_on_c, 0, 62, 70
2, 5632, Note_off_c, 0, 62, 0
2, 5888, Note_on_c, 0, 62, 70
2, 6144, Note_off_c, 0, 62, 0
2, 6144, Note_on_c, 0, 64, 83
2, 6144, Note_on_c, 0, 60, 87
2, 6400, Note_off_c, 0, 64, 0
2, 6400, Note_off_c, 0, 60, 0
2, 6400, Note_on_c, 0, 67, 84
2, 6400, Note_on_c, 0, 60, 80
2, 6656, Note_off_c, 0, 67, 0
2, 6656, Note_off_c, 0, 60, 0
2, 6656, Note_on_c, 0, 67, 78
2, 6656, Note_on_c, 0, 62, 80
2, 6912, Note_off_c, 0, 67, 0
2, 6912, Note_off_c, 0, 62, 0
2, 6912, Note_on_c, 0, 66, 72
2, 6912, Note_on_c, 0, 60, 73
2, 7168, Note_off_c, 0, 66, 0
2, 7168, Note_off_c, 0, 60, 0
2, 7168, Note_on_c, 0, 67, 75
2, 7168, Note_on_c, 0, 59, 76
2, 7680, Note_off_c, 0, 67, 0
2, 7680, Note_off_c, 0, 59, 0
2, 7680, Note_on_c, 0, 67, 76
2, 7680, Note_on_c, 0, 59, 74
2, 7936, Note_off_c, 0, 67, 0
2, 7936, Note_off_c, 0, 59, 0
2, 8192, Note_on_c, 0, 74, 71
2, 8192, Note_on_c, 0, 67, 70
2, 8320, Note_off_c, 0, 67, 0
2, 8320, Note_on_c, 0, 69, 78
2, 8448, Note_off_c, 0, 69, 0
2, 8448, Note_on_c, 0, 71, 81
2, 8576, Note_off_c, 0, 74, 0
2, 8576, Note_on_c, 0, 72, 69
2, 8704, Note_off_c, 0, 72, 0
2, 8704, Note_off_c, 0, 71, 0
2, 8704, Note_on_c, 0, 71, 75
2, 8704, Note_on_c, 0, 67, 68
2, 8832, Note_off_c, 0, 71, 0
2, 8832, Note_on_c, 0, 72, 77
2, 8960, Note_off_c, 0, 72, 0
2, 8960, Note_on_c, 0, 74, 84
2, 9088, Note_off_c, 0, 74, 0
2, 9088, Note_on_c, 0, 71, 68
2, 9216, Note_off_c, 0, 67, 0
2, 9216, Note_off_c, 0, 71, 0
2, 9216, Note_on_c, 0, 72, 81
2, 9216, Note_on_c, 0, 64, 69
2, 9344, Note_off_c, 0, 64, 0
2, 9344, Note_on_c, 0, 66, 81
2, 9472, Note_off_c, 0, 66, 0
2, 9472, Note_on_c, 0, 67, 78
2, 9600, Note_off_c, 0, 72, 0
2, 9600, Note_on_c, 0, 71, 72
2, 9728, Note_off_c, 0, 71, 0
2, 9728, Note_off_c, 0, 67, 0
2, 9728, Note_on_c, 0, 69, 71
2, 9728, Note_on_c, 0, 66, 78
2, 9856, Note_off_c, 0, 69, 0
2, 9856, Note_on_c, 0, 71, 82
2, 9984, Note_off_c, 0, 71, 0
2, 9984, Note_on_c, 0, 72, 82
2, 10112, Note_off_c, 0, 72, 0
2, 10112, Note_on_c, 0, 69, 67
2, 10240, Note_off_c, 0, 66, 0
2, 10240, Note_off_c, 0, 69, 0
2, 10240, Note_on_c, 0, 71, 78
2, 10240, Note_on_c, 0, 62, 70
2, 10368, Note_off_c, 0, 62, 0
2, 10368, Note_on_c, 0, 64, 80
2, 10496, Note_off_c, 0, 64, 0
2, 10496, Note_on_c, 0, 66, 80
2, 10624, Note_off_c, 0, 71, 0
2, 10624, Note_on_c, 0, 69, 74
2, 10752, Note_off_c, 0, 69, 0
2, 10752, Note_off_c, 0, 66, 0
2, 10752, Note_on_c, 0, 67, 69
2, 10752, Note_on_c, 0, 64, 70
2, 10880, Note_off_c, 0, 67, 0
2, 10880, Note_on_c, 0, 69, 77
2, 11008, Note_off_c, 0, 69, 0
2, 11008, Note_on_c, 0, 71, 80
2, 11136, Note_off_c, 0, 71, 0
2, 11136, Note_on_c, 0, 67, 68
2, 11264, Note_off_c, 0, 67, 0
2, 11264, Note_off_c, 0, 64, 0
2, 11264, Note_on_c, 0, 69, 82
2, 11264, Note_on_c, 0, 60, 73
2, 11392, Note_off_c, 0, 60, 0
2, 11392, Note_on_c, 0, 62, 81
2, 11520, Note_off_c, 0, 62, 0
2, 11520, Note_on_c, 0, 64, 80
2, 11648, Note_off_c, 0, 69, 0
2, 11648, Note_on_c, 0, 67, 68
2, 11776, Note_off_c, 0, 67, 0
2, 11776, Note_off_c, 0, 64, 0
2, 11776, Note_on_c, 0, 66, 73
2, 11776, Note_on_c, 0, 62, 75
2, 11904, Note_off_c, 0, 66, 0
2, 11904, Note_on_c, 0, 67, 74
2, 12032, Note_off_c, 0, 67, 0
2, 12032, Note_on_c, 0, 69, 80
2, 12160, Note_off_c, 0, 69, 0
2, 12160, Note_on_c, 0, 66, 71
2, 12288, Note_off_c, 0, 66, 0
2, 12288, Note_off_c, 0, 62, 0
2, 12288, Note_on_c, 0, 67, 85
2, 12288, Note_on_c, 0, 59, 71
2, 12416, Note_off_c, 0, 59, 0
2, 12416, Note_on_c, 0, 60, 81
2, 12544, Note_off_c, 0, 60, 0
2, 12544, Note_on_c, 0, 62, 80
2, 12672, Note_off_c, 0, 67, 0
2, 12672, Note_on_c, 0, 66, 74
2, 12800, Note_off_c, 0, 66, 0
2, 12800, Note_off_c, 0, 62, 0
2, 12800, Note_on_c, 0, 64, 70
2, 12800, Note_on_c, 0, 60, 72
2, 12928, Note_off_c, 0, 64, 0
2, 12928, Note_on_c, 0, 66, 84
2, 13056, Note_off_c, 0, 66, 0
2, 13056, Note_on_c, 0, 67, 80
2, 13184, Note_off_c, 0, 67, 0
2, 13184, Note_on_c, 0, 64, 70
2, 13312, Note_off_c, 0, 64, 0
2, 13312, Note_off_c, 0, 60, 0
2, 13312, Note_on_c, 0, 66, 80
2, 13312, Note_on_c, 0, 62, 83
2, 13696, Note_off_c, 0, 66, 0
2, 13696, Note_on_c, 0, 64, 70
2, 13824, Note_off_c, 0, 64, 0
2, 13824, Note_off_c, 0, 62, 0
2, 13824, Note_on_c, 0, 62, 74
2, 14080, Note_off_c, 0, 62, 0
2, 14080, Note_on_c, 0, 62, 77
2, 14336, Note_off_c, 0, 62, 0
2, 14336, Note_on_c, 0, 64, 79
2, 14336, Note_on_c, 0, 60, 84
2, 14592, Note_off_c, 0, 60, 0
2, 14592, Note_off_c, 0, 64, 0
2, 14592, Note_on_c, 0, 67, 79
2, 14592, Note_on_c, 0, 60, 73
2, 14848, Note_off_c, 0, 60, 0
2, 14848, Note_off_c, 0, 67, 0
2, 14848, Note_on_c, 0, 67, 82
2, 14848, Note_on_c, 0, 62, 81
2, 15104, Note_off_c, 0, 62, 0
2, 15104, Note_off_c, 0, 67, 0
2, 15104, Note_on_c, 0, 66, 74
2, 15104, Note_on_c, 0, 60, 71
2, 15360, Note_off_c, 0, 60, 0
2, 15360, Note_off_c, 0, 66, 0
2, 15360, Note_on_c, 0, 67, 83
2, 15360, Note_on_c, 0, 59, 75
2, 15872, Note_off_c, 0, 59, 0
2, 15872, Note_off_c, 0, 67, 0
2, 15872, Note_on_c, 0, 67, 73
2, 15872, Note_on_c, 0, 59, 74
2, 16384, Note_off_c, 0, 59, 0
2, 16384, Note_off_c, 0, 67, 0
2, 16384, Note_on_c, 0, 67, 76
2, 16384, Note_on_c, 0, 62, 81
2, 16640, Note_off_c, 0, 62, 0
2, 16640, Note_off_c, 0, 67, 0
2, 16640, Note_on_c, 0, 67, 75
2, 16640, Note_on_c, 0, 62, 75
2, 16896, Note_off_c, 0, 62, 0
2, 16896, Note_off_c, 0, 67, 0
2, 16896, Note_on_c, 0, 69, 83
2, 16896, Note_on_c, 0, 64, 84
2, 17024, Note_off_c, 0, 69, 0
2, 17024, Note_on_c, 0, 67, 71
2, 17152, Note_off_c, 0, 67, 0
2, 17152, Note_off_c, 0, 64, 0
2, 17152, Note_on_c, 0, 66, 71
2, 17152, Note_on_c, 0, 60, 69
2, 17280, Note_off_c, 0, 66, 0
2, 17280, Note_on_c, 0, 64, 69
2, 17408, Note_off_c, 0, 64, 0
2, 17408, Note_off_c, 0, 60, 0
2, 17408, Note_on_c, 0, 62, 68
2, 17920, Note_off_c, 0, 62, 0
2, 18176, Note_on_c, 0, 62, 74
2, 18432, Note_off_c, 0, 62, 0
2, 18432, Note_on_c, 0, 64, 80
2, 18432, Note_on_c, 0, 60, 85
2, 18688, Note_off_c, 0, 60, 0
2, 18688, Note_off_c, 0, 64, 0
2, 18688, Note_on_c, 0, 67, 84
2, 18688, Note_on_c, 0, 60, 73
2, 18944, Note_off_c, 0, 60, 0
2, 18944, Note_off_c, 0, 67, 0
2, 18944, Note_on_c, 0, 67, 78
2, 18944, Note_on_c, 0, 62, 82
2, 19200, Note_off_c, 0, 62, 0
2, 19200, Note_off_c, 0, 67, 0
2, 19200, Note_on_c, 0, 66, 71
2, 19200, Note_on_c, 0, 60, 68
2, 19456, Note_off_c, 0, 60, 0
2, 19456, Note_off_c, 0, 66, 0
2, 19456, Note_on_c, 0, 67, 79
2, 19456, Note_on_c, 0, 59, 69
2, 19968, Note_off_c, 0, 59, 0
2, 19968, Note_off_c, 0, 67, 0
2, 19968, Note_on_c, 0, 67, 76
2, 19968, Note_on_c, 0, 59, 79
2, 20224, Note_off_c, 0, 59, 0
2, 20224, Note_off_c, 0, 67, 0
2, 20480, Note_on_c, 0, 67, 67
2, 20480, Note_on_c, 0, 62, 70
2, 20736, Note_off_c, 0, 62, 0
2, 20736, Note_off_c, 0, 67, 0
2, 20736, Note_on_c, 0, 67, 72
2, 20736, Note_on_c, 0, 62, 76
2, 20992, Note_off_c, 0, 62, 0
2, 20992, Note_off_c, 0, 67, 0
2, 20992, Note_on_c, 0, 69, 87
2, 20992, Note_on_c, 0, 64, 84
2, 21120, Note_off_c, 0, 69, 0
2, 21120, Note_on_c, 0, 67, 78
2, 21248, Note_off_c, 0, 67, 0
2, 21248, Note_off_c, 0, 64, 0
2, 21248, Note_on_c, 0, 66, 70
2, 21248, Note_on_c, 0, 60, 71
2, 21376, Note_off_c, 0, 66, 0
2, 21376, Note_on_c, 0, 64, 74
2, 21504, Note_off_c, 0, 64, 0
2, 21504, Note_off_c, 0, 60, 0
2, 21504, Note_on_c, 0, 62, 71
2, 22016, Note_off_c, 0, 62, 0
2, 22272, Note_on_c, 0, 62, 68
2, 22528, Note_off_c, 0, 62, 0
2, 22528, Note_on_c, 0, 64, 77
2, 22528, Note_on_c, 0, 60, 88
2, 22784, Note_off_c, 0, 60, 0
2, 22784, Note_off_c, 0, 64, 0
2, 22784, Note_on_c, 0, 67, 80
2, 22784, Note_on_c, 0, 60, 79
2, 23040, Note_off_c, 0, 60, 0
2, 23040, Note_off_c, 0, 67, 0
2, 23040, Note_on_c, 0, 67, 76
2, 23040, Note_on_c, 0, 62, 80
2, 23296, Note_off_c, 0, 62, 0
2, 23296, Note_off_c, 0, 67, 0
2, 23296, Note_on_c, 0, 66, 74
2, 23296, Note_on_c, 0, 60, 70
2, 23552, Note_off_c, 0, 60, 0
2, 23552, Note_off_c, 0, 66, 0
2, 23552, Note_on_c, 0, 67, 79
2, 23552, Note_on_c, 0, 59, 70
2, 24064, Note_off_c, 0, 59, 0
2, 24064, Note_off_c, 0, 67, 0
2, 24064, Note_on_c, 0, 67, 77
2, 24064, Note_on_c, 0, 59, 78
2, 24320, Note_off_c, 0, 59, 0
2, 24320, Note_off_c, 0, 67, 0
2, 24576, Note_on_c, 0, 74, 70
2, 24576, Note_on_c, 0, 67, 68
2, 24704, Note_off_c, 0, 67, 0
2, 24704, Note_on_c, 0, 69, 82
2, 24832, Note_off_c, 0, 69, 0
2, 24832, Note_on_c, 0, 71, 76
2, 24960, Note_off_c, 0, 74, 0
2, 24960, Note_on_c, 0, 72, 72
2, 25088, Note_off_c, 0, 71, 0
2, 25088, Note_off_c, 0, 72, 0
2, 25088, Note_on_c, 0, 71, 70
2, 25088, Note_on_c, 0, 67, 68
2, 25216, Note_off_c, 0, 71, 0
2, 25216, Note_on_c, 0, 72, 75
2, 25344, Note_off_c, 0, 72, 0
2, 25344, Note_on_c, 0, 74, 80
2, 25472, Note_off_c, 0, 74, 0
2, 25472, Note_on_c, 0, 71, 74
2, 25600, Note_off_c, 0, 67, 0
2, 25600, Note_off_c, 0, 71, 0
2, 25600, Note_on_c, 0, 72, 77
2, 25600, Note_on_c, 0, 64, 66
2, 25728, Note_off_c, 0, 64, 0
2, 25728, Note_on_c, 0, 66, 81
2, 25856, Note_off_c, 0, 66, 0
2, 25856, Note_on_c, 0, 67, 81
2, 25984, Note_off_c, 0, 72, 0
2, 25984, Note_on_c, 0, 71, 73
2, 26112, Note_off_c, 0, 67, 0
2, 26112, Note_off_c, 0, 71, 0
2, 26112, Note_on_c, 0, 69, 71
2, 26112, Note_on_c, 0, 66, 74
2, 26240, Note_off_c, 0, 69, 0
2, 26240, Note_on_c, 0, 71, 80
2, 26368, Note_off_c, 0, 71, 0
2, 26368, Note_on_c, 0, 72, 75
2, 26496, Note_off_c, 0, 72, 0
2, 26496, Note_on_c, 0, 69, 71
2, 26624, Note_off_c, 0, 66, 0
2, 26624, Note_off_c, 0, 69, 0
2, 26624, Note_on_c, 0, 71, 80
2, 26624, Note_on_c, 0, 62, 66
2, 26752, Note_off_c, 0, 62, 0
2, 26752, Note_on_c, 0, 64, 78
2, 26880, Note_off_c, 0, 64, 0
2, 26880, Note_on_c, 0, 66, 79
2, 27008, Note_off_c, 0, 71, 0
2, 27008, Note_on_c, 0, 69, 71
2, 27136, Note_off_c, 0, 66, 0
2, 27136, Note_off_c, 0, 69, 0
2, 27136, Note_on_c, 0, 67, 70
2, 27136, Note_on_c, 0, 64, 74
2, 27264, Note_off_c, 0, 67, 0
2, 27264, Note_on_c, 0, 69, 79
2, 27392, Note_off_c, 0, 69, 0
2, 27392, Note_on_c, 0, 71, 80
2, 27520, Note_off_c, 0, 71, 0
2, 27520, Note_on_c, 0, 67, 68
2, 27648, Note_off_c, 0, 64, 0
2, 27648, Note_off_c, 0, 67, 0
2, 27648, Note_on_c, 0, 69, 77
2, 27648, Note_on_c, 0, 60, 70
2, 27776, Note_off_c, 0, 60, 0
2, 27776, Note_on_c, 0, 62, 81
2, 27904, Note_off_c, 0, 62, 0
2, 27904, Note_on_c, 0, 64, 83
2, 28032, Note_off_c, 0, 69, 0
2, 28032, Note_on_c, 0, 67, 72
2, 28160, Note_off_c, 0, 64, 0
2, 28160, Note_off_c, 0, 67, 0
2, 28160, Note_on_c, 0, 66, 70
2, 28160, Note_on_c, 0, 62, 75
2, 28288, Note_off_c, 0, 66, 0
2, 28288, Note_on_c, 0, 67, 79
2, 28416, Note_off_c, 0, 67, 0
2, 28416, Note_on_c, 0, 69, 82
2, 28544, Note_off_c, 0, 69, 0
2, 28544, Note_on_c, 0, 66, 74
2, 28672, Note_off_c, 0, 62, 0
2, 28672, Note_off_c, 0, 66, 0
2, 28672, Note_on_c, 0, 67, 83
2, 28672, Note_on_c, 0, 59, 70
2, 28800, Note_off_c, 0, 59, 0
2, 28800, Note_on_c, 0, 60, 79
2, 28928, Note_off_c, 0, 60, 0
2, 28928, Note_on_c, 0, 62, 82
2, 29056, Note_off_c, 0, 67, 0
2, 29056, Note_on_c, 0, 66, 73
2, 29184, Note_off_c, 0, 62, 0
2, 29184, Note_off_c, 0, 66, 0
2, 29184, Note_on_c, 0, 64, 69
2, 29184, Note_on_c, 0, 60, 73
2, 29312, Note_off_c, 0, 64, 0
2, 29312, Note_on_c, 0, 66, 82
2, 29440, Note_off_c, 0, 66, 0
2, 29440, Note_on_c, 0, 67, 83
2, 29568, Note_off_c, 0, 67, 0
2, 29568, Note_on_c, 0, 64, 72
2, 29696, Note_off_c, 0, 60, 0
2, 29696, Note_off_c, 0, 64, 0
2, 29696, Note_on_c, 0, 66, 79
2, 29696, Note_on_c, 0, 62, 82
2, 30080, Note_off_c, 0, 66, 0
2, 30080, Note_on_c, 0, 64, 77
2, 30208, Note_off_c, 0, 62, 0
2, 30208, Note_off_c, 0, 64, 0
2, 30208, Note_on_c, 0, 62, 70
2, 30464, Note_off_c, 0, 62, 0
2, 30464, Note_on_c, 0, 62, 79
2, 30720, Note_off_c, 0, 62, 0
2, 30720, Note_on_c, 0, 64, 82
2, 30720, Note_on_c, 0, 60, 84
2, 30976, Note_off_c, 0, 60, 0
2, 30976, Note_off_c, 0, 64, 0
2, 30976, Note_on_c, 0, 67, 83
2, 30976, Note_on_c, 0, 60, 81
2, 31232, Note_off_c, 0, 60, 0
2, 31232, Note_off_c, 0, 67, 0
2, 31232, Note_on_c, 0, 67, 78
2, 31232, Note_on_c, 0, 62, 82
2, 31488, Note_off_c, 0, 62, 0
2, 31488, Note_off_c, 0, 67, 0
2, 31488, Note_on_c, 0, 66, 76
2, 31488, Note_on_c, 0, 60, 73
2, 31744, Note_off_c, 0, 60, 0
2, 31744, Note_off_c, 0, 66, 0
2, 31744, Note_on_c, 0, 67, 81
2, 32256, Note_off_c, 0, 67, 0
2, 32256, Note_on_c, 0, 67, 76
2, 32768, Note_off_c, 0, 67, 0
2, 32768, End_track
0, 0, End_of_file
