0, 0, Header, 1, 2, 256
1, 0, Start_track
1, 0, Tempo, 454545
1, 0, Key_signature, 1, "major"
1, 0, Time_signature, 4, 2, 24, 8
1, 17408, Tempo, 454545
1, 17408, Tempo, 454545
1, 17408, End_track
2, 0, Start_track
2, 0, Control_c, 0, 0, 0
2, 0, Control_c, 0, 32, 0
2, 0, Program_c, 0, 0
2, 0, Title_t, "Piano"
2, 0, Control_c, 0, 7, 127
2, 0, Control_c, 0, 64, 0
2, 0, Control_c, 0, 10, 51
2, 0, Control_c, 0, 7, 85
2, 0, Control_c, 0, 64, 0
2, 0, Control_c, 0, 10, 51
2, 0, Control_c, 0, 7, 85
2, 0, Note_on_c, 0, 67, 67
2, 0, Note_on_c, 0, 62, 67
2, 244, Note_off_c, 0, 67, 0
2, 244, Note_off_c, 0, 62, 0
2, 256, Note_on_c, 0, 67, 73
2, 256, Note_on_c, 0, 62, 73
2, 500, Note_off_c, 0, 67, 0
2, 500, Note_off_c, 0, 62, 0
2, 512, Note_on_c, 0, 67, 76
2, 512, Note_on_c, 0, 64, 76
2, 756, Note_off_c, 0, 64, 0
2, 756, Note_off_c, 0, 67, 0
2, 768, Note_on_c, 0, 69, 81
2, 768, Note_on_c, 0, 62, 81
2, 1012, Note_off_c, 0, 62, 0
2, 1012, Note_off_c, 0, 69, 0
2, 1024, Note_on_c, 0, 67, 64
2, 1024, Note_on_c, 0, 62, 64
2, 1268, Note_off_c, 0, 62, 0
2, 1268, Note_off_c, 0, 67, 0
2, 1280, Note_on_c, 0, 67, 77
2, 1280, Note_on_c, 0, 60, 77
2, 1524, Note_off_c, 0, 60, 0
2, 1524, Note_off_c, 0, 67, 0
2, 1536, Note_on_c, 0, 62, 66
2, 1536, Note_on_c, 0, 57, 66
2, 2023, Note_off_c, 0, 62, 0
2, 2023, Note_off_c, 0, 57, 0
2, 2048, Note_on_c, 0, 64, 75
2, 2048, Note_on_c, 0, 60, 75
2, 2292, Note_off_c, 0, 64, 0
2, 2292, Note_off_c, 0, 60, 0
2, 2304, Note_on_c, 0, 62, 66
2, 2304, Note_on_c, 0, 59, 66
2, 2548, Note_off_c, 0, 62, 0
2, 2548, Note_off_c, 0, 59, 0
2, 2560, Note_on_c, 0, 64, 80
2, 2560, Note_on_c, 0, 60, 80
2, 2804, Note_off_c, 0, 64, 0
2, 2804, Note_off_c, 0, 60, 0
2, 2816, Note_on_c, 0, 66, 83
2, 2816, Note_on_c, 0, 60, 83
2, 3060, Note_off_c, 0, 60, 0
2, 3060, Note_off_c, 0, 66, 0
2, 3072, Note_on_c, 0, 59, 80
2, 3072, Note_on_c, 0, 67, 80
2, 3559, Note_off_c, 0, 67, 0
2, 3559, Note_off_c, 0, 59, 0
2, 3584, Note_on_c, 0, 67, 78
2, 3584, Note_on_c, 0, 62, 78
2, 4071, Note_off_c, 0, 67, 0
2, 4071, Note_off_c, 0, 62, 0
2, 4096, Note_on_c, 0, 67, 77
2, 4096, Note_on_c, 0, 62, 77
2, 4340, Note_off_c, 0, 67, 0
2, 4340, Note_off_c, 0, 62, 0
2, 4352, Note_on_c, 0, 67, 73
2, 4352, Note_on_c, 0, 62, 73
2, 4596, Note_off_c, 0, 67, 0
2, 4596, Note_off_c, 0, 62, 0
2, 4608, Note_on_c, 0, 67, 76
2, 4608, Note_on_c, 0, 64, 76
2, 4852, Note_off_c, 0, 67, 0
2, 4852, Note_off_c, 0, 64, 0
2, 4864, Note_on_c, 0, 69, 86
2, 4864, Note_on_c, 0, 62, 86
2, 5108, Note_off_c, 0, 69, 0
2, 5108, Note_off_c, 0, 62, 0
2, 5120, Note_on_c, 0, 67, 70
2, 5120, Note_on_c, 0, 62, 70
2, 5364, Note_off_c, 0, 67, 0
2, 5364, Note_off_c, 0, 62, 0
2, 5376, Note_on_c, 0, 67, 77
2, 5376, Note_on_c, 0, 60, 77
2, 5620, Note_off_c, 0, 60, 0
2, 5620, Note_off_c, 0, 67, 0
2, 5632, Note_on_c, 0, 62, 69
2, 5632, Note_on_c, 0, 57, 69
2, 6119, Note_off_c, 0, 62, 0
2, 6119, Note_off_c, 0, 57, 0
2, 6144, Note_on_c, 0, 64, 78
2, 6144, Note_on_c, 0, 60, 78
2, 6388, Note_off_c, 0, 64, 0
2, 6388, Note_off_c, 0, 60, 0
2, 6400, Note_on_c, 0, 62, 73
2, 6400, Note_on_c, 0, 59, 73
2, 6644, Note_off_c, 0, 62, 0
2, 6644, Note_off_c, 0, 59, 0
2, 6656, Note_on_c, 0, 64, 74
2, 6656, Note_on_c, 0, 60, 74
2, 6900, Note_off_c, 0, 64, 0
2, 6900, Note_off_c, 0, 60, 0
2, 6912, Note_on_c, 0, 66, 78
2, 6912, Note_on_c, 0, 60, 78
2, 7156, Note_off_c, 0, 60, 0
2, 7156, Note_off_c, 0, 66, 0
2, 7168, Note_on_c, 0, 67, 80
2, 7168, Note_on_c, 0, 59, 80
2, 7655, Note_off_c, 0, 67, 0
2, 7655, Note_off_c, 0, 59, 0
2, 7680, Note_on_c, 0, 67, 73
2, 7680, Note_on_c, 0, 62, 73
2, 8167, Note_off_c, 0, 67, 0
2, 8167, Note_off_c, 0, 62, 0
2, 8192, Note_on_c, 0, 74, 93
2, 8192, Note_on_c, 0, 71, 93
2, 8436, Note_off_c, 0, 71, 0
2, 8436, Note_off_c, 0, 74, 0
2, 8448, Note_on_c, 0, 72, 73
2, 8448, Note_on_c, 0, 69, 73
2, 8692, Note_off_c, 0, 72, 0
2, 8692, Note_off_c, 0, 69, 0
2, 8704, Note_on_c, 0, 71, 74
2, 8704, Note_on_c, 0, 67, 74
2, 8948, Note_off_c, 0, 71, 0
2, 8948, Note_off_c, 0, 67, 0
2, 8960, Note_on_c, 0, 69, 72
2, 8960, Note_on_c, 0, 66, 72
2, 9204, Note_off_c, 0, 69, 0
2, 9204, Note_off_c, 0, 66, 0
2, 9216, Note_on_c, 0, 71, 78
2, 9216, Note_on_c, 0, 67, 78
2, 9460, Note_off_c, 0, 71, 0
2, 9460, Note_off_c, 0, 67, 0
2, 9472, Note_on_c, 0, 69, 74
2, 9472, Note_on_c, 0, 66, 74
2, 9716, Note_off_c, 0, 69, 0
2, 9716, Note_off_c, 0, 66, 0
2, 9728, Note_on_c, 0, 67, 75
2, 9728, Note_on_c, 0, 64, 75
2, 10215, Note_off_c, 0, 67, 0
2, 10215, Note_off_c, 0, 64, 0
2, 10240, Note_on_c, 0, 64, 70
2, 10240, Note_on_c, 0, 60, 70
2, 10484, Note_off_c, 0, 64, 0
2, 10484, Note_off_c, 0, 60, 0
2, 10496, Note_on_c, 0, 62, 65
2, 10496, Note_on_c, 0, 59, 65
2, 10740, Note_off_c, 0, 62, 0
2, 10740, Note_off_c, 0, 59, 0
2, 10752, Note_on_c, 0, 64, 84
2, 10752, Note_on_c, 0, 60, 84
2, 10996, Note_off_c, 0, 60, 0
2, 10996, Note_off_c, 0, 64, 0
2, 11008, Note_on_c, 0, 66, 78
2, 11008, Note_on_c, 0, 62, 78
2, 11252, Note_off_c, 0, 62, 0
2, 11252, Note_off_c, 0, 66, 0
2, 11264, Note_on_c, 0, 67, 81
2, 11264, Note_on_c, 0, 62, 81
2, 11751, Note_off_c, 0, 67, 0
2, 11751, Note_off_c, 0, 62, 0
2, 11776, Note_on_c, 0, 67, 77
2, 11776, Note_on_c, 0, 59, 77
2, 12263, Note_off_c, 0, 67, 0
2, 12263, Note_off_c, 0, 59, 0
2, 12288, Note_on_c, 0, 62, 67
2, 12288, Note_on_c, 0, 59, 67
2, 12532, Note_off_c, 0, 62, 0
2, 12532, Note_off_c, 0, 59, 0
2, 12544, Note_on_c, 0, 62, 77
2, 12544, Note_on_c, 0, 59, 77
2, 12788, Note_off_c, 0, 62, 0
2, 12788, Note_off_c, 0, 59, 0
2, 12800, Note_on_c, 0, 64, 81
2, 12800, Note_on_c, 0, 60, 81
2, 13044, Note_off_c, 0, 64, 0
2, 13044, Note_off_c, 0, 60, 0
2, 13056, Note_on_c, 0, 66, 83
2, 13056, Note_on_c, 0, 60, 83
2, 13300, Note_off_c, 0, 66, 0
2, 13300, Note_off_c, 0, 60, 0
2, 13312, Note_on_c, 0, 67, 83
2, 13312, Note_on_c, 0, 62, 83
2, 13556, Note_off_c, 0, 62, 0
2, 13556, Note_off_c, 0, 67, 0
2, 13568, Note_on_c, 0, 67, 75
2, 13568, Note_on_c, 0, 62, 75
2, 13812, Note_off_c, 0, 67, 0
2, 13812, Note_off_c, 0, 62, 0
2, 13824, Note_on_c, 0, 69, 81
2, 13824, Note_on_c, 0, 64, 81
2, 14311, Note_off_c, 0, 64, 0
2, 14311, Note_off_c, 0, 69, 0
2, 14336, Note_on_c, 0, 74, 86
2, 14336, Note_on_c, 0, 71, 86
2, 14580, Note_off_c, 0, 74, 0
2, 14580, Note_off_c, 0, 71, 0
2, 14592, Note_on_c, 0, 72, 70
2, 14592, Note_on_c, 0, 69, 70
2, 14836, Note_off_c, 0, 72, 0
2, 14836, Note_off_c, 0, 69, 0
2, 14848, Note_on_c, 0, 71, 73
2, 14848, Note_on_c, 0, 67, 73
2, 15092, Note_off_c, 0, 71, 0
2, 15092, Note_off_c, 0, 67, 0
2, 15104, Note_on_c, 0, 69, 73
2, 15104, Note_on_c, 0, 66, 73
2, 15348, Note_off_c, 0, 69, 0
2, 15348, Note_off_c, 0, 66, 0
2, 15360, Note_on_c, 0, 67, 74
2, 15360, Note_on_c, 0, 64, 74
2, 15847, Note_off_c, 0, 64, 0
2, 15847, Note_off_c, 0, 67, 0
2, 15872, Note_on_c, 0, 72, 86
2, 15872, Note_on_c, 0, 64, 86
2, 16359, Note_off_c, 0, 64, 0
2, 16359, Note_off_c, 0, 72, 0
2, 16384, Note_on_c, 0, 67, 67
2, 16384, Note_on_c, 0, 62, 67
2, 17357, Note_off_c, 0, 62, 0
2, 17357, Note_off_c, 0, 67, 0
2, 17408, Note_on_c, 0, 67, 77
2, 17408, Note_on_c, 0, 62, 77
2, 17652, Note_off_c, 0, 67, 0
2, 17652, Note_off_c, 0, 62, 0
2, 17664, Note_on_c, 0, 67, 74
2, 17664, Note_on_c, 0, 62, 74
2, 17908, Note_off_c, 0, 67, 0
2, 17908, Note_off_c, 0, 62, 0
2, 17920, Note_on_c, 0, 67, 75
2, 17920, Note_on_c, 0, 64, 75
2, 18164, Note_off_c, 0, 67, 0
2, 18164, Note_off_c, 0, 64, 0
2, 18176, Note_on_c, 0, 69, 80
2, 18176, Note_on_c, 0, 62, 80
2, 18420, Note_off_c, 0, 69, 0
2, 18420, Note_off_c, 0, 62, 0
2, 18432, Note_on_c, 0, 67, 73
2, 18432, Note_on_c, 0, 62, 73
2, 18676, Note_off_c, 0, 67, 0
2, 18676, Note_off_c, 0, 62, 0
2, 18688, Note_on_c, 0, 67, 75
2, 18688, Note_on_c, 0, 60, 75
2, 18932, Note_off_c, 0, 67, 0
2, 18932, Note_off_c, 0, 60, 0
2, 18944, Note_on_c, 0, 62, 69
2, 18944, Note_on_c, 0, 57, 69
2, 19431, Note_off_c, 0, 62, 0
2, 19431, Note_off_c, 0, 57, 0
2, 19456, Note_on_c, 0, 64, 76
2, 19456, Note_on_c, 0, 60, 76
2, 19700, Note_off_c, 0, 64, 0
2, 19700, Note_off_c, 0, 60, 0
2, 19712, Note_on_c, 0, 62, 72
2, 19712, Note_on_c, 0, 59, 72
2, 19956, Note_off_c, 0, 62, 0
2, 19956, Note_off_c, 0, 59, 0
2, 19968, Note_on_c, 0, 64, 84
2, 19968, Note_on_c, 0, 60, 84
2, 20212, Note_off_c, 0, 64, 0
2, 20212, Note_off_c, 0, 60, 0
2, 20224, Note_on_c, 0, 66, 80
2, 20224, Note_on_c, 0, 60, 80
2, 20468, Note_off_c, 0, 60, 0
2, 20468, Note_off_c, 0, 66, 0
2, 20480, Note_on_c, 0, 67, 82
2, 20480, Note_on_c, 0, 62, 82
2, 20967, Note_off_c, 0, 67, 0
2, 20967, Note_off_c, 0, 62, 0
2, 20992, Note_on_c, 0, 67, 78
2, 20992, Note_on_c, 0, 59, 78
2, 21479, Note_off_c, 0, 67, 0
2, 21479, Note_off_c, 0, 59, 0
2, 21504, Note_on_c, 0, 67, 76
2, 21504, Note_on_c, 0, 62, 76
2, 21748, Note_off_c, 0, 67, 0
2, 21748, Note_off_c, 0, 62, 0
2, 21760, Note_on_c, 0, 67, 72
2, 21760, Note_on_c, 0, 62, 72
2, 22004, Note_off_c, 0, 67, 0
2, 22004, Note_off_c, 0, 62, 0
2, 22016, Note_on_c, 0, 67, 79
2, 22016, Note_on_c, 0, 64, 79
2, 22260, Note_off_c, 0, 67, 0
2, 22260, Note_off_c, 0, 64, 0
2, 22272, Note_on_c, 0, 69, 82
2, 22272, Note_on_c, 0, 62, 82
2, 22516, Note_off_c, 0, 69, 0
2, 22516, Note_off_c, 0, 62, 0
2, 22528, Note_on_c, 0, 67, 72
2, 22528, Note_on_c, 0, 62, 72
2, 22772, Note_off_c, 0, 67, 0
2, 22772, Note_off_c, 0, 62, 0
2, 22784, Note_on_c, 0, 60, 75
2, 22784, Note_on_c, 0, 67, 75
2, 23028, Note_off_c, 0, 60, 0
2, 23028, Note_off_c, 0, 67, 0
2, 23040, Note_on_c, 0, 57, 67
2, 23040, Note_on_c, 0, 62, 67
2, 23527, Note_off_c, 0, 62, 0
2, 23527, Note_off_c, 0, 57, 0
2, 23552, Note_on_c, 0, 60, 74
2, 23552, Note_on_c, 0, 64, 74
2, 23796, Note_off_c, 0, 64, 0
2, 23796, Note_off_c, 0, 60, 0
2, 23808, Note_on_c, 0, 62, 72
2, 23808, Note_on_c, 0, 59, 72
2, 24052, Note_off_c, 0, 62, 0
2, 24052, Note_off_c, 0, 59, 0
2, 24064, Note_on_c, 0, 64, 79
2, 24064, Note_on_c, 0, 60, 79
2, 24308, Note_off_c, 0, 64, 0
2, 24308, Note_off_c, 0, 60, 0
2, 24320, Note_on_c, 0, 66, 86
2, 24320, Note_on_c, 0, 60, 86
2, 24564, Note_off_c, 0, 60, 0
2, 24564, Note_off_c, 0, 66, 0
2, 24576, Note_on_c, 0, 67, 80
2, 24576, Note_on_c, 0, 59, 80
2, 25063, Note_off_c, 0, 59, 0
2, 25063, Note_off_c, 0, 67, 0
2, 25088, Note_on_c, 0, 67, 75
2, 25088, Note_on_c, 0, 62, 75
2, 25575, Note_off_c, 0, 62, 0
2, 25575, Note_off_c, 0, 67, 0
2, 25600, Note_on_c, 0, 74, 95
2, 25600, Note_on_c, 0, 71, 95
2, 25844, Note_off_c, 0, 74, 0
2, 25844, Note_off_c, 0, 71, 0
2, 25856, Note_on_c, 0, 72, 73
2, 25856, Note_on_c, 0, 69, 73
2, 26100, Note_off_c, 0, 72, 0
2, 26100, Note_off_c, 0, 69, 0
2, 26112, Note_on_c, 0, 71, 74
2, 26356, Note_off_c, 0, 71, 0
2, 26368, Note_on_c, 0, 69, 71
2, 26368, Note_on_c, 0, 66, 71
2, 26612, Note_off_c, 0, 69, 0
2, 26612, Note_off_c, 0, 66, 0
2, 26624, Note_on_c, 0, 71, 81
2, 26624, Note_on_c, 0, 67, 81
2, 26868, Note_off_c, 0, 71, 0
2, 26868, Note_off_c, 0, 67, 0
2, 26880, Note_on_c, 0, 69, 70
2, 26880, Note_on_c, 0, 66, 70
2, 27124, Note_off_c, 0, 69, 0
2, 27124, Note_off_c, 0, 66, 0
2, 27136, Note_on_c, 0, 67, 76
2, 27136, Note_on_c, 0, 64, 76
2, 27623, Note_off_c, 0, 64, 0
2, 27623, Note_off_c, 0, 67, 0
2, 27648, Note_on_c, 0, 64, 70
2, 27648, Note_on_c, 0, 60, 70
2, 27892, Note_off_c, 0, 64, 0
2, 27892, Note_off_c, 0, 60, 0
2, 27904, Note_on_c, 0, 62, 70
2, 27904, Note_on_c, 0, 59, 70
2, 28148, Note_off_c, 0, 62, 0
2, 28148, Note_off_c, 0, 59, 0
2, 28160, Note_on_c, 0, 64, 84
2, 28160, Note_on_c, 0, 60, 84
2, 28404, Note_off_c, 0, 64, 0
2, 28404, Note_off_c, 0, 60, 0
2, 28416, Note_on_c, 0, 66, 78
2, 28416, Note_on_c, 0, 62, 78
2, 28660, Note_off_c, 0, 62, 0
2, 28660, Note_off_c, 0, 66, 0
2, 28672, Note_on_c, 0, 67, 80
2, 28672, Note_on_c, 0, 62, 80
2, 29159, Note_off_c, 0, 67, 0
2, 29159, Note_off_c, 0, 62, 0
2, 29184, Note_on_c, 0, 67, 75
2, 29184, Note_on_c, 0, 59, 75
2, 29671, Note_off_c, 0, 67, 0
2, 29671, Note_off_c, 0, 59, 0
2, 29696, Note_on_c, 0, 62, 63
2, 29696, Note_on_c, 0, 59, 63
2, 29940, Note_off_c, 0, 62, 0
2, 29940, Note_off_c, 0, 59, 0
2, 29952, Note_on_c, 0, 62, 69
2, 29952, Note_on_c, 0, 59, 69
2, 30196, Note_off_c, 0, 62, 0
2, 30196, Note_off_c, 0, 59, 0
2, 30208, Note_on_c, 0, 64, 82
2, 30208, Note_on_c, 0, 60, 82
2, 30452, Note_off_c, 0, 60, 0
2, 30452, Note_off_c, 0, 64, 0
2, 30464, Note_on_c, 0, 66, 83
2, 30464, Note_on_c, 0, 60, 83
2, 30708, Note_off_c, 0, 66, 0
2, 30708, Note_off_c, 0, 60, 0
2, 30720, Note_on_c, 0, 67, 82
2, 30720, Note_on_c, 0, 62, 82
2, 30964, Note_off_c, 0, 62, 0
2, 30964, Note_off_c, 0, 67, 0
2, 30976, Note_on_c, 0, 67, 78
2, 30976, Note_on_c, 0, 62, 78
2, 31220, Note_off_c, 0, 62, 0
2, 31220, Note_off_c, 0, 67, 0
2, 31232, Note_on_c, 0, 69, 81
2, 31232, Note_on_c, 0, 64, 81
2, 31719, Note_off_c, 0, 69, 0
2, 31719, Note_off_c, 0, 64, 0
2, 31744, Note_on_c, 0, 74, 85
2, 31744, Note_on_c, 0, 71, 85
2, 31988, Note_off_c, 0, 74, 0
2, 31988, Note_off_c, 0, 71, 0
2, 32000, Note_on_c, 0, 72, 72
2, 32000, Note_on_c, 0, 69, 72
2, 32244, Note_off_c, 0, 72, 0
2, 32244, Note_off_c, 0, 69, 0
2, 32256, Note_on_c, 0, 71, 71
2, 32256, Note_on_c, 0, 67, 71
2, 32500, Note_off_c, 0, 67, 0
2, 32500, Note_off_c, 0, 71, 0
2, 32512, Note_on_c, 0, 69, 70
2, 32512, Note_on_c, 0, 66, 70
2, 32756, Note_off_c, 0, 69, 0
2, 32756, Note_off_c, 0, 66, 0
2, 32768, Note_on_c, 0, 67, 72
2, 32768, Note_on_c, 0, 64, 72
2, 33255, Note_off_c, 0, 67, 0
2, 33255, Note_off_c, 0, 64, 0
2, 33280, Note_on_c, 0, 72, 83
2, 33280, Note_on_c, 0, 64, 83
2, 33767, Note_off_c, 0, 72, 0
2, 33767, Note_off_c, 0, 64, 0
2, 33792, Note_on_c, 0, 67, 69
2, 33792, Note_on_c, 0, 62, 69
2, 34765, Note_off_c, 0, 67, 0
2, 34765, Note_off_c, 0, 62, 0
2, 34815, Control_c, 0, 127, 0
2, 34815, End_track
0, 0, End_of_file
