0, 0, Header, 1, 2, 256
1, 0, Start_track
1, 0, Time_signature, 2, 2, 24, 8
1, 0, Key_signature, 1, "major"
1, 0, Tempo, 571427
1, 0, Title_t, "The Coventry Carol"
1, 0, Text_t, "Traditional"
1, 0, Copyright_t, "Copyright © Glenn Jarrett"
1, 16384, Tempo, 571426
1, 16384, Tempo, 571427
1, 16385, End_track
2, 0, Start_track
2, 0, Program_c, 0, 0
2, 0, Control_c, 0, 121, 0
2, 0, Control_c, 0, 64, 0
2, 0, Control_c, 0, 91, 48
2, 0, Control_c, 0, 10, 51
2, 0, Control_c, 0, 7, 100
2, 0, Note_on_c, 0, 62, 64
2, 0, Note_on_c, 0, 59, 56
2, 0, Control_c, 0, 121, 0
2, 0, Control_c, 0, 64, 0
2, 0, Control_c, 0, 91, 48
2, 0, Control_c, 0, 10, 51
2, 0, Control_c, 0, 7, 100
2, 0, Title_t, "Piano"
2, 0, Note_on_c, 0, 43, 55
2, 128, Note_off_c, 0, 62, 0
2, 128, Note_on_c, 0, 71, 75
2, 128, Note_off_c, 0, 43, 0
2, 128, Note_on_c, 0, 50, 63
2, 256, Note_off_c, 0, 71, 0
2, 256, Note_on_c, 0, 69, 70
2, 256, Note_off_c, 0, 50, 0
2, 256, Note_on_c, 0, 55, 62
2, 384, Note_off_c, 0, 69, 0
2, 384, Note_on_c, 0, 67, 68
2, 384, Note_off_c, 0, 55, 0
2, 384, Note_on_c, 0, 50, 59
2, 512, Note_off_c, 0, 59, 0
2, 512, Note_off_c, 0, 67, 0
2, 512, Note_on_c, 0, 62, 66
2, 512, Note_on_c, 0, 59, 58
2, 512, Note_off_c, 0, 50, 0
2, 512, Note_on_c, 0, 43, 58
2, 640, Note_off_c, 0, 43, 0
2, 640, Note_on_c, 0, 50, 63
2, 768, Note_off_c, 0, 50, 0
2, 768, Note_on_c, 0, 55, 63
2, 896, Note_off_c, 0, 62, 0
2, 896, Note_on_c, 0, 62, 70
2, 896, Note_off_c, 0, 55, 0
2, 896, Note_on_c, 0, 50, 59
2, 960, Note_off_c, 0, 62, 0
2, 960, Note_on_c, 0, 62, 73
2, 1024, Note_off_c, 0, 59, 0
2, 1024, Note_off_c, 0, 62, 0
2, 1024, Note_on_c, 0, 62, 70
2, 1024, Note_on_c, 0, 59, 60
2, 1024, Note_off_c, 0, 50, 0
2, 1024, Note_on_c, 0, 43, 56
2, 1152, Note_off_c, 0, 62, 0
2, 1152, Note_on_c, 0, 71, 79
2, 1152, Note_off_c, 0, 43, 0
2, 1152, Note_on_c, 0, 50, 63
2, 1280, Note_off_c, 0, 71, 0
2, 1280, Note_on_c, 0, 69, 70
2, 1280, Note_off_c, 0, 50, 0
2, 1280, Note_on_c, 0, 55, 64
2, 1408, Note_off_c, 0, 69, 0
2, 1408, Note_on_c, 0, 67, 69
2, 1408, Note_off_c, 0, 55, 0
2, 1408, Note_on_c, 0, 50, 58
2, 1536, Note_off_c, 0, 59, 0
2, 1536, Note_off_c, 0, 67, 0
2, 1536, Note_on_c, 0, 64, 68
2, 1536, Note_on_c, 0, 60, 63
2, 1536, Note_off_c, 0, 50, 0
2, 1536, Note_on_c, 0, 48, 61
2, 1664, Note_off_c, 0, 48, 0
2, 1664, Note_on_c, 0, 52, 60
2, 1792, Note_off_c, 0, 52, 0
2, 1792, Note_on_c, 0, 55, 62
2, 1920, Note_off_c, 0, 55, 0
2, 1920, Note_on_c, 0, 52, 63
2, 2048, Note_off_c, 0, 64, 0
2, 2048, Note_off_c, 0, 60, 0
2, 2048, Note_on_c, 0, 64, 71
2, 2048, Note_on_c, 0, 60, 58
2, 2048, Note_off_c, 0, 52, 0
2, 2048, Note_on_c, 0, 45, 59
2, 2176, Note_off_c, 0, 64, 0
2, 2176, Note_on_c, 0, 72, 78
2, 2176, Note_off_c, 0, 45, 0
2, 2176, Note_on_c, 0, 52, 61
2, 2304, Note_off_c, 0, 72, 0
2, 2304, Note_on_c, 0, 71, 70
2, 2304, Note_off_c, 0, 52, 0
2, 2304, Note_on_c, 0, 57, 63
2, 2432, Note_off_c, 0, 71, 0
2, 2432, Note_on_c, 0, 69, 68
2, 2432, Note_off_c, 0, 57, 0
2, 2432, Note_on_c, 0, 52, 57
2, 2560, Note_off_c, 0, 60, 0
2, 2560, Note_off_c, 0, 69, 0
2, 2560, Note_on_c, 0, 66, 67
2, 2560, Note_on_c, 0, 62, 62
2, 2560, Note_off_c, 0, 52, 0
2, 2560, Note_on_c, 0, 50, 60
2, 2688, Note_off_c, 0, 50, 0
2, 2688, Note_on_c, 0, 54, 62
2, 2816, Note_off_c, 0, 54, 0
2, 2816, Note_on_c, 0, 57, 60
2, 2944, Note_off_c, 0, 57, 0
2, 2944, Note_on_c, 0, 54, 60
2, 3072, Note_off_c, 0, 66, 0
2, 3072, Note_off_c, 0, 62, 0
2, 3072, Note_on_c, 0, 74, 77
2, 3072, Note_on_c, 0, 66, 64
2, 3072, Note_off_c, 0, 54, 0
2, 3072, Note_on_c, 0, 50, 61
2, 3200, Note_off_c, 0, 74, 0
2, 3200, Note_on_c, 0, 74, 73
2, 3200, Note_off_c, 0, 50, 0
2, 3200, Note_on_c, 0, 54, 61
2, 3328, Note_off_c, 0, 66, 0
2, 3328, Note_off_c, 0, 74, 0
2, 3328, Note_on_c, 0, 72, 68
2, 3328, Note_on_c, 0, 66, 60
2, 3328, Note_off_c, 0, 54, 0
2, 3328, Note_on_c, 0, 57, 60
2, 3456, Note_off_c, 0, 72, 0
2, 3456, Note_on_c, 0, 69, 68
2, 3456, Note_off_c, 0, 57, 0
2, 3456, Note_on_c, 0, 50, 60
2, 3584, Note_off_c, 0, 66, 0
2, 3584, Note_off_c, 0, 69, 0
2, 3584, Note_on_c, 0, 71, 72
2, 3584, Note_on_c, 0, 67, 64
2, 3584, Note_off_c, 0, 50, 0
2, 3584, Note_on_c, 0, 43, 59
2, 3712, Note_off_c, 0, 43, 0
2, 3712, Note_on_c, 0, 50, 65
2, 3840, Note_off_c, 0, 50, 0
2, 3840, Note_on_c, 0, 55, 63
2, 3968, Note_off_c, 0, 55, 0
2, 3968, Note_on_c, 0, 50, 59
2, 4096, Note_off_c, 0, 71, 0
2, 4096, Note_off_c, 0, 67, 0
2, 4096, Note_on_c, 0, 62, 64
2, 4096, Note_on_c, 0, 59, 59
2, 4096, Note_off_c, 0, 50, 0
2, 4096, Note_on_c, 0, 43, 57
2, 4224, Note_off_c, 0, 62, 0
2, 4224, Note_on_c, 0, 71, 78
2, 4224, Note_off_c, 0, 43, 0
2, 4224, Note_on_c, 0, 50, 62
2, 4352, Note_off_c, 0, 71, 0
2, 4352, Note_on_c, 0, 69, 68
2, 4352, Note_off_c, 0, 50, 0
2, 4352, Note_on_c, 0, 55, 63
2, 4480, Note_off_c, 0, 69, 0
2, 4480, Note_on_c, 0, 67, 70
2, 4480, Note_off_c, 0, 55, 0
2, 4480, Note_on_c, 0, 50, 59
2, 4608, Note_off_c, 0, 59, 0
2, 4608, Note_off_c, 0, 67, 0
2, 4608, Note_on_c, 0, 62, 67
2, 4608, Note_on_c, 0, 59, 61
2, 4608, Note_off_c, 0, 50, 0
2, 4608, Note_on_c, 0, 43, 61
2, 4736, Note_off_c, 0, 43, 0
2, 4736, Note_on_c, 0, 50, 63
2, 4864, Note_off_c, 0, 50, 0
2, 4864, Note_on_c, 0, 55, 60
2, 4992, Note_off_c, 0, 62, 0
2, 4992, Note_on_c, 0, 62, 72
2, 4992, Note_off_c, 0, 55, 0
2, 4992, Note_on_c, 0, 50, 60
2, 5056, Note_off_c, 0, 62, 0
2, 5056, Note_on_c, 0, 62, 73
2, 5120, Note_off_c, 0, 59, 0
2, 5120, Note_off_c, 0, 62, 0
2, 5120, Note_on_c, 0, 62, 70
2, 5120, Note_on_c, 0, 59, 61
2, 5120, Note_off_c, 0, 50, 0
2, 5120, Note_on_c, 0, 43, 58
2, 5248, Note_off_c, 0, 62, 0
2, 5248, Note_on_c, 0, 71, 79
2, 5248, Note_off_c, 0, 43, 0
2, 5248, Note_on_c, 0, 50, 63
2, 5376, Note_off_c, 0, 71, 0
2, 5376, Note_on_c, 0, 69, 70
2, 5376, Note_off_c, 0, 50, 0
2, 5376, Note_on_c, 0, 55, 61
2, 5504, Note_off_c, 0, 69, 0
2, 5504, Note_on_c, 0, 67, 68
2, 5504, Note_off_c, 0, 55, 0
2, 5504, Note_on_c, 0, 50, 59
2, 5632, Note_off_c, 0, 59, 0
2, 5632, Note_off_c, 0, 67, 0
2, 5632, Note_on_c, 0, 64, 69
2, 5632, Note_on_c, 0, 60, 63
2, 5632, Note_off_c, 0, 50, 0
2, 5632, Note_on_c, 0, 48, 60
2, 5760, Note_off_c, 0, 48, 0
2, 5760, Note_on_c, 0, 52, 63
2, 5888, Note_off_c, 0, 52, 0
2, 5888, Note_on_c, 0, 55, 62
2, 6016, Note_off_c, 0, 55, 0
2, 6016, Note_on_c, 0, 52, 58
2, 6144, Note_off_c, 0, 64, 0
2, 6144, Note_off_c, 0, 60, 0
2, 6144, Note_on_c, 0, 64, 72
2, 6144, Note_on_c, 0, 60, 62
2, 6144, Note_off_c, 0, 52, 0
2, 6144, Note_on_c, 0, 45, 60
2, 6272, Note_off_c, 0, 64, 0
2, 6272, Note_on_c, 0, 72, 77
2, 6272, Note_off_c, 0, 45, 0
2, 6272, Note_on_c, 0, 52, 62
2, 6400, Note_off_c, 0, 72, 0
2, 6400, Note_on_c, 0, 71, 71
2, 6400, Note_off_c, 0, 52, 0
2, 6400, Note_on_c, 0, 57, 63
2, 6528, Note_off_c, 0, 71, 0
2, 6528, Note_on_c, 0, 69, 71
2, 6528, Note_off_c, 0, 57, 0
2, 6528, Note_on_c, 0, 52, 59
2, 6656, Note_off_c, 0, 60, 0
2, 6656, Note_off_c, 0, 69, 0
2, 6656, Note_on_c, 0, 74, 75
2, 6656, Note_on_c, 0, 67, 67
2, 6656, Note_off_c, 0, 52, 0
2, 6656, Note_on_c, 0, 47, 60
2, 6784, Note_off_c, 0, 74, 0
2, 6784, Note_on_c, 0, 74, 73
2, 6784, Note_off_c, 0, 47, 0
2, 6784, Note_on_c, 0, 50, 62
2, 6912, Note_off_c, 0, 67, 0
2, 6912, Note_off_c, 0, 74, 0
2, 6912, Note_on_c, 0, 74, 72
2, 6912, Note_on_c, 0, 67, 62
2, 6912, Note_off_c, 0, 50, 0
2, 6912, Note_on_c, 0, 55, 61
2, 7040, Note_off_c, 0, 74, 0
2, 7040, Note_on_c, 0, 74, 70
2, 7040, Note_off_c, 0, 55, 0
2, 7040, Note_on_c, 0, 50, 60
2, 7168, Note_off_c, 0, 67, 0
2, 7168, Note_off_c, 0, 74, 0
2, 7168, Note_on_c, 0, 76, 73
2, 7168, Note_on_c, 0, 66, 61
2, 7168, Note_off_c, 0, 50, 0
2, 7168, Note_on_c, 0, 45, 57
2, 7296, Note_off_c, 0, 76, 0
2, 7296, Note_on_c, 0, 74, 69
2, 7296, Note_off_c, 0, 45, 0
2, 7296, Note_on_c, 0, 50, 62
2, 7424, Note_off_c, 0, 66, 0
2, 7424, Note_off_c, 0, 74, 0
2, 7424, Note_on_c, 0, 72, 69
2, 7424, Note_on_c, 0, 66, 63
2, 7424, Note_off_c, 0, 50, 0
2, 7424, Note_on_c, 0, 54, 62
2, 7552, Note_off_c, 0, 72, 0
2, 7552, Note_on_c, 0, 69, 69
2, 7552, Note_off_c, 0, 54, 0
2, 7552, Note_on_c, 0, 50, 59
2, 7680, Note_off_c, 0, 66, 0
2, 7680, Note_off_c, 0, 69, 0
2, 7680, Note_on_c, 0, 67, 70
2, 7680, Note_on_c, 0, 62, 58
2, 7680, Note_off_c, 0, 50, 0
2, 7680, Note_on_c, 0, 43, 59
2, 7808, Note_off_c, 0, 43, 0
2, 7808, Note_on_c, 0, 50, 62
2, 7936, Note_off_c, 0, 67, 0
2, 7936, Note_off_c, 0, 62, 0
2, 7936, Note_on_c, 0, 74, 77
2, 7936, Note_on_c, 0, 67, 65
2, 7936, Note_off_c, 0, 50, 0
2, 7936, Note_on_c, 0, 55, 63
2, 8192, Note_off_c, 0, 74, 0
2, 8192, Note_off_c, 0, 67, 0
2, 8192, Note_on_c, 0, 67, 69
2, 8192, Note_on_c, 0, 71, 69
2, 8192, Note_off_c, 0, 55, 0
2, 8192, Note_on_c, 0, 43, 55
2, 8320, Note_off_c, 0, 67, 0
2, 8320, Note_off_c, 0, 71, 0
2, 8320, Note_on_c, 0, 67, 74
2, 8320, Note_on_c, 0, 71, 74
2, 8448, Note_off_c, 0, 67, 0
2, 8448, Note_off_c, 0, 71, 0
2, 8448, Note_on_c, 0, 67, 70
2, 8448, Note_on_c, 0, 71, 70
2, 8576, Note_off_c, 0, 43, 0
2, 8576, Note_on_c, 0, 50, 64
2, 8704, Note_off_c, 0, 67, 0
2, 8704, Note_off_c, 0, 71, 0
2, 8704, Note_on_c, 0, 67, 72
2, 8704, Note_on_c, 0, 71, 72
2, 8704, Note_off_c, 0, 50, 0
2, 8704, Note_on_c, 0, 55, 64
2, 8832, Note_off_c, 0, 67, 0
2, 8832, Note_off_c, 0, 71, 0
2, 8832, Note_on_c, 0, 67, 70
2, 8832, Note_on_c, 0, 71, 70
2, 8960, Note_off_c, 0, 67, 0
2, 8960, Note_off_c, 0, 71, 0
2, 8960, Note_on_c, 0, 67, 72
2, 8960, Note_on_c, 0, 71, 72
2, 9088, Note_off_c, 0, 55, 0
2, 9088, Note_on_c, 0, 50, 58
2, 9216, Note_off_c, 0, 67, 0
2, 9216, Note_off_c, 0, 71, 0
2, 9216, Note_on_c, 0, 71, 70
2, 9216, Note_on_c, 0, 67, 62
2, 9216, Note_off_c, 0, 50, 0
2, 9216, Note_on_c, 0, 43, 57
2, 9344, Note_off_c, 0, 71, 0
2, 9344, Note_on_c, 0, 74, 73
2, 9344, Note_off_c, 0, 43, 0
2, 9344, Note_on_c, 0, 50, 64
2, 9472, Note_off_c, 0, 67, 0
2, 9472, Note_off_c, 0, 74, 0
2, 9472, Note_on_c, 0, 67, 64
2, 9472, Note_on_c, 0, 64, 59
2, 9472, Note_off_c, 0, 50, 0
2, 9472, Note_on_c, 0, 48, 62
2, 9472, Note_on_c, 0, 52, 62
2, 9664, Note_off_c, 0, 67, 0
2, 9664, Note_on_c, 0, 69, 73
2, 9728, Note_off_c, 0, 64, 0
2, 9728, Note_off_c, 0, 69, 0
2, 9728, Note_on_c, 0, 71, 75
2, 9728, Note_on_c, 0, 62, 60
2, 9728, Note_off_c, 0, 48, 0
2, 9728, Note_off_c, 0, 52, 0
2, 9728, Note_on_c, 0, 43, 56
2, 9856, Note_off_c, 0, 43, 0
2, 9856, Note_on_c, 0, 50, 64
2, 9984, Note_off_c, 0, 50, 0
2, 9984, Note_on_c, 0, 55, 62
2, 10240, Note_off_c, 0, 71, 0
2, 10240, Note_off_c, 0, 62, 0
2, 10240, Note_on_c, 0, 72, 73
2, 10240, Note_on_c, 0, 64, 64
2, 10240, Note_off_c, 0, 55, 0
2, 10240, Note_on_c, 0, 48, 60
2, 10368, Note_off_c, 0, 72, 0
2, 10368, Note_off_c, 0, 64, 0
2, 10368, Note_on_c, 0, 72, 72
2, 10368, Note_on_c, 0, 64, 61
2, 10368, Note_off_c, 0, 48, 0
2, 10368, Note_on_c, 0, 52, 64
2, 10496, Note_off_c, 0, 72, 0
2, 10496, Note_off_c, 0, 64, 0
2, 10496, Note_on_c, 0, 72, 72
2, 10496, Note_on_c, 0, 64, 62
2, 10496, Note_off_c, 0, 52, 0
2, 10496, Note_on_c, 0, 55, 61
2, 10624, Note_off_c, 0, 55, 0
2, 10624, Note_on_c, 0, 52, 60
2, 10688, Note_off_c, 0, 72, 0
2, 10688, Note_on_c, 0, 72, 71
2, 10752, Note_off_c, 0, 64, 0
2, 10752, Note_off_c, 0, 72, 0
2, 10752, Note_on_c, 0, 72, 73
2, 10752, Note_on_c, 0, 62, 58
2, 10752, Note_off_c, 0, 52, 0
2, 10752, Note_on_c, 0, 47, 58
2, 10880, Note_off_c, 0, 72, 0
2, 10880, Note_on_c, 0, 71, 70
2, 10880, Note_off_c, 0, 47, 0
2, 10880, Note_on_c, 0, 50, 61
2, 11008, Note_off_c, 0, 62, 0
2, 11008, Note_off_c, 0, 71, 0
2, 11008, Note_on_c, 0, 71, 72
2, 11008, Note_on_c, 0, 62, 61
2, 11008, Note_off_c, 0, 50, 0
2, 11008, Note_on_c, 0, 55, 60
2, 11136, Note_off_c, 0, 71, 0
2, 11136, Note_on_c, 0, 71, 70
2, 11136, Note_off_c, 0, 55, 0
2, 11136, Note_on_c, 0, 50, 58
2, 11200, Note_off_c, 0, 71, 0
2, 11200, Note_on_c, 0, 71, 71
2, 11264, Note_off_c, 0, 62, 0
2, 11264, Note_off_c, 0, 71, 0
2, 11264, Note_on_c, 0, 71, 70
2, 11264, Note_on_c, 0, 61, 59
2, 11264, Note_off_c, 0, 50, 0
2, 11264, Note_on_c, 0, 45, 59
2, 11392, Note_off_c, 0, 71, 0
2, 11392, Note_on_c, 0, 69, 67
2, 11392, Note_off_c, 0, 45, 0
2, 11392, Note_on_c, 0, 52, 61
2, 11520, Note_off_c, 0, 61, 0
2, 11520, Note_off_c, 0, 69, 0
2, 11520, Note_on_c, 0, 69, 71
2, 11520, Note_on_c, 0, 61, 61
2, 11520, Note_off_c, 0, 52, 0
2, 11520, Note_on_c, 0, 57, 62
2, 11648, Note_off_c, 0, 69, 0
2, 11648, Note_on_c, 0, 71, 73
2, 11648, Note_off_c, 0, 57, 0
2, 11648, Note_on_c, 0, 52, 60
2, 11776, Note_off_c, 0, 61, 0
2, 11776, Note_off_c, 0, 71, 0
2, 11776, Note_on_c, 0, 69, 71
2, 11776, Note_on_c, 0, 62, 63
2, 11776, Note_off_c, 0, 52, 0
2, 11776, Note_on_c, 0, 50, 61
2, 11904, Note_off_c, 0, 50, 0
2, 11904, Note_on_c, 0, 54, 62
2, 12032, Note_off_c, 0, 69, 0
2, 12032, Note_off_c, 0, 62, 0
2, 12032, Note_on_c, 0, 74, 74
2, 12032, Note_on_c, 0, 66, 64
2, 12032, Note_off_c, 0, 54, 0
2, 12032, Note_on_c, 0, 57, 64
2, 12160, Note_off_c, 0, 57, 0
2, 12160, Note_on_c, 0, 54, 58
2, 12288, Note_off_c, 0, 74, 0
2, 12288, Note_off_c, 0, 66, 0
2, 12288, Note_on_c, 0, 67, 68
2, 12288, Note_on_c, 0, 71, 68
2, 12288, Note_off_c, 0, 54, 0
2, 12288, Note_on_c, 0, 43, 57
2, 12416, Note_off_c, 0, 67, 0
2, 12416, Note_off_c, 0, 71, 0
2, 12416, Note_on_c, 0, 67, 71
2, 12416, Note_on_c, 0, 71, 71
2, 12544, Note_off_c, 0, 67, 0
2, 12544, Note_off_c, 0, 71, 0
2, 12544, Note_on_c, 0, 67, 71
2, 12544, Note_on_c, 0, 71, 71
2, 12672, Note_off_c, 0, 43, 0
2, 12672, Note_on_c, 0, 50, 63
2, 12800, Note_off_c, 0, 67, 0
2, 12800, Note_off_c, 0, 71, 0
2, 12800, Note_on_c, 0, 67, 71
2, 12800, Note_on_c, 0, 71, 71
2, 12800, Note_off_c, 0, 50, 0
2, 12800, Note_on_c, 0, 55, 62
2, 12928, Note_off_c, 0, 67, 0
2, 12928, Note_off_c, 0, 71, 0
2, 12928, Note_on_c, 0, 67, 71
2, 12928, Note_on_c, 0, 71, 71
2, 13056, Note_off_c, 0, 67, 0
2, 13056, Note_off_c, 0, 71, 0
2, 13056, Note_on_c, 0, 67, 71
2, 13056, Note_on_c, 0, 71, 71
2, 13184, Note_off_c, 0, 55, 0
2, 13184, Note_on_c, 0, 50, 58
2, 13312, Note_off_c, 0, 67, 0
2, 13312, Note_off_c, 0, 71, 0
2, 13312, Note_on_c, 0, 71, 71
2, 13312, Note_on_c, 0, 67, 61
2, 13312, Note_off_c, 0, 50, 0
2, 13312, Note_on_c, 0, 43, 60
2, 13440, Note_off_c, 0, 71, 0
2, 13440, Note_on_c, 0, 74, 73
2, 13440, Note_off_c, 0, 43, 0
2, 13440, Note_on_c, 0, 50, 62
2, 13568, Note_off_c, 0, 67, 0
2, 13568, Note_off_c, 0, 74, 0
2, 13568, Note_on_c, 0, 67, 62
2, 13568, Note_on_c, 0, 64, 58
2, 13568, Note_off_c, 0, 50, 0
2, 13568, Note_on_c, 0, 48, 61
2, 13568, Note_on_c, 0, 52, 61
2, 13760, Note_off_c, 0, 67, 0
2, 13760, Note_on_c, 0, 69, 74
2, 13824, Note_off_c, 0, 64, 0
2, 13824, Note_off_c, 0, 69, 0
2, 13824, Note_on_c, 0, 71, 73
2, 13824, Note_on_c, 0, 62, 58
2, 13824, Note_off_c, 0, 48, 0
2, 13824, Note_off_c, 0, 52, 0
2, 13824, Note_on_c, 0, 43, 56
2, 13952, Note_off_c, 0, 43, 0
2, 13952, Note_on_c, 0, 50, 66
2, 14080, Note_off_c, 0, 50, 0
2, 14080, Note_on_c, 0, 55, 65
2, 14336, Note_off_c, 0, 71, 0
2, 14336, Note_off_c, 0, 62, 0
2, 14336, Note_on_c, 0, 72, 73
2, 14336, Note_on_c, 0, 64, 64
2, 14336, Note_off_c, 0, 55, 0
2, 14336, Note_on_c, 0, 48, 57
2, 14464, Note_off_c, 0, 72, 0
2, 14464, Note_off_c, 0, 64, 0
2, 14464, Note_on_c, 0, 72, 69
2, 14464, Note_on_c, 0, 64, 62
2, 14464, Note_off_c, 0, 48, 0
2, 14464, Note_on_c, 0, 52, 64
2, 14592, Note_off_c, 0, 72, 0
2, 14592, Note_off_c, 0, 64, 0
2, 14592, Note_on_c, 0, 72, 73
2, 14592, Note_on_c, 0, 64, 62
2, 14592, Note_off_c, 0, 52, 0
2, 14592, Note_on_c, 0, 55, 62
2, 14720, Note_off_c, 0, 55, 0
2, 14720, Note_on_c, 0, 52, 60
2, 14784, Note_off_c, 0, 72, 0
2, 14784, Note_on_c, 0, 72, 72
2, 14848, Note_off_c, 0, 64, 0
2, 14848, Note_off_c, 0, 72, 0
2, 14848, Note_on_c, 0, 72, 72
2, 14848, Note_on_c, 0, 62, 59
2, 14848, Note_off_c, 0, 52, 0
2, 14848, Note_on_c, 0, 47, 60
2, 14976, Note_off_c, 0, 72, 0
2, 14976, Note_on_c, 0, 71, 69
2, 14976, Note_off_c, 0, 47, 0
2, 14976, Note_on_c, 0, 50, 62
2, 15104, Note_off_c, 0, 62, 0
2, 15104, Note_off_c, 0, 71, 0
2, 15104, Note_on_c, 0, 71, 71
2, 15104, Note_on_c, 0, 62, 61
2, 15104, Note_off_c, 0, 50, 0
2, 15104, Note_on_c, 0, 55, 64
2, 15232, Note_off_c, 0, 71, 0
2, 15232, Note_on_c, 0, 71, 73
2, 15232, Note_off_c, 0, 55, 0
2, 15232, Note_on_c, 0, 50, 58
2, 15296, Note_off_c, 0, 71, 0
2, 15296, Note_on_c, 0, 71, 72
2, 15360, Note_off_c, 0, 62, 0
2, 15360, Note_off_c, 0, 71, 0
2, 15360, Note_on_c, 0, 74, 74
2, 15360, Note_on_c, 0, 66, 66
2, 15360, Note_off_c, 0, 50, 0
2, 15360, Note_on_c, 0, 45, 58
2, 15488, Note_off_c, 0, 74, 0
2, 15488, Note_on_c, 0, 74, 72
2, 15488, Note_off_c, 0, 45, 0
2, 15488, Note_on_c, 0, 50, 61
2, 15616, Note_off_c, 0, 66, 0
2, 15616, Note_off_c, 0, 74, 0
2, 15616, Note_on_c, 0, 72, 67
2, 15616, Note_on_c, 0, 62, 56
2, 15616, Note_off_c, 0, 50, 0
2, 15616, Note_on_c, 0, 54, 61
2, 15744, Note_off_c, 0, 72, 0
2, 15744, Note_on_c, 0, 69, 69
2, 15744, Note_off_c, 0, 54, 0
2, 15744, Note_on_c, 0, 50, 62
2, 15872, Note_off_c, 0, 62, 0
2, 15872, Note_off_c, 0, 69, 0
2, 15872, Note_on_c, 0, 67, 69
2, 15872, Note_on_c, 0, 59, 60
2, 15872, Note_off_c, 0, 50, 0
2, 15872, Note_on_c, 0, 43, 58
2, 16000, Note_off_c, 0, 43, 0
2, 16000, Note_on_c, 0, 50, 61
2, 16128, Note_off_c, 0, 50, 0
2, 16128, Note_on_c, 0, 55, 63
2, 16384, Note_off_c, 0, 67, 0
2, 16384, Note_off_c, 0, 59, 0
2, 16384, Note_on_c, 0, 62, 65
2, 16384, Note_on_c, 0, 59, 59
2, 16384, Note_off_c, 0, 55, 0
2, 16384, Note_on_c, 0, 43, 55
2, 16512, Note_off_c, 0, 62, 0
2, 16512, Note_on_c, 0, 71, 78
2, 16512, Note_off_c, 0, 43, 0
2, 16512, Note_on_c, 0, 50, 63
2, 16640, Note_off_c, 0, 71, 0
2, 16640, Note_on_c, 0, 69, 70
2, 16640, Note_off_c, 0, 50, 0
2, 16640, Note_on_c, 0, 55, 64
2, 16768, Note_off_c, 0, 69, 0
2, 16768, Note_on_c, 0, 67, 70
2, 16768, Note_off_c, 0, 55, 0
2, 16768, Note_on_c, 0, 50, 57
2, 16896, Note_off_c, 0, 59, 0
2, 16896, Note_off_c, 0, 67, 0
2, 16896, Note_on_c, 0, 62, 65
2, 16896, Note_on_c, 0, 59, 61
2, 16896, Note_off_c, 0, 50, 0
2, 16896, Note_on_c, 0, 43, 59
2, 17024, Note_off_c, 0, 43, 0
2, 17024, Note_on_c, 0, 50, 63
2, 17152, Note_off_c, 0, 50, 0
2, 17152, Note_on_c, 0, 55, 65
2, 17280, Note_off_c, 0, 62, 0
2, 17280, Note_on_c, 0, 62, 70
2, 17280, Note_off_c, 0, 55, 0
2, 17280, Note_on_c, 0, 50, 59
2, 17344, Note_off_c, 0, 62, 0
2, 17344, Note_on_c, 0, 62, 70
2, 17408, Note_off_c, 0, 59, 0
2, 17408, Note_off_c, 0, 62, 0
2, 17408, Note_on_c, 0, 62, 71
2, 17408, Note_on_c, 0, 59, 62
2, 17408, Note_off_c, 0, 50, 0
2, 17408, Note_on_c, 0, 43, 59
2, 17536, Note_off_c, 0, 62, 0
2, 17536, Note_on_c, 0, 71, 80
2, 17536, Note_off_c, 0, 43, 0
2, 17536, Note_on_c, 0, 50, 62
2, 17664, Note_off_c, 0, 71, 0
2, 17664, Note_on_c, 0, 69, 70
2, 17664, Note_off_c, 0, 50, 0
2, 17664, Note_on_c, 0, 55, 63
2, 17792, Note_off_c, 0, 69, 0
2, 17792, Note_on_c, 0, 67, 68
2, 17792, Note_off_c, 0, 55, 0
2, 17792, Note_on_c, 0, 50, 60
2, 17920, Note_off_c, 0, 59, 0
2, 17920, Note_off_c, 0, 67, 0
2, 17920, Note_on_c, 0, 64, 69
2, 17920, Note_on_c, 0, 60, 64
2, 17920, Note_off_c, 0, 50, 0
2, 17920, Note_on_c, 0, 48, 60
2, 18048, Note_off_c, 0, 48, 0
2, 18048, Note_on_c, 0, 52, 64
2, 18176, Note_off_c, 0, 52, 0
2, 18176, Note_on_c, 0, 55, 61
2, 18304, Note_off_c, 0, 55, 0
2, 18304, Note_on_c, 0, 52, 59
2, 18432, Note_off_c, 0, 64, 0
2, 18432, Note_off_c, 0, 60, 0
2, 18432, Note_on_c, 0, 64, 69
2, 18432, Note_on_c, 0, 60, 62
2, 18432, Note_off_c, 0, 52, 0
2, 18432, Note_on_c, 0, 45, 59
2, 18560, Note_off_c, 0, 64, 0
2, 18560, Note_on_c, 0, 72, 78
2, 18560, Note_off_c, 0, 45, 0
2, 18560, Note_on_c, 0, 52, 64
2, 18688, Note_off_c, 0, 72, 0
2, 18688, Note_on_c, 0, 71, 71
2, 18688, Note_off_c, 0, 52, 0
2, 18688, Note_on_c, 0, 57, 62
2, 18816, Note_off_c, 0, 71, 0
2, 18816, Note_on_c, 0, 69, 66
2, 18816, Note_off_c, 0, 57, 0
2, 18816, Note_on_c, 0, 52, 59
2, 18944, Note_off_c, 0, 60, 0
2, 18944, Note_off_c, 0, 69, 0
2, 18944, Note_on_c, 0, 66, 68
2, 18944, Note_on_c, 0, 62, 62
2, 18944, Note_off_c, 0, 52, 0
2, 18944, Note_on_c, 0, 50, 59
2, 19072, Note_off_c, 0, 50, 0
2, 19072, Note_on_c, 0, 54, 65
2, 19200, Note_off_c, 0, 54, 0
2, 19200, Note_on_c, 0, 57, 61
2, 19328, Note_off_c, 0, 57, 0
2, 19328, Note_on_c, 0, 54, 65
2, 19456, Note_off_c, 0, 66, 0
2, 19456, Note_off_c, 0, 62, 0
2, 19456, Note_on_c, 0, 74, 78
2, 19456, Note_on_c, 0, 66, 64
2, 19456, Note_off_c, 0, 54, 0
2, 19456, Note_on_c, 0, 50, 61
2, 19584, Note_off_c, 0, 74, 0
2, 19584, Note_on_c, 0, 74, 71
2, 19584, Note_off_c, 0, 50, 0
2, 19584, Note_on_c, 0, 54, 62
2, 19712, Note_off_c, 0, 66, 0
2, 19712, Note_off_c, 0, 74, 0
2, 19712, Note_on_c, 0, 72, 72
2, 19712, Note_on_c, 0, 66, 60
2, 19712, Note_off_c, 0, 54, 0
2, 19712, Note_on_c, 0, 57, 61
2, 19840, Note_off_c, 0, 72, 0
2, 19840, Note_on_c, 0, 69, 67
2, 19840, Note_off_c, 0, 57, 0
2, 19840, Note_on_c, 0, 50, 59
2, 19968, Note_off_c, 0, 66, 0
2, 19968, Note_off_c, 0, 69, 0
2, 19968, Note_on_c, 0, 71, 74
2, 19968, Note_on_c, 0, 67, 62
2, 19968, Note_off_c, 0, 50, 0
2, 19968, Note_on_c, 0, 43, 62
2, 20096, Note_off_c, 0, 43, 0
2, 20096, Note_on_c, 0, 50, 63
2, 20224, Note_off_c, 0, 50, 0
2, 20224, Note_on_c, 0, 55, 64
2, 20352, Note_off_c, 0, 55, 0
2, 20352, Note_on_c, 0, 50, 61
2, 20480, Note_off_c, 0, 71, 0
2, 20480, Note_off_c, 0, 67, 0
2, 20480, Note_on_c, 0, 62, 61
2, 20480, Note_on_c, 0, 59, 59
2, 20480, Note_off_c, 0, 50, 0
2, 20480, Note_on_c, 0, 43, 57
2, 20608, Note_off_c, 0, 62, 0
2, 20608, Note_on_c, 0, 71, 80
2, 20608, Note_off_c, 0, 43, 0
2, 20608, Note_on_c, 0, 50, 63
2, 20736, Note_off_c, 0, 71, 0
2, 20736, Note_on_c, 0, 69, 69
2, 20736, Note_off_c, 0, 50, 0
2, 20736, Note_on_c, 0, 55, 63
2, 20864, Note_off_c, 0, 69, 0
2, 20864, Note_on_c, 0, 67, 69
2, 20864, Note_off_c, 0, 55, 0
2, 20864, Note_on_c, 0, 50, 59
2, 20992, Note_off_c, 0, 59, 0
2, 20992, Note_off_c, 0, 67, 0
2, 20992, Note_on_c, 0, 62, 66
2, 20992, Note_on_c, 0, 59, 61
2, 20992, Note_off_c, 0, 50, 0
2, 20992, Note_on_c, 0, 43, 61
2, 21120, Note_off_c, 0, 43, 0
2, 21120, Note_on_c, 0, 50, 61
2, 21248, Note_off_c, 0, 50, 0
2, 21248, Note_on_c, 0, 55, 63
2, 21376, Note_off_c, 0, 62, 0
2, 21376, Note_on_c, 0, 62, 72
2, 21376, Note_off_c, 0, 55, 0
2, 21376, Note_on_c, 0, 50, 59
2, 21440, Note_off_c, 0, 62, 0
2, 21440, Note_on_c, 0, 62, 72
2, 21504, Note_off_c, 0, 59, 0
2, 21504, Note_off_c, 0, 62, 0
2, 21504, Note_on_c, 0, 62, 73
2, 21504, Note_on_c, 0, 59, 58
2, 21504, Note_off_c, 0, 50, 0
2, 21504, Note_on_c, 0, 43, 59
2, 21632, Note_off_c, 0, 62, 0
2, 21632, Note_on_c, 0, 71, 77
2, 21632, Note_off_c, 0, 43, 0
2, 21632, Note_on_c, 0, 50, 66
2, 21760, Note_off_c, 0, 71, 0
2, 21760, Note_on_c, 0, 69, 69
2, 21760, Note_off_c, 0, 50, 0
2, 21760, Note_on_c, 0, 55, 64
2, 21888, Note_off_c, 0, 69, 0
2, 21888, Note_on_c, 0, 67, 69
2, 21888, Note_off_c, 0, 55, 0
2, 21888, Note_on_c, 0, 50, 57
2, 22016, Note_off_c, 0, 59, 0
2, 22016, Note_off_c, 0, 67, 0
2, 22016, Note_on_c, 0, 64, 68
2, 22016, Note_on_c, 0, 60, 62
2, 22016, Note_off_c, 0, 50, 0
2, 22016, Note_on_c, 0, 48, 62
2, 22144, Note_off_c, 0, 48, 0
2, 22144, Note_on_c, 0, 52, 61
2, 22272, Note_off_c, 0, 52, 0
2, 22272, Note_on_c, 0, 55, 63
2, 22400, Note_off_c, 0, 55, 0
2, 22400, Note_on_c, 0, 52, 58
2, 22528, Note_off_c, 0, 64, 0
2, 22528, Note_off_c, 0, 60, 0
2, 22528, Note_on_c, 0, 64, 73
2, 22528, Note_on_c, 0, 60, 63
2, 22528, Note_off_c, 0, 52, 0
2, 22528, Note_on_c, 0, 45, 59
2, 22656, Note_off_c, 0, 64, 0
2, 22656, Note_on_c, 0, 72, 77
2, 22656, Note_off_c, 0, 45, 0
2, 22656, Note_on_c, 0, 52, 62
2, 22784, Note_off_c, 0, 72, 0
2, 22784, Note_on_c, 0, 71, 73
2, 22784, Note_off_c, 0, 52, 0
2, 22784, Note_on_c, 0, 57, 61
2, 22912, Note_off_c, 0, 71, 0
2, 22912, Note_on_c, 0, 69, 68
2, 22912, Note_off_c, 0, 57, 0
2, 22912, Note_on_c, 0, 52, 56
2, 23040, Note_off_c, 0, 60, 0
2, 23040, Note_off_c, 0, 69, 0
2, 23040, Note_on_c, 0, 74, 77
2, 23040, Note_on_c, 0, 67, 65
2, 23040, Note_off_c, 0, 52, 0
2, 23040, Note_on_c, 0, 47, 58
2, 23168, Note_off_c, 0, 74, 0
2, 23168, Note_on_c, 0, 74, 74
2, 23168, Note_off_c, 0, 47, 0
2, 23168, Note_on_c, 0, 50, 61
2, 23296, Note_off_c, 0, 67, 0
2, 23296, Note_off_c, 0, 74, 0
2, 23296, Note_on_c, 0, 74, 74
2, 23296, Note_on_c, 0, 67, 62
2, 23296, Note_off_c, 0, 50, 0
2, 23296, Note_on_c, 0, 55, 63
2, 23424, Note_off_c, 0, 74, 0
2, 23424, Note_on_c, 0, 74, 71
2, 23424, Note_off_c, 0, 55, 0
2, 23424, Note_on_c, 0, 50, 61
2, 23552, Note_off_c, 0, 67, 0
2, 23552, Note_off_c, 0, 74, 0
2, 23552, Note_on_c, 0, 76, 74
2, 23552, Note_on_c, 0, 66, 57
2, 23552, Note_off_c, 0, 50, 0
2, 23552, Note_on_c, 0, 45, 59
2, 23680, Note_off_c, 0, 76, 0
2, 23680, Note_on_c, 0, 74, 70
2, 23680, Note_off_c, 0, 45, 0
2, 23680, Note_on_c, 0, 50, 62
2, 23808, Note_off_c, 0, 66, 0
2, 23808, Note_off_c, 0, 74, 0
2, 23808, Note_on_c, 0, 72, 69
2, 23808, Note_on_c, 0, 66, 60
2, 23808, Note_off_c, 0, 50, 0
2, 23808, Note_on_c, 0, 54, 64
2, 23936, Note_off_c, 0, 72, 0
2, 23936, Note_on_c, 0, 69, 69
2, 23936, Note_off_c, 0, 54, 0
2, 23936, Note_on_c, 0, 50, 58
2, 24064, Note_off_c, 0, 66, 0
2, 24064, Note_off_c, 0, 69, 0
2, 24064, Note_on_c, 0, 67, 69
2, 24064, Note_on_c, 0, 62, 56
2, 24064, Note_off_c, 0, 50, 0
2, 24064, Note_on_c, 0, 43, 59
2, 24192, Note_off_c, 0, 43, 0
2, 24192, Note_on_c, 0, 50, 64
2, 24320, Note_off_c, 0, 67, 0
2, 24320, Note_off_c, 0, 62, 0
2, 24320, Note_on_c, 0, 74, 76
2, 24320, Note_on_c, 0, 67, 64
2, 24320, Note_off_c, 0, 50, 0
2, 24320, Note_on_c, 0, 55, 65
2, 24576, Note_off_c, 0, 74, 0
2, 24576, Note_off_c, 0, 67, 0
2, 24576, Note_on_c, 0, 67, 69
2, 24576, Note_on_c, 0, 71, 69
2, 24576, Note_off_c, 0, 55, 0
2, 24576, Note_on_c, 0, 43, 60
2, 24704, Note_off_c, 0, 67, 0
2, 24704, Note_off_c, 0, 71, 0
2, 24704, Note_on_c, 0, 67, 72
2, 24704, Note_on_c, 0, 71, 72
2, 24832, Note_off_c, 0, 67, 0
2, 24832, Note_off_c, 0, 71, 0
2, 24832, Note_on_c, 0, 67, 70
2, 24832, Note_on_c, 0, 71, 70
2, 24960, Note_off_c, 0, 43, 0
2, 24960, Note_on_c, 0, 50, 65
2, 25088, Note_off_c, 0, 67, 0
2, 25088, Note_off_c, 0, 71, 0
2, 25088, Note_on_c, 0, 67, 70
2, 25088, Note_on_c, 0, 71, 70
2, 25088, Note_off_c, 0, 50, 0
2, 25088, Note_on_c, 0, 55, 63
2, 25216, Note_off_c, 0, 67, 0
2, 25216, Note_off_c, 0, 71, 0
2, 25216, Note_on_c, 0, 67, 71
2, 25216, Note_on_c, 0, 71, 71
2, 25344, Note_off_c, 0, 67, 0
2, 25344, Note_off_c, 0, 71, 0
2, 25344, Note_on_c, 0, 67, 72
2, 25344, Note_on_c, 0, 71, 72
2, 25472, Note_off_c, 0, 55, 0
2, 25472, Note_on_c, 0, 50, 60
2, 25600, Note_off_c, 0, 67, 0
2, 25600, Note_off_c, 0, 71, 0
2, 25600, Note_on_c, 0, 71, 71
2, 25600, Note_on_c, 0, 67, 63
2, 25600, Note_off_c, 0, 50, 0
2, 25600, Note_on_c, 0, 43, 55
2, 25728, Note_off_c, 0, 71, 0
2, 25728, Note_on_c, 0, 74, 73
2, 25728, Note_off_c, 0, 43, 0
2, 25728, Note_on_c, 0, 50, 63
2, 25856, Note_off_c, 0, 67, 0
2, 25856, Note_off_c, 0, 74, 0
2, 25856, Note_on_c, 0, 67, 65
2, 25856, Note_on_c, 0, 64, 59
2, 25856, Note_off_c, 0, 50, 0
2, 25856, Note_on_c, 0, 48, 64
2, 25856, Note_on_c, 0, 52, 64
2, 26048, Note_off_c, 0, 67, 0
2, 26048, Note_on_c, 0, 69, 72
2, 26112, Note_off_c, 0, 64, 0
2, 26112, Note_off_c, 0, 69, 0
2, 26112, Note_on_c, 0, 71, 74
2, 26112, Note_on_c, 0, 62, 58
2, 26112, Note_off_c, 0, 48, 0
2, 26112, Note_off_c, 0, 52, 0
2, 26112, Note_on_c, 0, 43, 59
2, 26240, Note_off_c, 0, 43, 0
2, 26240, Note_on_c, 0, 50, 63
2, 26368, Note_off_c, 0, 50, 0
2, 26368, Note_on_c, 0, 55, 62
2, 26624, Note_off_c, 0, 71, 0
2, 26624, Note_off_c, 0, 62, 0
2, 26624, Note_on_c, 0, 72, 72
2, 26624, Note_on_c, 0, 64, 64
2, 26624, Note_off_c, 0, 55, 0
2, 26624, Note_on_c, 0, 48, 59
2, 26752, Note_off_c, 0, 72, 0
2, 26752, Note_off_c, 0, 64, 0
2, 26752, Note_on_c, 0, 72, 72
2, 26752, Note_on_c, 0, 64, 60
2, 26752, Note_off_c, 0, 48, 0
2, 26752, Note_on_c, 0, 52, 62
2, 26880, Note_off_c, 0, 72, 0
2, 26880, Note_off_c, 0, 64, 0
2, 26880, Note_on_c, 0, 72, 73
2, 26880, Note_on_c, 0, 64, 61
2, 26880, Note_off_c, 0, 52, 0
2, 26880, Note_on_c, 0, 55, 64
2, 27008, Note_off_c, 0, 55, 0
2, 27008, Note_on_c, 0, 52, 60
2, 27072, Note_off_c, 0, 72, 0
2, 27072, Note_on_c, 0, 72, 71
2, 27136, Note_off_c, 0, 64, 0
2, 27136, Note_off_c, 0, 72, 0
2, 27136, Note_on_c, 0, 72, 71
2, 27136, Note_on_c, 0, 62, 58
2, 27136, Note_off_c, 0, 52, 0
2, 27136, Note_on_c, 0, 47, 59
2, 27264, Note_off_c, 0, 72, 0
2, 27264, Note_on_c, 0, 71, 71
2, 27264, Note_off_c, 0, 47, 0
2, 27264, Note_on_c, 0, 50, 62
2, 27392, Note_off_c, 0, 62, 0
2, 27392, Note_off_c, 0, 71, 0
2, 27392, Note_on_c, 0, 71, 75
2, 27392, Note_on_c, 0, 62, 60
2, 27392, Note_off_c, 0, 50, 0
2, 27392, Note_on_c, 0, 55, 66
2, 27520, Note_off_c, 0, 71, 0
2, 27520, Note_on_c, 0, 71, 72
2, 27520, Note_off_c, 0, 55, 0
2, 27520, Note_on_c, 0, 50, 58
2, 27584, Note_off_c, 0, 71, 0
2, 27584, Note_on_c, 0, 71, 71
2, 27648, Note_off_c, 0, 62, 0
2, 27648, Note_off_c, 0, 71, 0
2, 27648, Note_on_c, 0, 71, 71
2, 27648, Note_on_c, 0, 61, 58
2, 27648, Note_off_c, 0, 50, 0
2, 27648, Note_on_c, 0, 45, 57
2, 27776, Note_off_c, 0, 71, 0
2, 27776, Note_on_c, 0, 69, 70
2, 27776, Note_off_c, 0, 45, 0
2, 27776, Note_on_c, 0, 52, 65
2, 27904, Note_off_c, 0, 61, 0
2, 27904, Note_off_c, 0, 69, 0
2, 27904, Note_on_c, 0, 69, 69
2, 27904, Note_on_c, 0, 61, 61
2, 27904, Note_off_c, 0, 52, 0
2, 27904, Note_on_c, 0, 57, 60
2, 28032, Note_off_c, 0, 69, 0
2, 28032, Note_on_c, 0, 71, 74
2, 28032, Note_off_c, 0, 57, 0
2, 28032, Note_on_c, 0, 52, 59
2, 28160, Note_off_c, 0, 61, 0
2, 28160, Note_off_c, 0, 71, 0
2, 28160, Note_on_c, 0, 69, 69
2, 28160, Note_on_c, 0, 62, 62
2, 28160, Note_off_c, 0, 52, 0
2, 28160, Note_on_c, 0, 50, 60
2, 28288, Note_off_c, 0, 50, 0
2, 28288, Note_on_c, 0, 54, 62
2, 28416, Note_off_c, 0, 69, 0
2, 28416, Note_off_c, 0, 62, 0
2, 28416, Note_on_c, 0, 74, 76
2, 28416, Note_on_c, 0, 66, 65
2, 28416, Note_off_c, 0, 54, 0
2, 28416, Note_on_c, 0, 57, 64
2, 28544, Note_off_c, 0, 57, 0
2, 28544, Note_on_c, 0, 54, 57
2, 28672, Note_off_c, 0, 74, 0
2, 28672, Note_off_c, 0, 66, 0
2, 28672, Note_on_c, 0, 67, 70
2, 28672, Note_on_c, 0, 71, 70
2, 28672, Note_off_c, 0, 54, 0
2, 28672, Note_on_c, 0, 43, 59
2, 28800, Note_off_c, 0, 67, 0
2, 28800, Note_off_c, 0, 71, 0
2, 28800, Note_on_c, 0, 67, 69
2, 28800, Note_on_c, 0, 71, 69
2, 28928, Note_off_c, 0, 67, 0
2, 28928, Note_off_c, 0, 71, 0
2, 28928, Note_on_c, 0, 67, 71
2, 28928, Note_on_c, 0, 71, 71
2, 29056, Note_off_c, 0, 43, 0
2, 29056, Note_on_c, 0, 50, 64
2, 29184, Note_off_c, 0, 67, 0
2, 29184, Note_off_c, 0, 71, 0
2, 29184, Note_on_c, 0, 67, 73
2, 29184, Note_on_c, 0, 71, 73
2, 29184, Note_off_c, 0, 50, 0
2, 29184, Note_on_c, 0, 55, 63
2, 29312, Note_off_c, 0, 67, 0
2, 29312, Note_off_c, 0, 71, 0
2, 29312, Note_on_c, 0, 67, 71
2, 29312, Note_on_c, 0, 71, 71
2, 29440, Note_off_c, 0, 67, 0
2, 29440, Note_off_c, 0, 71, 0
2, 29440, Note_on_c, 0, 67, 72
2, 29440, Note_on_c, 0, 71, 72
2, 29568, Note_off_c, 0, 55, 0
2, 29568, Note_on_c, 0, 50, 58
2, 29696, Note_off_c, 0, 67, 0
2, 29696, Note_off_c, 0, 71, 0
2, 29696, Note_on_c, 0, 71, 70
2, 29696, Note_on_c, 0, 67, 65
2, 29696, Note_off_c, 0, 50, 0
2, 29696, Note_on_c, 0, 43, 56
2, 29824, Note_off_c, 0, 71, 0
2, 29824, Note_on_c, 0, 74, 74
2, 29824, Note_off_c, 0, 43, 0
2, 29824, Note_on_c, 0, 50, 64
2, 29952, Note_off_c, 0, 67, 0
2, 29952, Note_off_c, 0, 74, 0
2, 29952, Note_on_c, 0, 67, 64
2, 29952, Note_on_c, 0, 64, 59
2, 29952, Note_off_c, 0, 50, 0
2, 29952, Note_on_c, 0, 48, 62
2, 29952, Note_on_c, 0, 52, 62
2, 30144, Note_off_c, 0, 67, 0
2, 30144, Note_on_c, 0, 69, 74
2, 30208, Note_off_c, 0, 64, 0
2, 30208, Note_off_c, 0, 69, 0
2, 30208, Note_on_c, 0, 71, 71
2, 30208, Note_on_c, 0, 62, 59
2, 30208, Note_off_c, 0, 48, 0
2, 30208, Note_off_c, 0, 52, 0
2, 30208, Note_on_c, 0, 43, 58
2, 30336, Note_off_c, 0, 43, 0
2, 30336, Note_on_c, 0, 50, 63
2, 30464, Note_off_c, 0, 50, 0
2, 30464, Note_on_c, 0, 55, 61
2, 30720, Note_off_c, 0, 71, 0
2, 30720, Note_off_c, 0, 62, 0
2, 30720, Note_on_c, 0, 72, 74
2, 30720, Note_on_c, 0, 64, 63
2, 30720, Note_off_c, 0, 55, 0
2, 30720, Note_on_c, 0, 48, 57
2, 30848, Note_off_c, 0, 72, 0
2, 30848, Note_off_c, 0, 64, 0
2, 30848, Note_on_c, 0, 72, 69
2, 30848, Note_on_c, 0, 64, 62
2, 30848, Note_off_c, 0, 48, 0
2, 30848, Note_on_c, 0, 52, 64
2, 30976, Note_off_c, 0, 72, 0
2, 30976, Note_off_c, 0, 64, 0
2, 30976, Note_on_c, 0, 72, 71
2, 30976, Note_on_c, 0, 64, 59
2, 30976, Note_off_c, 0, 52, 0
2, 30976, Note_on_c, 0, 55, 59
2, 31104, Note_off_c, 0, 55, 0
2, 31104, Note_on_c, 0, 52, 62
2, 31168, Note_off_c, 0, 72, 0
2, 31168, Note_on_c, 0, 72, 70
2, 31232, Note_off_c, 0, 64, 0
2, 31232, Note_off_c, 0, 72, 0
2, 31232, Note_on_c, 0, 72, 72
2, 31232, Note_on_c, 0, 62, 59
2, 31232, Note_off_c, 0, 52, 0
2, 31232, Note_on_c, 0, 47, 58
2, 31360, Note_off_c, 0, 72, 0
2, 31360, Note_on_c, 0, 71, 69
2, 31360, Note_off_c, 0, 47, 0
2, 31360, Note_on_c, 0, 50, 62
2, 31488, Note_off_c, 0, 62, 0
2, 31488, Note_off_c, 0, 71, 0
2, 31488, Note_on_c, 0, 71, 69
2, 31488, Note_on_c, 0, 62, 60
2, 31488, Note_off_c, 0, 50, 0
2, 31488, Note_on_c, 0, 55, 60
2, 31616, Note_off_c, 0, 71, 0
2, 31616, Note_on_c, 0, 71, 71
2, 31616, Note_off_c, 0, 55, 0
2, 31616, Note_on_c, 0, 50, 59
2, 31680, Note_off_c, 0, 71, 0
2, 31680, Note_on_c, 0, 71, 70
2, 31744, Note_off_c, 0, 62, 0
2, 31744, Note_off_c, 0, 71, 0
2, 31744, Note_on_c, 0, 74, 72
2, 31744, Note_on_c, 0, 66, 65
2, 31744, Note_off_c, 0, 50, 0
2, 31744, Note_on_c, 0, 45, 59
2, 31872, Note_off_c, 0, 74, 0
2, 31872, Note_on_c, 0, 74, 70
2, 31872, Note_off_c, 0, 45, 0
2, 31872, Note_on_c, 0, 50, 65
2, 32000, Note_off_c, 0, 66, 0
2, 32000, Note_off_c, 0, 74, 0
2, 32000, Note_on_c, 0, 72, 69
2, 32000, Note_on_c, 0, 62, 59
2, 32000, Note_off_c, 0, 50, 0
2, 32000, Note_on_c, 0, 54, 63
2, 32128, Note_off_c, 0, 72, 0
2, 32128, Note_on_c, 0, 69, 67
2, 32128, Note_off_c, 0, 54, 0
2, 32128, Note_on_c, 0, 50, 60
2, 32256, Note_off_c, 0, 62, 0
2, 32256, Note_off_c, 0, 69, 0
2, 32256, Note_on_c, 0, 67, 69
2, 32256, Note_on_c, 0, 59, 63
2, 32256, Note_off_c, 0, 50, 0
2, 32256, Note_on_c, 0, 43, 60
2, 32384, Note_off_c, 0, 43, 0
2, 32384, Note_on_c, 0, 50, 61
2, 32512, Note_off_c, 0, 50, 0
2, 32512, Note_on_c, 0, 55, 63
2, 32768, Note_off_c, 0, 67, 0
2, 32768, Note_off_c, 0, 59, 0
2, 32768, Note_off_c, 0, 55, 0
2, 32769, End_track
0, 0, End_of_file
