0, 0, Header, 1, 2, 256
1, 0, Start_track
1, 0, Time_signature, 1, 2, 24, 8
1, 0, Key_signature, 1, "major"
1, 0, Tempo, 600000
1, 0, Title_t, "The Coventry Carol"
1, 0, Text_t, "Traditional"
1, 0, Copyright_t, "Copyright © Glenn Jarrett"
1, 256, Tempo, 571427
1, 256, Time_signature, 4, 2, 24, 8
1, 20736, Tempo, 571427
1, 20737, End_track
2, 0, Start_track
2, 0, Program_c, 0, 0
2, 0, Control_c, 0, 121, 0
2, 0, Control_c, 0, 64, 0
2, 0, Control_c, 0, 91, 48
2, 0, Control_c, 0, 10, 51
2, 0, Control_c, 0, 7, 100
2, 0, Note_on_c, 0, 67, 61
2, 0, Note_on_c, 0, 59, 52
2, 0, Note_on_c, 0, 62, 52
2, 0, Control_c, 0, 121, 0
2, 0, Control_c, 0, 64, 0
2, 0, Control_c, 0, 91, 48
2, 0, Control_c, 0, 10, 51
2, 0, Control_c, 0, 7, 100
2, 0, Title_t, "Piano"
2, 0, Note_on_c, 0, 55, 56
2, 256, Note_off_c, 0, 67, 0
2, 256, Note_off_c, 0, 59, 0
2, 256, Note_off_c, 0, 62, 0
2, 256, Note_on_c, 0, 67, 72
2, 256, Note_on_c, 0, 59, 58
2, 256, Note_on_c, 0, 62, 58
2, 256, Note_off_c, 0, 55, 0
2, 256, Note_on_c, 0, 55, 61
2, 768, Note_off_c, 0, 67, 0
2, 768, Note_off_c, 0, 59, 0
2, 768, Note_off_c, 0, 62, 0
2, 768, Note_on_c, 0, 62, 60
2, 768, Note_on_c, 0, 57, 59
2, 768, Note_on_c, 0, 60, 59
2, 768, Note_off_c, 0, 55, 0
2, 768, Note_on_c, 0, 55, 66
2, 1024, Note_off_c, 0, 62, 0
2, 1024, Note_off_c, 0, 57, 0
2, 1024, Note_off_c, 0, 60, 0
2, 1024, Note_on_c, 0, 67, 75
2, 1024, Note_on_c, 0, 59, 62
2, 1024, Note_on_c, 0, 62, 62
2, 1024, Note_off_c, 0, 55, 0
2, 1024, Note_on_c, 0, 55, 59
2, 1280, Note_off_c, 0, 67, 0
2, 1280, Note_off_c, 0, 59, 0
2, 1280, Note_off_c, 0, 62, 0
2, 1280, Note_on_c, 0, 69, 76
2, 1280, Note_on_c, 0, 60, 58
2, 1280, Note_on_c, 0, 64, 58
2, 1280, Note_off_c, 0, 55, 0
2, 1280, Note_on_c, 0, 55, 62
2, 1792, Note_off_c, 0, 69, 0
2, 1792, Note_off_c, 0, 60, 0
2, 1792, Note_off_c, 0, 64, 0
2, 1792, Note_on_c, 0, 62, 60
2, 1792, Note_on_c, 0, 57, 59
2, 1792, Note_off_c, 0, 55, 0
2, 1792, Note_on_c, 0, 50, 58
2, 1792, Note_on_c, 0, 54, 58
2, 2304, Note_off_c, 0, 62, 0
2, 2304, Note_off_c, 0, 57, 0
2, 2304, Note_on_c, 0, 71, 82
2, 2304, Note_on_c, 0, 62, 74
2, 2304, Note_on_c, 0, 67, 74
2, 2304, Note_off_c, 0, 50, 0
2, 2304, Note_off_c, 0, 54, 0
2, 2304, Note_on_c, 0, 55, 65
2, 2560, Note_off_c, 0, 71, 0
2, 2560, Note_off_c, 0, 62, 0
2, 2560, Note_off_c, 0, 67, 0
2, 2560, Note_on_c, 0, 69, 65
2, 2560, Note_on_c, 0, 62, 64
2, 2560, Note_on_c, 0, 66, 64
2, 2560, Note_off_c, 0, 55, 0
2, 2560, Note_on_c, 0, 50, 56
2, 2816, Note_off_c, 0, 69, 0
2, 2816, Note_off_c, 0, 62, 0
2, 2816, Note_off_c, 0, 66, 0
2, 2816, Note_on_c, 0, 71, 76
2, 2816, Note_on_c, 0, 62, 64
2, 2816, Note_on_c, 0, 67, 64
2, 2816, Note_off_c, 0, 50, 0
2, 2816, Note_on_c, 0, 55, 66
2, 3072, Note_off_c, 0, 71, 0
2, 3072, Note_off_c, 0, 62, 0
2, 3072, Note_off_c, 0, 67, 0
2, 3072, Note_on_c, 0, 72, 76
2, 3072, Note_on_c, 0, 64, 67
2, 3072, Note_on_c, 0, 69, 67
2, 3072, Note_off_c, 0, 55, 0
2, 3072, Note_on_c, 0, 48, 55
2, 3328, Note_off_c, 0, 72, 0
2, 3328, Note_off_c, 0, 64, 0
2, 3328, Note_off_c, 0, 69, 0
2, 3328, Note_on_c, 0, 71, 65
2, 3328, Note_on_c, 0, 62, 60
2, 3328, Note_on_c, 0, 67, 60
2, 3328, Note_off_c, 0, 48, 0
2, 3328, Note_on_c, 0, 50, 61
2, 3840, Note_off_c, 0, 71, 0
2, 3840, Note_off_c, 0, 62, 0
2, 3840, Note_off_c, 0, 67, 0
2, 3840, Note_on_c, 0, 69, 69
2, 3840, Note_on_c, 0, 62, 57
2, 3840, Note_on_c, 0, 66, 57
2, 3840, Note_off_c, 0, 50, 0
2, 3840, Note_on_c, 0, 50, 61
2, 4096, Note_off_c, 0, 69, 0
2, 4096, Note_off_c, 0, 62, 0
2, 4096, Note_off_c, 0, 66, 0
2, 4096, Note_on_c, 0, 67, 66
2, 4096, Note_on_c, 0, 59, 56
2, 4096, Note_on_c, 0, 64, 56
2, 4096, Note_off_c, 0, 50, 0
2, 4096, Note_on_c, 0, 52, 64
2, 4352, Note_off_c, 0, 67, 0
2, 4352, Note_off_c, 0, 59, 0
2, 4352, Note_off_c, 0, 64, 0
2, 4352, Note_on_c, 0, 67, 68
2, 4352, Note_on_c, 0, 59, 59
2, 4352, Note_off_c, 0, 52, 0
2, 4352, Note_on_c, 0, 52, 66
2, 4352, Note_on_c, 0, 55, 66
2, 4608, Note_off_c, 0, 59, 0
2, 4608, Note_on_c, 0, 61, 63
2, 4864, Note_off_c, 0, 67, 0
2, 4864, Note_off_c, 0, 61, 0
2, 4864, Note_on_c, 0, 66, 71
2, 4864, Note_on_c, 0, 57, 66
2, 4864, Note_on_c, 0, 62, 66
2, 4864, Note_off_c, 0, 52, 0
2, 4864, Note_off_c, 0, 55, 0
2, 4864, Note_on_c, 0, 54, 61
2, 5120, Note_off_c, 0, 66, 0
2, 5120, Note_off_c, 0, 57, 0
2, 5120, Note_off_c, 0, 62, 0
2, 5120, Note_on_c, 0, 64, 66
2, 5120, Note_on_c, 0, 57, 61
2, 5120, Note_on_c, 0, 61, 61
2, 5120, Note_off_c, 0, 54, 0
2, 5120, Note_on_c, 0, 55, 64
2, 5376, Note_off_c, 0, 64, 0
2, 5376, Note_off_c, 0, 57, 0
2, 5376, Note_off_c, 0, 61, 0
2, 5376, Note_on_c, 0, 66, 76
2, 5376, Note_on_c, 0, 57, 63
2, 5376, Note_on_c, 0, 62, 63
2, 5376, Note_off_c, 0, 55, 0
2, 5376, Note_on_c, 0, 54, 62
2, 5632, Note_off_c, 0, 66, 0
2, 5632, Note_off_c, 0, 57, 0
2, 5632, Note_off_c, 0, 62, 0
2, 5632, Note_on_c, 0, 67, 74
2, 5632, Note_on_c, 0, 57, 66
2, 5632, Note_on_c, 0, 64, 66
2, 5632, Note_off_c, 0, 54, 0
2, 5632, Note_on_c, 0, 52, 61
2, 5888, Note_off_c, 0, 67, 0
2, 5888, Note_off_c, 0, 57, 0
2, 5888, Note_off_c, 0, 64, 0
2, 5888, Note_on_c, 0, 69, 72
2, 5888, Note_on_c, 0, 62, 67
2, 5888, Note_on_c, 0, 66, 67
2, 5888, Note_off_c, 0, 52, 0
2, 5888, Note_on_c, 0, 50, 59
2, 6144, Note_off_c, 0, 69, 0
2, 6144, Note_off_c, 0, 62, 0
2, 6144, Note_off_c, 0, 66, 0
2, 6144, Note_on_c, 0, 71, 76
2, 6144, Note_on_c, 0, 62, 62
2, 6144, Note_on_c, 0, 67, 62
2, 6144, Note_off_c, 0, 50, 0
2, 6144, Note_on_c, 0, 43, 57
2, 6400, Note_off_c, 0, 71, 0
2, 6400, Note_off_c, 0, 62, 0
2, 6400, Note_off_c, 0, 67, 0
2, 6400, Note_on_c, 0, 66, 65
2, 6400, Note_on_c, 0, 57, 55
2, 6400, Note_on_c, 0, 62, 55
2, 6400, Note_off_c, 0, 43, 0
2, 6400, Note_on_c, 0, 45, 64
2, 6912, Note_off_c, 0, 66, 0
2, 6912, Note_off_c, 0, 57, 0
2, 6912, Note_off_c, 0, 62, 0
2, 6912, Note_on_c, 0, 64, 63
2, 6912, Note_on_c, 0, 57, 56
2, 6912, Note_on_c, 0, 61, 56
2, 6912, Note_off_c, 0, 45, 0
2, 6912, Note_on_c, 0, 45, 61
2, 7296, Note_off_c, 0, 64, 0
2, 7296, Note_on_c, 0, 62, 64
2, 7424, Note_off_c, 0, 57, 0
2, 7424, Note_off_c, 0, 61, 0
2, 7424, Note_off_c, 0, 62, 0
2, 7424, Note_on_c, 0, 62, 73
2, 7424, Note_on_c, 0, 54, 57
2, 7424, Note_on_c, 0, 57, 57
2, 7424, Note_off_c, 0, 45, 0
2, 7424, Note_on_c, 0, 50, 68
2, 8448, Note_off_c, 0, 62, 0
2, 8448, Note_off_c, 0, 54, 0
2, 8448, Note_off_c, 0, 57, 0
2, 8448, Note_on_c, 0, 74, 89
2, 8448, Note_on_c, 0, 62, 77
2, 8448, Note_on_c, 0, 67, 77
2, 8448, Note_off_c, 0, 50, 0
2, 8448, Note_on_c, 0, 47, 56
2, 8960, Note_off_c, 0, 74, 0
2, 8960, Note_off_c, 0, 62, 0
2, 8960, Note_off_c, 0, 67, 0
2, 8960, Note_on_c, 0, 72, 67
2, 8960, Note_on_c, 0, 62, 62
2, 8960, Note_on_c, 0, 66, 62
2, 8960, Note_off_c, 0, 47, 0
2, 8960, Note_on_c, 0, 45, 59
2, 9216, Note_off_c, 0, 72, 0
2, 9216, Note_off_c, 0, 62, 0
2, 9216, Note_off_c, 0, 66, 0
2, 9216, Note_on_c, 0, 71, 68
2, 9216, Note_on_c, 0, 62, 65
2, 9216, Note_on_c, 0, 67, 65
2, 9216, Note_off_c, 0, 45, 0
2, 9216, Note_on_c, 0, 43, 61
2, 9472, Note_off_c, 0, 71, 0
2, 9472, Note_off_c, 0, 62, 0
2, 9472, Note_off_c, 0, 67, 0
2, 9472, Note_on_c, 0, 72, 72
2, 9472, Note_on_c, 0, 64, 61
2, 9472, Note_on_c, 0, 67, 61
2, 9472, Note_off_c, 0, 43, 0
2, 9472, Note_on_c, 0, 45, 63
2, 9728, Note_off_c, 0, 64, 0
2, 9728, Note_off_c, 0, 67, 0
2, 9728, Note_on_c, 0, 62, 58
2, 9728, Note_on_c, 0, 66, 58
2, 9984, Note_off_c, 0, 72, 0
2, 9984, Note_off_c, 0, 62, 0
2, 9984, Note_off_c, 0, 66, 0
2, 9984, Note_on_c, 0, 71, 73
2, 9984, Note_on_c, 0, 62, 65
2, 9984, Note_on_c, 0, 67, 65
2, 9984, Note_off_c, 0, 45, 0
2, 9984, Note_on_c, 0, 43, 57
2, 10496, Note_off_c, 0, 71, 0
2, 10496, Note_off_c, 0, 62, 0
2, 10496, Note_off_c, 0, 67, 0
2, 10496, Note_on_c, 0, 69, 68
2, 10496, Note_on_c, 0, 62, 55
2, 10496, Note_on_c, 0, 66, 55
2, 10496, Note_off_c, 0, 43, 0
2, 10496, Note_on_c, 0, 50, 66
2, 10752, Note_off_c, 0, 69, 0
2, 10752, Note_off_c, 0, 62, 0
2, 10752, Note_off_c, 0, 66, 0
2, 10752, Note_on_c, 0, 71, 73
2, 10752, Note_on_c, 0, 62, 63
2, 10752, Note_on_c, 0, 66, 63
2, 10752, Note_off_c, 0, 50, 0
2, 10752, Note_on_c, 0, 47, 58
2, 11008, Note_off_c, 0, 71, 0
2, 11008, Note_off_c, 0, 62, 0
2, 11008, Note_off_c, 0, 66, 0
2, 11008, Note_on_c, 0, 67, 65
2, 11008, Note_on_c, 0, 59, 55
2, 11008, Note_on_c, 0, 64, 55
2, 11008, Note_off_c, 0, 47, 0
2, 11008, Note_on_c, 0, 52, 64
2, 11264, Note_off_c, 0, 67, 0
2, 11264, Note_off_c, 0, 59, 0
2, 11264, Note_off_c, 0, 64, 0
2, 11264, Note_on_c, 0, 69, 77
2, 11264, Note_on_c, 0, 57, 59
2, 11264, Note_on_c, 0, 64, 59
2, 11264, Note_off_c, 0, 52, 0
2, 11264, Note_on_c, 0, 49, 55
2, 11520, Note_off_c, 0, 69, 0
2, 11520, Note_off_c, 0, 57, 0
2, 11520, Note_off_c, 0, 64, 0
2, 11520, Note_on_c, 0, 66, 63
2, 11520, Note_on_c, 0, 57, 53
2, 11520, Note_on_c, 0, 62, 53
2, 11520, Note_off_c, 0, 49, 0
2, 11520, Note_on_c, 0, 50, 61
2, 12032, Note_off_c, 0, 66, 0
2, 12032, Note_off_c, 0, 57, 0
2, 12032, Note_off_c, 0, 62, 0
2, 12032, Note_on_c, 0, 62, 61
2, 12032, Note_on_c, 0, 57, 56
2, 12032, Note_off_c, 0, 50, 0
2, 12032, Note_on_c, 0, 50, 60
2, 12288, Note_off_c, 0, 62, 0
2, 12288, Note_on_c, 0, 67, 82
2, 12544, Note_off_c, 0, 57, 0
2, 12544, Note_off_c, 0, 67, 0
2, 12544, Note_on_c, 0, 67, 78
2, 12544, Note_on_c, 0, 62, 69
2, 12544, Note_off_c, 0, 50, 0
2, 12544, Note_on_c, 0, 59, 68
2, 12800, Note_off_c, 0, 67, 0
2, 12800, Note_on_c, 0, 66, 67
2, 12800, Note_off_c, 0, 59, 0
2, 12800, Note_on_c, 0, 57, 64
2, 13056, Note_off_c, 0, 66, 0
2, 13056, Note_on_c, 0, 67, 70
2, 13056, Note_off_c, 0, 57, 0
2, 13056, Note_on_c, 0, 59, 63
2, 13312, Note_off_c, 0, 67, 0
2, 13312, Note_on_c, 0, 69, 76
2, 13312, Note_off_c, 0, 59, 0
2, 13312, Note_on_c, 0, 60, 61
2, 13568, Note_off_c, 0, 69, 0
2, 13568, Note_on_c, 0, 67, 70
2, 13568, Note_off_c, 0, 60, 0
2, 13568, Note_on_c, 0, 59, 60
2, 14080, Note_off_c, 0, 62, 0
2, 14080, Note_off_c, 0, 67, 0
2, 14080, Note_on_c, 0, 62, 56
2, 14080, Note_off_c, 0, 59, 0
2, 14080, Note_on_c, 0, 55, 55
2, 14336, Note_off_c, 0, 62, 0
2, 14336, Note_on_c, 0, 71, 84
2, 14336, Note_on_c, 0, 62, 62
2, 14336, Note_off_c, 0, 55, 0
2, 14336, Note_on_c, 0, 55, 61
2, 14592, Note_off_c, 0, 71, 0
2, 14592, Note_off_c, 0, 62, 0
2, 14592, Note_on_c, 0, 71, 79
2, 14592, Note_on_c, 0, 62, 59
2, 14592, Note_off_c, 0, 55, 0
2, 14592, Note_on_c, 0, 55, 60
2, 14848, Note_off_c, 0, 71, 0
2, 14848, Note_off_c, 0, 62, 0
2, 14848, Note_on_c, 0, 69, 69
2, 14848, Note_on_c, 0, 62, 60
2, 14848, Note_off_c, 0, 55, 0
2, 14848, Note_on_c, 0, 54, 58
2, 15104, Note_off_c, 0, 69, 0
2, 15104, Note_off_c, 0, 62, 0
2, 15104, Note_on_c, 0, 71, 77
2, 15104, Note_on_c, 0, 62, 60
2, 15104, Note_off_c, 0, 54, 0
2, 15104, Note_on_c, 0, 55, 62
2, 15360, Note_off_c, 0, 71, 0
2, 15360, Note_off_c, 0, 62, 0
2, 15360, Note_on_c, 0, 72, 75
2, 15360, Note_on_c, 0, 62, 65
2, 15360, Note_off_c, 0, 55, 0
2, 15360, Note_on_c, 0, 57, 63
2, 15616, Note_off_c, 0, 72, 0
2, 15616, Note_off_c, 0, 62, 0
2, 15616, Note_on_c, 0, 71, 68
2, 15616, Note_on_c, 0, 62, 61
2, 15616, Note_off_c, 0, 57, 0
2, 15616, Note_on_c, 0, 55, 59
2, 16128, Note_off_c, 0, 71, 0
2, 16128, Note_off_c, 0, 62, 0
2, 16128, Note_on_c, 0, 69, 66
2, 16128, Note_on_c, 0, 62, 63
2, 16128, Note_off_c, 0, 55, 0
2, 16128, Note_on_c, 0, 50, 55
2, 16384, Note_off_c, 0, 69, 0
2, 16384, Note_off_c, 0, 62, 0
2, 16384, Note_on_c, 0, 71, 73
2, 16384, Note_on_c, 0, 62, 72
2, 16384, Note_on_c, 0, 67, 72
2, 16384, Note_off_c, 0, 50, 0
2, 16384, Note_on_c, 0, 55, 63
2, 16512, Note_off_c, 0, 55, 0
2, 16512, Note_on_c, 0, 54, 54
2, 16640, Note_off_c, 0, 71, 0
2, 16640, Note_off_c, 0, 62, 0
2, 16640, Note_off_c, 0, 67, 0
2, 16640, Note_on_c, 0, 72, 76
2, 16640, Note_on_c, 0, 60, 64
2, 16640, Note_on_c, 0, 67, 64
2, 16640, Note_off_c, 0, 54, 0
2, 16640, Note_on_c, 0, 52, 57
2, 16896, Note_off_c, 0, 72, 0
2, 16896, Note_off_c, 0, 60, 0
2, 16896, Note_off_c, 0, 67, 0
2, 16896, Note_on_c, 0, 71, 69
2, 16896, Note_on_c, 0, 62, 59
2, 16896, Note_on_c, 0, 67, 59
2, 16896, Note_off_c, 0, 52, 0
2, 16896, Note_on_c, 0, 50, 61
2, 17152, Note_off_c, 0, 71, 0
2, 17152, Note_off_c, 0, 62, 0
2, 17152, Note_off_c, 0, 67, 0
2, 17152, Note_on_c, 0, 69, 64
2, 17152, Note_on_c, 0, 57, 51
2, 17152, Note_on_c, 0, 64, 51
2, 17152, Note_off_c, 0, 50, 0
2, 17152, Note_on_c, 0, 48, 59
2, 17408, Note_off_c, 0, 69, 0
2, 17408, Note_off_c, 0, 57, 0
2, 17408, Note_off_c, 0, 64, 0
2, 17408, Note_on_c, 0, 67, 61
2, 17408, Note_on_c, 0, 57, 65
2, 17408, Note_on_c, 0, 64, 65
2, 17408, Note_off_c, 0, 48, 0
2, 17408, Note_on_c, 0, 49, 59
2, 17664, Note_off_c, 0, 67, 0
2, 17664, Note_off_c, 0, 57, 0
2, 17664, Note_off_c, 0, 64, 0
2, 17664, Note_on_c, 0, 66, 68
2, 17664, Note_on_c, 0, 57, 58
2, 17664, Note_on_c, 0, 62, 58
2, 17664, Note_off_c, 0, 49, 0
2, 17664, Note_on_c, 0, 50, 63
2, 17920, Note_off_c, 0, 50, 0
2, 17920, Note_on_c, 0, 48, 62
2, 18176, Note_off_c, 0, 66, 0
2, 18176, Note_off_c, 0, 57, 0
2, 18176, Note_off_c, 0, 62, 0
2, 18176, Note_on_c, 0, 67, 73
2, 18176, Note_on_c, 0, 59, 64
2, 18176, Note_on_c, 0, 62, 64
2, 18176, Note_off_c, 0, 48, 0
2, 18176, Note_on_c, 0, 47, 56
2, 18432, Note_off_c, 0, 67, 0
2, 18432, Note_off_c, 0, 59, 0
2, 18432, Note_off_c, 0, 62, 0
2, 18432, Note_on_c, 0, 72, 82
2, 18432, Note_on_c, 0, 60, 61
2, 18432, Note_on_c, 0, 64, 61
2, 18432, Note_off_c, 0, 47, 0
2, 18432, Note_on_c, 0, 45, 60
2, 18688, Note_off_c, 0, 72, 0
2, 18688, Note_off_c, 0, 60, 0
2, 18688, Note_off_c, 0, 64, 0
2, 18688, Note_on_c, 0, 71, 67
2, 18688, Note_on_c, 0, 62, 66
2, 18688, Note_on_c, 0, 67, 66
2, 18688, Note_off_c, 0, 45, 0
2, 18688, Note_on_c, 0, 50, 68
2, 19200, Note_off_c, 0, 71, 0
2, 19200, Note_off_c, 0, 62, 0
2, 19200, Note_off_c, 0, 67, 0
2, 19200, Note_on_c, 0, 69, 65
2, 19200, Note_on_c, 0, 60, 58
2, 19200, Note_on_c, 0, 66, 58
2, 19200, Note_off_c, 0, 50, 0
2, 19200, Note_on_c, 0, 50, 64
2, 19584, Note_off_c, 0, 69, 0
2, 19584, Note_on_c, 0, 67, 64
2, 19712, Note_off_c, 0, 60, 0
2, 19712, Note_off_c, 0, 66, 0
2, 19712, Note_off_c, 0, 67, 0
2, 19712, Note_on_c, 0, 67, 72
2, 19712, Note_on_c, 0, 59, 57
2, 19712, Note_on_c, 0, 62, 57
2, 19712, Note_off_c, 0, 50, 0
2, 19712, Note_on_c, 0, 43, 58
2, 20736, Note_off_c, 0, 67, 0
2, 20736, Note_off_c, 0, 59, 0
2, 20736, Note_off_c, 0, 62, 0
2, 20736, Note_on_c, 0, 67, 70
2, 20736, Note_on_c, 0, 59, 59
2, 20736, Note_on_c, 0, 62, 59
2, 20736, Note_off_c, 0, 43, 0
2, 20736, Note_on_c, 0, 55, 70
2, 21248, Note_off_c, 0, 67, 0
2, 21248, Note_off_c, 0, 59, 0
2, 21248, Note_off_c, 0, 62, 0
2, 21248, Note_on_c, 0, 62, 62
2, 21248, Note_on_c, 0, 57, 56
2, 21248, Note_on_c, 0, 60, 56
2, 21248, Note_off_c, 0, 55, 0
2, 21248, Note_on_c, 0, 55, 61
2, 21504, Note_off_c, 0, 62, 0
2, 21504, Note_off_c, 0, 57, 0
2, 21504, Note_off_c, 0, 60, 0
2, 21504, Note_on_c, 0, 67, 76
2, 21504, Note_on_c, 0, 59, 67
2, 21504, Note_on_c, 0, 62, 67
2, 21504, Note_off_c, 0, 55, 0
2, 21504, Note_on_c, 0, 55, 60
2, 21760, Note_off_c, 0, 67, 0
2, 21760, Note_off_c, 0, 59, 0
2, 21760, Note_off_c, 0, 62, 0
2, 21760, Note_on_c, 0, 69, 82
2, 21760, Note_on_c, 0, 60, 64
2, 21760, Note_on_c, 0, 64, 64
2, 21760, Note_off_c, 0, 55, 0
2, 21760, Note_on_c, 0, 55, 61
2, 22272, Note_off_c, 0, 69, 0
2, 22272, Note_off_c, 0, 60, 0
2, 22272, Note_off_c, 0, 64, 0
2, 22272, Note_on_c, 0, 62, 59
2, 22272, Note_on_c, 0, 57, 57
2, 22272, Note_off_c, 0, 55, 0
2, 22272, Note_on_c, 0, 50, 59
2, 22272, Note_on_c, 0, 54, 59
2, 22784, Note_off_c, 0, 62, 0
2, 22784, Note_off_c, 0, 57, 0
2, 22784, Note_on_c, 0, 71, 85
2, 22784, Note_on_c, 0, 62, 70
2, 22784, Note_on_c, 0, 67, 70
2, 22784, Note_off_c, 0, 50, 0
2, 22784, Note_off_c, 0, 54, 0
2, 22784, Note_on_c, 0, 55, 67
2, 23040, Note_off_c, 0, 71, 0
2, 23040, Note_off_c, 0, 62, 0
2, 23040, Note_off_c, 0, 67, 0
2, 23040, Note_on_c, 0, 69, 70
2, 23040, Note_on_c, 0, 62, 61
2, 23040, Note_on_c, 0, 66, 61
2, 23040, Note_off_c, 0, 55, 0
2, 23040, Note_on_c, 0, 50, 58
2, 23296, Note_off_c, 0, 69, 0
2, 23296, Note_off_c, 0, 62, 0
2, 23296, Note_off_c, 0, 66, 0
2, 23296, Note_on_c, 0, 71, 74
2, 23296, Note_on_c, 0, 62, 60
2, 23296, Note_on_c, 0, 67, 60
2, 23296, Note_off_c, 0, 50, 0
2, 23296, Note_on_c, 0, 55, 65
2, 23552, Note_off_c, 0, 71, 0
2, 23552, Note_off_c, 0, 62, 0
2, 23552, Note_off_c, 0, 67, 0
2, 23552, Note_on_c, 0, 72, 75
2, 23552, Note_on_c, 0, 64, 60
2, 23552, Note_on_c, 0, 69, 60
2, 23552, Note_off_c, 0, 55, 0
2, 23552, Note_on_c, 0, 48, 59
2, 23808, Note_off_c, 0, 72, 0
2, 23808, Note_off_c, 0, 64, 0
2, 23808, Note_off_c, 0, 69, 0
2, 23808, Note_on_c, 0, 71, 69
2, 23808, Note_on_c, 0, 62, 61
2, 23808, Note_on_c, 0, 67, 61
2, 23808, Note_off_c, 0, 48, 0
2, 23808, Note_on_c, 0, 50, 63
2, 24320, Note_off_c, 0, 71, 0
2, 24320, Note_off_c, 0, 62, 0
2, 24320, Note_off_c, 0, 67, 0
2, 24320, Note_on_c, 0, 69, 65
2, 24320, Note_on_c, 0, 62, 59
2, 24320, Note_on_c, 0, 66, 59
2, 24320, Note_off_c, 0, 50, 0
2, 24320, Note_on_c, 0, 50, 58
2, 24576, Note_off_c, 0, 69, 0
2, 24576, Note_off_c, 0, 62, 0
2, 24576, Note_off_c, 0, 66, 0
2, 24576, Note_on_c, 0, 67, 63
2, 24576, Note_on_c, 0, 59, 58
2, 24576, Note_on_c, 0, 64, 58
2, 24576, Note_off_c, 0, 50, 0
2, 24576, Note_on_c, 0, 52, 60
2, 24832, Note_off_c, 0, 67, 0
2, 24832, Note_off_c, 0, 59, 0
2, 24832, Note_off_c, 0, 64, 0
2, 24832, Note_on_c, 0, 67, 76
2, 24832, Note_on_c, 0, 59, 60
2, 24832, Note_off_c, 0, 52, 0
2, 24832, Note_on_c, 0, 52, 65
2, 24832, Note_on_c, 0, 55, 65
2, 25088, Note_off_c, 0, 59, 0
2, 25088, Note_on_c, 0, 61, 70
2, 25344, Note_off_c, 0, 67, 0
2, 25344, Note_off_c, 0, 61, 0
2, 25344, Note_on_c, 0, 66, 66
2, 25344, Note_on_c, 0, 57, 67
2, 25344, Note_on_c, 0, 62, 67
2, 25344, Note_off_c, 0, 52, 0
2, 25344, Note_off_c, 0, 55, 0
2, 25344, Note_on_c, 0, 54, 59
2, 25600, Note_off_c, 0, 66, 0
2, 25600, Note_off_c, 0, 57, 0
2, 25600, Note_off_c, 0, 62, 0
2, 25600, Note_on_c, 0, 64, 69
2, 25600, Note_on_c, 0, 57, 59
2, 25600, Note_on_c, 0, 61, 59
2, 25600, Note_off_c, 0, 54, 0
2, 25600, Note_on_c, 0, 55, 62
2, 25856, Note_off_c, 0, 64, 0
2, 25856, Note_off_c, 0, 57, 0
2, 25856, Note_off_c, 0, 61, 0
2, 25856, Note_on_c, 0, 66, 78
2, 25856, Note_on_c, 0, 57, 64
2, 25856, Note_on_c, 0, 62, 64
2, 25856, Note_off_c, 0, 55, 0
2, 25856, Note_on_c, 0, 54, 56
2, 26112, Note_off_c, 0, 66, 0
2, 26112, Note_off_c, 0, 57, 0
2, 26112, Note_off_c, 0, 62, 0
2, 26112, Note_on_c, 0, 67, 73
2, 26112, Note_on_c, 0, 57, 62
2, 26112, Note_on_c, 0, 64, 62
2, 26112, Note_off_c, 0, 54, 0
2, 26112, Note_on_c, 0, 52, 55
2, 26368, Note_off_c, 0, 67, 0
2, 26368, Note_off_c, 0, 57, 0
2, 26368, Note_off_c, 0, 64, 0
2, 26368, Note_on_c, 0, 69, 79
2, 26368, Note_on_c, 0, 62, 62
2, 26368, Note_on_c, 0, 66, 62
2, 26368, Note_off_c, 0, 52, 0
2, 26368, Note_on_c, 0, 50, 57
2, 26624, Note_off_c, 0, 69, 0
2, 26624, Note_off_c, 0, 62, 0
2, 26624, Note_off_c, 0, 66, 0
2, 26624, Note_on_c, 0, 71, 77
2, 26624, Note_on_c, 0, 62, 63
2, 26624, Note_on_c, 0, 67, 63
2, 26624, Note_off_c, 0, 50, 0
2, 26624, Note_on_c, 0, 43, 56
2, 26880, Note_off_c, 0, 71, 0
2, 26880, Note_off_c, 0, 62, 0
2, 26880, Note_off_c, 0, 67, 0
2, 26880, Note_on_c, 0, 66, 61
2, 26880, Note_on_c, 0, 57, 55
2, 26880, Note_on_c, 0, 62, 55
2, 26880, Note_off_c, 0, 43, 0
2, 26880, Note_on_c, 0, 45, 64
2, 27392, Note_off_c, 0, 66, 0
2, 27392, Note_off_c, 0, 57, 0
2, 27392, Note_off_c, 0, 62, 0
2, 27392, Note_on_c, 0, 64, 63
2, 27392, Note_on_c, 0, 57, 57
2, 27392, Note_on_c, 0, 61, 57
2, 27392, Note_off_c, 0, 45, 0
2, 27392, Note_on_c, 0, 45, 58
2, 27776, Note_off_c, 0, 64, 0
2, 27776, Note_on_c, 0, 62, 62
2, 27904, Note_off_c, 0, 57, 0
2, 27904, Note_off_c, 0, 61, 0
2, 27904, Note_off_c, 0, 62, 0
2, 27904, Note_on_c, 0, 62, 71
2, 27904, Note_on_c, 0, 54, 59
2, 27904, Note_on_c, 0, 57, 59
2, 27904, Note_off_c, 0, 45, 0
2, 27904, Note_on_c, 0, 50, 66
2, 28928, Note_off_c, 0, 62, 0
2, 28928, Note_off_c, 0, 54, 0
2, 28928, Note_off_c, 0, 57, 0
2, 28928, Note_on_c, 0, 74, 92
2, 28928, Note_on_c, 0, 62, 74
2, 28928, Note_on_c, 0, 67, 74
2, 28928, Note_off_c, 0, 50, 0
2, 28928, Note_on_c, 0, 47, 59
2, 29440, Note_off_c, 0, 74, 0
2, 29440, Note_off_c, 0, 62, 0
2, 29440, Note_off_c, 0, 67, 0
2, 29440, Note_on_c, 0, 72, 73
2, 29440, Note_on_c, 0, 62, 55
2, 29440, Note_on_c, 0, 66, 55
2, 29440, Note_off_c, 0, 47, 0
2, 29440, Note_on_c, 0, 45, 56
2, 29696, Note_off_c, 0, 72, 0
2, 29696, Note_off_c, 0, 62, 0
2, 29696, Note_off_c, 0, 66, 0
2, 29696, Note_on_c, 0, 71, 69
2, 29696, Note_on_c, 0, 62, 62
2, 29696, Note_on_c, 0, 67, 62
2, 29696, Note_off_c, 0, 45, 0
2, 29696, Note_on_c, 0, 43, 58
2, 29952, Note_off_c, 0, 71, 0
2, 29952, Note_off_c, 0, 62, 0
2, 29952, Note_off_c, 0, 67, 0
2, 29952, Note_on_c, 0, 72, 73
2, 29952, Note_on_c, 0, 64, 57
2, 29952, Note_on_c, 0, 67, 57
2, 29952, Note_off_c, 0, 43, 0
2, 29952, Note_on_c, 0, 45, 66
2, 30208, Note_off_c, 0, 64, 0
2, 30208, Note_off_c, 0, 67, 0
2, 30208, Note_on_c, 0, 62, 57
2, 30208, Note_on_c, 0, 66, 57
2, 30464, Note_off_c, 0, 72, 0
2, 30464, Note_off_c, 0, 62, 0
2, 30464, Note_off_c, 0, 66, 0
2, 30464, Note_on_c, 0, 71, 72
2, 30464, Note_on_c, 0, 62, 61
2, 30464, Note_on_c, 0, 67, 61
2, 30464, Note_off_c, 0, 45, 0
2, 30464, Note_on_c, 0, 43, 61
2, 30976, Note_off_c, 0, 71, 0
2, 30976, Note_off_c, 0, 62, 0
2, 30976, Note_off_c, 0, 67, 0
2, 30976, Note_on_c, 0, 69, 64
2, 30976, Note_on_c, 0, 62, 59
2, 30976, Note_on_c, 0, 66, 59
2, 30976, Note_off_c, 0, 43, 0
2, 30976, Note_on_c, 0, 50, 68
2, 31232, Note_off_c, 0, 69, 0
2, 31232, Note_off_c, 0, 62, 0
2, 31232, Note_off_c, 0, 66, 0
2, 31232, Note_on_c, 0, 71, 76
2, 31232, Note_on_c, 0, 62, 61
2, 31232, Note_on_c, 0, 66, 61
2, 31232, Note_off_c, 0, 50, 0
2, 31232, Note_on_c, 0, 47, 59
2, 31488, Note_off_c, 0, 71, 0
2, 31488, Note_off_c, 0, 62, 0
2, 31488, Note_off_c, 0, 66, 0
2, 31488, Note_on_c, 0, 67, 64
2, 31488, Note_on_c, 0, 59, 58
2, 31488, Note_on_c, 0, 64, 58
2, 31488, Note_off_c, 0, 47, 0
2, 31488, Note_on_c, 0, 52, 66
2, 31744, Note_off_c, 0, 67, 0
2, 31744, Note_off_c, 0, 59, 0
2, 31744, Note_off_c, 0, 64, 0
2, 31744, Note_on_c, 0, 69, 74
2, 31744, Note_on_c, 0, 57, 56
2, 31744, Note_on_c, 0, 64, 56
2, 31744, Note_off_c, 0, 52, 0
2, 31744, Note_on_c, 0, 49, 62
2, 32000, Note_off_c, 0, 69, 0
2, 32000, Note_off_c, 0, 57, 0
2, 32000, Note_off_c, 0, 64, 0
2, 32000, Note_on_c, 0, 66, 66
2, 32000, Note_on_c, 0, 57, 57
2, 32000, Note_on_c, 0, 62, 57
2, 32000, Note_off_c, 0, 49, 0
2, 32000, Note_on_c, 0, 50, 57
2, 32512, Note_off_c, 0, 66, 0
2, 32512, Note_off_c, 0, 57, 0
2, 32512, Note_off_c, 0, 62, 0
2, 32512, Note_on_c, 0, 62, 61
2, 32512, Note_on_c, 0, 57, 55
2, 32512, Note_off_c, 0, 50, 0
2, 32512, Note_on_c, 0, 50, 63
2, 32768, Note_off_c, 0, 62, 0
2, 32768, Note_on_c, 0, 67, 77
2, 33024, Note_off_c, 0, 57, 0
2, 33024, Note_off_c, 0, 67, 0
2, 33024, Note_on_c, 0, 67, 71
2, 33024, Note_on_c, 0, 62, 67
2, 33024, Note_off_c, 0, 50, 0
2, 33024, Note_on_c, 0, 59, 68
2, 33280, Note_off_c, 0, 67, 0
2, 33280, Note_on_c, 0, 66, 70
2, 33280, Note_off_c, 0, 59, 0
2, 33280, Note_on_c, 0, 57, 62
2, 33536, Note_off_c, 0, 66, 0
2, 33536, Note_on_c, 0, 67, 72
2, 33536, Note_off_c, 0, 57, 0
2, 33536, Note_on_c, 0, 59, 57
2, 33792, Note_off_c, 0, 67, 0
2, 33792, Note_on_c, 0, 69, 74
2, 33792, Note_off_c, 0, 59, 0
2, 33792, Note_on_c, 0, 60, 63
2, 34048, Note_off_c, 0, 69, 0
2, 34048, Note_on_c, 0, 67, 67
2, 34048, Note_off_c, 0, 60, 0
2, 34048, Note_on_c, 0, 59, 58
2, 34560, Note_off_c, 0, 62, 0
2, 34560, Note_off_c, 0, 67, 0
2, 34560, Note_on_c, 0, 62, 58
2, 34560, Note_off_c, 0, 59, 0
2, 34560, Note_on_c, 0, 55, 59
2, 34816, Note_off_c, 0, 62, 0
2, 34816, Note_on_c, 0, 71, 87
2, 34816, Note_on_c, 0, 62, 63
2, 34816, Note_off_c, 0, 55, 0
2, 34816, Note_on_c, 0, 55, 61
2, 35072, Note_off_c, 0, 71, 0
2, 35072, Note_off_c, 0, 62, 0
2, 35072, Note_on_c, 0, 71, 75
2, 35072, Note_on_c, 0, 62, 61
2, 35072, Note_off_c, 0, 55, 0
2, 35072, Note_on_c, 0, 55, 61
2, 35328, Note_off_c, 0, 71, 0
2, 35328, Note_off_c, 0, 62, 0
2, 35328, Note_on_c, 0, 69, 65
2, 35328, Note_on_c, 0, 62, 63
2, 35328, Note_off_c, 0, 55, 0
2, 35328, Note_on_c, 0, 54, 66
2, 35584, Note_off_c, 0, 69, 0
2, 35584, Note_off_c, 0, 62, 0
2, 35584, Note_on_c, 0, 71, 75
2, 35584, Note_on_c, 0, 62, 62
2, 35584, Note_off_c, 0, 54, 0
2, 35584, Note_on_c, 0, 55, 61
2, 35840, Note_off_c, 0, 71, 0
2, 35840, Note_off_c, 0, 62, 0
2, 35840, Note_on_c, 0, 72, 78
2, 35840, Note_on_c, 0, 62, 65
2, 35840, Note_off_c, 0, 55, 0
2, 35840, Note_on_c, 0, 57, 61
2, 36096, Note_off_c, 0, 72, 0
2, 36096, Note_off_c, 0, 62, 0
2, 36096, Note_on_c, 0, 71, 66
2, 36096, Note_on_c, 0, 62, 61
2, 36096, Note_off_c, 0, 57, 0
2, 36096, Note_on_c, 0, 55, 60
2, 36608, Note_off_c, 0, 71, 0
2, 36608, Note_off_c, 0, 62, 0
2, 36608, Note_on_c, 0, 69, 67
2, 36608, Note_on_c, 0, 62, 61
2, 36608, Note_off_c, 0, 55, 0
2, 36608, Note_on_c, 0, 50, 55
2, 36864, Note_off_c, 0, 69, 0
2, 36864, Note_off_c, 0, 62, 0
2, 36864, Note_on_c, 0, 71, 73
2, 36864, Note_on_c, 0, 62, 70
2, 36864, Note_on_c, 0, 67, 70
2, 36864, Note_off_c, 0, 50, 0
2, 36864, Note_on_c, 0, 55, 59
2, 36992, Note_off_c, 0, 55, 0
2, 36992, Note_on_c, 0, 54, 62
2, 37120, Note_off_c, 0, 71, 0
2, 37120, Note_off_c, 0, 62, 0
2, 37120, Note_off_c, 0, 67, 0
2, 37120, Note_on_c, 0, 72, 77
2, 37120, Note_on_c, 0, 60, 65
2, 37120, Note_on_c, 0, 67, 65
2, 37120, Note_off_c, 0, 54, 0
2, 37120, Note_on_c, 0, 52, 62
2, 37376, Note_off_c, 0, 72, 0
2, 37376, Note_off_c, 0, 60, 0
2, 37376, Note_off_c, 0, 67, 0
2, 37376, Note_on_c, 0, 71, 70
2, 37376, Note_on_c, 0, 62, 59
2, 37376, Note_on_c, 0, 67, 59
2, 37376, Note_off_c, 0, 52, 0
2, 37376, Note_on_c, 0, 50, 59
2, 37632, Note_off_c, 0, 71, 0
2, 37632, Note_off_c, 0, 62, 0
2, 37632, Note_off_c, 0, 67, 0
2, 37632, Note_on_c, 0, 69, 68
2, 37632, Note_on_c, 0, 57, 60
2, 37632, Note_on_c, 0, 64, 60
2, 37632, Note_off_c, 0, 50, 0
2, 37632, Note_on_c, 0, 48, 59
2, 37888, Note_off_c, 0, 69, 0
2, 37888, Note_off_c, 0, 57, 0
2, 37888, Note_off_c, 0, 64, 0
2, 37888, Note_on_c, 0, 67, 65
2, 37888, Note_on_c, 0, 57, 62
2, 37888, Note_on_c, 0, 64, 62
2, 37888, Note_off_c, 0, 48, 0
2, 37888, Note_on_c, 0, 49, 60
2, 38144, Note_off_c, 0, 67, 0
2, 38144, Note_off_c, 0, 57, 0
2, 38144, Note_off_c, 0, 64, 0
2, 38144, Note_on_c, 0, 66, 70
2, 38144, Note_on_c, 0, 57, 58
2, 38144, Note_on_c, 0, 62, 58
2, 38144, Note_off_c, 0, 49, 0
2, 38144, Note_on_c, 0, 50, 63
2, 38400, Note_off_c, 0, 50, 0
2, 38400, Note_on_c, 0, 48, 62
2, 38656, Note_off_c, 0, 66, 0
2, 38656, Note_off_c, 0, 57, 0
2, 38656, Note_off_c, 0, 62, 0
2, 38656, Note_on_c, 0, 67, 75
2, 38656, Note_on_c, 0, 59, 58
2, 38656, Note_on_c, 0, 62, 58
2, 38656, Note_off_c, 0, 48, 0
2, 38656, Note_on_c, 0, 47, 60
2, 38912, Note_off_c, 0, 67, 0
2, 38912, Note_off_c, 0, 59, 0
2, 38912, Note_off_c, 0, 62, 0
2, 38912, Note_on_c, 0, 72, 80
2, 38912, Note_on_c, 0, 60, 67
2, 38912, Note_on_c, 0, 64, 67
2, 38912, Note_off_c, 0, 47, 0
2, 38912, Note_on_c, 0, 45, 63
2, 39168, Note_off_c, 0, 72, 0
2, 39168, Note_off_c, 0, 60, 0
2, 39168, Note_off_c, 0, 64, 0
2, 39168, Note_on_c, 0, 71, 70
2, 39168, Note_on_c, 0, 62, 68
2, 39168, Note_on_c, 0, 67, 68
2, 39168, Note_off_c, 0, 45, 0
2, 39168, Note_on_c, 0, 50, 60
2, 39680, Note_off_c, 0, 71, 0
2, 39680, Note_off_c, 0, 62, 0
2, 39680, Note_off_c, 0, 67, 0
2, 39680, Note_on_c, 0, 69, 70
2, 39680, Note_on_c, 0, 60, 60
2, 39680, Note_on_c, 0, 66, 60
2, 39680, Note_off_c, 0, 50, 0
2, 39680, Note_on_c, 0, 50, 58
2, 40064, Note_off_c, 0, 69, 0
2, 40064, Note_on_c, 0, 67, 68
2, 40192, Note_off_c, 0, 60, 0
2, 40192, Note_off_c, 0, 66, 0
2, 40192, Note_off_c, 0, 67, 0
2, 40192, Note_on_c, 0, 67, 72
2, 40192, Note_on_c, 0, 59, 54
2, 40192, Note_on_c, 0, 62, 54
2, 40192, Note_off_c, 0, 50, 0
2, 40192, Note_on_c, 0, 43, 56
2, 41216, Note_off_c, 0, 67, 0
2, 41216, Note_off_c, 0, 59, 0
2, 41216, Note_off_c, 0, 62, 0
2, 41216, Note_off_c, 0, 43, 0
2, 41217, End_track
0, 0, End_of_file
