0, 0, Header, 1, 2, 256
1, 0, Start_track
1, 0, Time_signature, 2, 2, 24, 8
1, 0, Key_signature, 1, "major"
1, 0, Tempo, 666665
1, 11776, Tempo, 1000000
1, 12288, Tempo, 1000000
1, 12288, Tempo, 666665
1, 24064, Tempo, 1000000
1, 24065, End_track
2, 0, Start_track
2, 0, Program_c, 0, 0
2, 0, Control_c, 0, 121, 0
2, 0, Control_c, 0, 64, 0
2, 0, Control_c, 0, 91, 103
2, 0, Control_c, 0, 10, 104
2, 0, Control_c, 0, 7, 127
2, 0, Note_on_c, 0, 62, 88
2, 0, Control_c, 0, 121, 0
2, 0, Control_c, 0, 64, 0
2, 0, Control_c, 0, 91, 57
2, 0, Control_c, 0, 10, 21
2, 0, Control_c, 0, 7, 127
2, 0, Note_on_c, 0, 59, 74
2, 0, Note_on_c, 0, 50, 76
2, 256, Note_off_c, 0, 62, 0
2, 256, Note_on_c, 0, 66, 110
2, 256, Note_on_c, 0, 60, 80
2, 256, Note_off_c, 0, 59, 0
2, 256, Note_on_c, 0, 57, 86
2, 512, Note_off_c, 0, 66, 0
2, 512, Note_off_c, 0, 60, 0
2, 512, Note_on_c, 0, 67, 104
2, 512, Note_on_c, 0, 59, 80
2, 512, Note_off_c, 0, 50, 0
2, 512, Note_off_c, 0, 57, 0
2, 512, Note_on_c, 0, 55, 79
2, 512, Note_on_c, 0, 52, 87
2, 896, Note_off_c, 0, 67, 0
2, 896, Note_on_c, 0, 67, 100
2, 1024, Note_off_c, 0, 59, 0
2, 1024, Note_off_c, 0, 67, 0
2, 1024, Note_on_c, 0, 67, 95
2, 1024, Note_on_c, 0, 62, 90
2, 1024, Note_off_c, 0, 55, 0
2, 1024, Note_off_c, 0, 52, 0
2, 1024, Note_on_c, 0, 59, 88
2, 1024, Note_on_c, 0, 50, 83
2, 1152, Note_off_c, 0, 67, 0
2, 1152, Note_on_c, 0, 66, 92
2, 1280, Note_off_c, 0, 66, 0
2, 1280, Note_on_c, 0, 67, 103
2, 1408, Note_off_c, 0, 67, 0
2, 1408, Note_on_c, 0, 69, 104
2, 1408, Note_off_c, 0, 59, 0
2, 1408, Note_on_c, 0, 60, 88
2, 1536, Note_off_c, 0, 62, 0
2, 1536, Note_off_c, 0, 69, 0
2, 1536, Note_on_c, 0, 69, 102
2, 1536, Note_on_c, 0, 62, 82
2, 1536, Note_off_c, 0, 50, 0
2, 1536, Note_off_c, 0, 60, 0
2, 1536, Note_on_c, 0, 60, 84
2, 1536, Note_on_c, 0, 55, 93
2, 1792, Note_off_c, 0, 69, 0
2, 1792, Note_on_c, 0, 67, 93
2, 1792, Note_off_c, 0, 60, 0
2, 1792, Note_on_c, 0, 59, 82
2, 2048, Note_off_c, 0, 62, 0
2, 2048, Note_off_c, 0, 67, 0
2, 2048, Note_on_c, 0, 67, 100
2, 2048, Note_on_c, 0, 64, 87
2, 2048, Note_off_c, 0, 55, 0
2, 2048, Note_off_c, 0, 59, 0
2, 2048, Note_on_c, 0, 59, 84
2, 2048, Note_on_c, 0, 52, 81
2, 2304, Note_off_c, 0, 67, 0
2, 2304, Note_on_c, 0, 71, 110
2, 2304, Note_off_c, 0, 59, 0
2, 2304, Note_on_c, 0, 55, 81
2, 2560, Note_off_c, 0, 64, 0
2, 2560, Note_off_c, 0, 71, 0
2, 2560, Note_on_c, 0, 74, 109
2, 2560, Note_on_c, 0, 62, 79
2, 2560, Note_off_c, 0, 52, 0
2, 2560, Note_off_c, 0, 55, 0
2, 2560, Note_on_c, 0, 54, 79
2, 2560, Note_on_c, 0, 47, 81
2, 2816, Note_off_c, 0, 54, 0
2, 2816, Note_on_c, 0, 55, 86
2, 2944, Note_off_c, 0, 74, 0
2, 2944, Note_on_c, 0, 71, 87
2, 3072, Note_off_c, 0, 62, 0
2, 3072, Note_off_c, 0, 71, 0
2, 3072, Note_on_c, 0, 71, 99
2, 3072, Note_on_c, 0, 64, 90
2, 3072, Note_off_c, 0, 47, 0
2, 3072, Note_off_c, 0, 55, 0
2, 3072, Note_on_c, 0, 60, 96
2, 3072, Note_on_c, 0, 48, 85
2, 3200, Note_off_c, 0, 71, 0
2, 3200, Note_on_c, 0, 69, 92
2, 3328, Note_off_c, 0, 69, 0
2, 3328, Note_on_c, 0, 67, 90
2, 3328, Note_off_c, 0, 48, 0
2, 3328, Note_on_c, 0, 50, 84
2, 3456, Note_off_c, 0, 67, 0
2, 3456, Note_on_c, 0, 66, 94
2, 3584, Note_off_c, 0, 64, 0
2, 3584, Note_off_c, 0, 66, 0
2, 3584, Note_on_c, 0, 67, 97
2, 3584, Note_on_c, 0, 62, 80
2, 3584, Note_off_c, 0, 60, 0
2, 3584, Note_off_c, 0, 50, 0
2, 3584, Note_on_c, 0, 59, 82
2, 3584, Note_on_c, 0, 55, 85
2, 4096, Note_off_c, 0, 67, 0
2, 4096, Note_off_c, 0, 62, 0
2, 4096, Note_on_c, 0, 62, 83
2, 4096, Note_off_c, 0, 59, 0
2, 4096, Note_off_c, 0, 55, 0
2, 4096, Note_on_c, 0, 59, 79
2, 4096, Note_on_c, 0, 50, 84
2, 4352, Note_off_c, 0, 62, 0
2, 4352, Note_on_c, 0, 66, 110
2, 4352, Note_on_c, 0, 60, 78
2, 4352, Note_off_c, 0, 59, 0
2, 4352, Note_on_c, 0, 57, 81
2, 4608, Note_off_c, 0, 66, 0
2, 4608, Note_off_c, 0, 60, 0
2, 4608, Note_on_c, 0, 67, 102
2, 4608, Note_on_c, 0, 62, 94
2, 4608, Note_off_c, 0, 50, 0
2, 4608, Note_off_c, 0, 57, 0
2, 4608, Note_on_c, 0, 55, 82
2, 4608, Note_on_c, 0, 47, 79
2, 4992, Note_off_c, 0, 67, 0
2, 4992, Note_on_c, 0, 67, 98
2, 5120, Note_off_c, 0, 62, 0
2, 5120, Note_off_c, 0, 67, 0
2, 5120, Note_on_c, 0, 67, 99
2, 5120, Note_on_c, 0, 61, 81
2, 5120, Note_off_c, 0, 55, 0
2, 5120, Note_off_c, 0, 47, 0
2, 5120, Note_on_c, 0, 55, 87
2, 5120, Note_on_c, 0, 52, 90
2, 5248, Note_off_c, 0, 67, 0
2, 5248, Note_on_c, 0, 66, 94
2, 5376, Note_off_c, 0, 66, 0
2, 5376, Note_on_c, 0, 67, 100
2, 5504, Note_off_c, 0, 67, 0
2, 5504, Note_on_c, 0, 69, 109
2, 5632, Note_off_c, 0, 61, 0
2, 5632, Note_off_c, 0, 69, 0
2, 5632, Note_on_c, 0, 69, 99
2, 5632, Note_on_c, 0, 62, 88
2, 5632, Note_off_c, 0, 55, 0
2, 5632, Note_off_c, 0, 52, 0
2, 5632, Note_on_c, 0, 60, 91
2, 5632, Note_on_c, 0, 50, 79
2, 5888, Note_off_c, 0, 69, 0
2, 5888, Note_on_c, 0, 67, 95
2, 5888, Note_off_c, 0, 60, 0
2, 5888, Note_off_c, 0, 50, 0
2, 5888, Note_on_c, 0, 59, 83
2, 5888, Note_on_c, 0, 55, 87
2, 6144, Note_off_c, 0, 62, 0
2, 6144, Note_off_c, 0, 67, 0
2, 6144, Note_on_c, 0, 67, 93
2, 6144, Note_on_c, 0, 64, 89
2, 6144, Note_off_c, 0, 59, 0
2, 6144, Note_off_c, 0, 55, 0
2, 6144, Note_on_c, 0, 59, 83
2, 6144, Note_on_c, 0, 52, 79
2, 6400, Note_off_c, 0, 67, 0
2, 6400, Note_on_c, 0, 71, 106
2, 6400, Note_off_c, 0, 59, 0
2, 6400, Note_on_c, 0, 55, 81
2, 6656, Note_off_c, 0, 64, 0
2, 6656, Note_off_c, 0, 71, 0
2, 6656, Note_on_c, 0, 74, 105
2, 6656, Note_on_c, 0, 62, 74
2, 6656, Note_off_c, 0, 52, 0
2, 6656, Note_off_c, 0, 55, 0
2, 6656, Note_on_c, 0, 54, 84
2, 6656, Note_on_c, 0, 47, 78
2, 6912, Note_off_c, 0, 54, 0
2, 6912, Note_on_c, 0, 55, 85
2, 7040, Note_off_c, 0, 74, 0
2, 7040, Note_on_c, 0, 71, 92
2, 7168, Note_off_c, 0, 62, 0
2, 7168, Note_off_c, 0, 71, 0
2, 7168, Note_on_c, 0, 71, 99
2, 7168, Note_on_c, 0, 64, 90
2, 7168, Note_off_c, 0, 47, 0
2, 7168, Note_off_c, 0, 55, 0
2, 7168, Note_on_c, 0, 55, 84
2, 7168, Note_on_c, 0, 48, 84
2, 7296, Note_off_c, 0, 71, 0
2, 7296, Note_on_c, 0, 69, 93
2, 7424, Note_off_c, 0, 64, 0
2, 7424, Note_off_c, 0, 69, 0
2, 7424, Note_on_c, 0, 67, 91
2, 7424, Note_on_c, 0, 62, 78
2, 7424, Note_off_c, 0, 48, 0
2, 7424, Note_on_c, 0, 50, 83
2, 7552, Note_off_c, 0, 67, 0
2, 7552, Note_on_c, 0, 66, 91
2, 7680, Note_off_c, 0, 62, 0
2, 7680, Note_off_c, 0, 66, 0
2, 7680, Note_on_c, 0, 67, 100
2, 7680, Note_on_c, 0, 62, 82
2, 7680, Note_off_c, 0, 55, 0
2, 7680, Note_off_c, 0, 50, 0
2, 7680, Note_on_c, 0, 59, 91
2, 7680, Note_on_c, 0, 55, 94
2, 8192, Note_off_c, 0, 67, 0
2, 8192, Note_off_c, 0, 62, 0
2, 8192, Note_on_c, 0, 76, 120
2, 8192, Note_on_c, 0, 64, 87
2, 8192, Note_off_c, 0, 59, 0
2, 8192, Note_off_c, 0, 55, 0
2, 8192, Note_on_c, 0, 60, 87
2, 8192, Note_on_c, 0, 48, 77
2, 8448, Note_off_c, 0, 76, 0
2, 8448, Note_off_c, 0, 64, 0
2, 8448, Note_on_c, 0, 76, 102
2, 8448, Note_on_c, 0, 67, 92
2, 8704, Note_off_c, 0, 76, 0
2, 8704, Note_off_c, 0, 67, 0
2, 8704, Note_on_c, 0, 74, 95
2, 8704, Note_on_c, 0, 67, 87
2, 8704, Note_off_c, 0, 60, 0
2, 8704, Note_off_c, 0, 48, 0
2, 8704, Note_on_c, 0, 59, 83
2, 8704, Note_on_c, 0, 55, 91
2, 9088, Note_off_c, 0, 74, 0
2, 9088, Note_off_c, 0, 67, 0
2, 9088, Note_on_c, 0, 67, 80
2, 9088, Note_on_c, 0, 62, 72
2, 9216, Note_off_c, 0, 67, 0
2, 9216, Note_off_c, 0, 62, 0
2, 9216, Note_on_c, 0, 72, 111
2, 9216, Note_on_c, 0, 64, 87
2, 9216, Note_off_c, 0, 59, 0
2, 9216, Note_off_c, 0, 55, 0
2, 9216, Note_on_c, 0, 57, 77
2, 9216, Note_on_c, 0, 50, 80
2, 9472, Note_off_c, 0, 72, 0
2, 9472, Note_off_c, 0, 64, 0
2, 9472, Note_on_c, 0, 72, 96
2, 9472, Note_on_c, 0, 66, 92
2, 9728, Note_off_c, 0, 72, 0
2, 9728, Note_off_c, 0, 66, 0
2, 9728, Note_on_c, 0, 71, 96
2, 9728, Note_on_c, 0, 62, 73
2, 9728, Note_off_c, 0, 57, 0
2, 9728, Note_off_c, 0, 50, 0
2, 9728, Note_on_c, 0, 59, 87
2, 9728, Note_on_c, 0, 55, 87
2, 10240, Note_off_c, 0, 71, 0
2, 10240, Note_off_c, 0, 62, 0
2, 10240, Note_on_c, 0, 76, 108
2, 10240, Note_on_c, 0, 64, 89
2, 10240, Note_off_c, 0, 59, 0
2, 10240, Note_off_c, 0, 55, 0
2, 10240, Note_on_c, 0, 60, 84
2, 10240, Note_on_c, 0, 48, 78
2, 10496, Note_off_c, 0, 76, 0
2, 10496, Note_off_c, 0, 64, 0
2, 10496, Note_on_c, 0, 76, 100
2, 10496, Note_on_c, 0, 66, 90
2, 10752, Note_off_c, 0, 76, 0
2, 10752, Note_off_c, 0, 66, 0
2, 10752, Note_on_c, 0, 74, 86
2, 10752, Note_on_c, 0, 67, 92
2, 10752, Note_off_c, 0, 60, 0
2, 10752, Note_off_c, 0, 48, 0
2, 10752, Note_on_c, 0, 60, 80
2, 10752, Note_on_c, 0, 50, 86
2, 11008, Note_off_c, 0, 60, 0
2, 11008, Note_on_c, 0, 59, 85
2, 11136, Note_off_c, 0, 74, 0
2, 11136, Note_on_c, 0, 71, 88
2, 11264, Note_off_c, 0, 67, 0
2, 11264, Note_off_c, 0, 71, 0
2, 11264, Note_on_c, 0, 71, 93
2, 11264, Note_on_c, 0, 64, 77
2, 11264, Note_off_c, 0, 50, 0
2, 11264, Note_off_c, 0, 59, 0
2, 11264, Note_on_c, 0, 60, 86
2, 11264, Note_on_c, 0, 48, 83
2, 11392, Note_off_c, 0, 71, 0
2, 11392, Note_on_c, 0, 69, 90
2, 11520, Note_off_c, 0, 69, 0
2, 11520, Note_on_c, 0, 67, 90
2, 11520, Note_off_c, 0, 48, 0
2, 11520, Note_on_c, 0, 50, 84
2, 11648, Note_off_c, 0, 67, 0
2, 11648, Note_on_c, 0, 66, 91
2, 11776, Note_off_c, 0, 64, 0
2, 11776, Note_off_c, 0, 66, 0
2, 11776, Note_on_c, 0, 67, 95
2, 11776, Note_on_c, 0, 62, 83
2, 11776, Note_off_c, 0, 60, 0
2, 11776, Note_off_c, 0, 50, 0
2, 11776, Note_on_c, 0, 59, 83
2, 11776, Note_on_c, 0, 55, 95
2, 12288, Note_off_c, 0, 67, 0
2, 12288, Note_off_c, 0, 62, 0
2, 12288, Note_on_c, 0, 62, 92
2, 12288, Note_off_c, 0, 59, 0
2, 12288, Note_off_c, 0, 55, 0
2, 12288, Note_on_c, 0, 59, 87
2, 12288, Note_on_c, 0, 50, 85
2, 12544, Note_off_c, 0, 62, 0
2, 12544, Note_on_c, 0, 66, 106
2, 12544, Note_on_c, 0, 60, 76
2, 12544, Note_off_c, 0, 59, 0
2, 12544, Note_on_c, 0, 57, 79
2, 12800, Note_off_c, 0, 66, 0
2, 12800, Note_off_c, 0, 60, 0
2, 12800, Note_on_c, 0, 67, 105
2, 12800, Note_on_c, 0, 59, 78
2, 12800, Note_off_c, 0, 50, 0
2, 12800, Note_off_c, 0, 57, 0
2, 12800, Note_on_c, 0, 55, 84
2, 12800, Note_on_c, 0, 52, 89
2, 13184, Note_off_c, 0, 67, 0
2, 13184, Note_on_c, 0, 67, 96
2, 13312, Note_off_c, 0, 59, 0
2, 13312, Note_off_c, 0, 67, 0
2, 13312, Note_on_c, 0, 67, 99
2, 13312, Note_on_c, 0, 62, 89
2, 13312, Note_off_c, 0, 55, 0
2, 13312, Note_off_c, 0, 52, 0
2, 13312, Note_on_c, 0, 59, 88
2, 13312, Note_on_c, 0, 50, 84
2, 13440, Note_off_c, 0, 67, 0
2, 13440, Note_on_c, 0, 66, 92
2, 13568, Note_off_c, 0, 66, 0
2, 13568, Note_on_c, 0, 67, 104
2, 13696, Note_off_c, 0, 67, 0
2, 13696, Note_on_c, 0, 69, 100
2, 13696, Note_off_c, 0, 59, 0
2, 13696, Note_on_c, 0, 60, 88
2, 13824, Note_off_c, 0, 62, 0
2, 13824, Note_off_c, 0, 69, 0
2, 13824, Note_on_c, 0, 69, 96
2, 13824, Note_on_c, 0, 62, 84
2, 13824, Note_off_c, 0, 50, 0
2, 13824, Note_off_c, 0, 60, 0
2, 13824, Note_on_c, 0, 60, 83
2, 13824, Note_on_c, 0, 55, 86
2, 14080, Note_off_c, 0, 69, 0
2, 14080, Note_on_c, 0, 67, 85
2, 14080, Note_off_c, 0, 60, 0
2, 14080, Note_on_c, 0, 59, 85
2, 14336, Note_off_c, 0, 62, 0
2, 14336, Note_off_c, 0, 67, 0
2, 14336, Note_on_c, 0, 67, 98
2, 14336, Note_on_c, 0, 64, 92
2, 14336, Note_off_c, 0, 55, 0
2, 14336, Note_off_c, 0, 59, 0
2, 14336, Note_on_c, 0, 59, 81
2, 14336, Note_on_c, 0, 52, 82
2, 14592, Note_off_c, 0, 67, 0
2, 14592, Note_on_c, 0, 71, 106
2, 14592, Note_off_c, 0, 59, 0
2, 14592, Note_on_c, 0, 55, 78
2, 14848, Note_off_c, 0, 64, 0
2, 14848, Note_off_c, 0, 71, 0
2, 14848, Note_on_c, 0, 74, 106
2, 14848, Note_on_c, 0, 62, 76
2, 14848, Note_off_c, 0, 52, 0
2, 14848, Note_off_c, 0, 55, 0
2, 14848, Note_on_c, 0, 54, 80
2, 14848, Note_on_c, 0, 47, 80
2, 15104, Note_off_c, 0, 54, 0
2, 15104, Note_on_c, 0, 55, 83
2, 15232, Note_off_c, 0, 74, 0
2, 15232, Note_on_c, 0, 71, 94
2, 15360, Note_off_c, 0, 62, 0
2, 15360, Note_off_c, 0, 71, 0
2, 15360, Note_on_c, 0, 71, 98
2, 15360, Note_on_c, 0, 64, 88
2, 15360, Note_off_c, 0, 47, 0
2, 15360, Note_off_c, 0, 55, 0
2, 15360, Note_on_c, 0, 60, 95
2, 15360, Note_on_c, 0, 48, 81
2, 15488, Note_off_c, 0, 71, 0
2, 15488, Note_on_c, 0, 69, 93
2, 15616, Note_off_c, 0, 69, 0
2, 15616, Note_on_c, 0, 67, 93
2, 15616, Note_off_c, 0, 48, 0
2, 15616, Note_on_c, 0, 50, 87
2, 15744, Note_off_c, 0, 67, 0
2, 15744, Note_on_c, 0, 66, 89
2, 15872, Note_off_c, 0, 64, 0
2, 15872, Note_off_c, 0, 66, 0
2, 15872, Note_on_c, 0, 67, 104
2, 15872, Note_on_c, 0, 62, 82
2, 15872, Note_off_c, 0, 60, 0
2, 15872, Note_off_c, 0, 50, 0
2, 15872, Note_on_c, 0, 59, 86
2, 15872, Note_on_c, 0, 55, 90
2, 16384, Note_off_c, 0, 67, 0
2, 16384, Note_off_c, 0, 62, 0
2, 16384, Note_on_c, 0, 62, 84
2, 16384, Note_off_c, 0, 59, 0
2, 16384, Note_off_c, 0, 55, 0
2, 16384, Note_on_c, 0, 59, 83
2, 16384, Note_on_c, 0, 50, 82
2, 16640, Note_off_c, 0, 62, 0
2, 16640, Note_on_c, 0, 66, 106
2, 16640, Note_on_c, 0, 60, 77
2, 16640, Note_off_c, 0, 59, 0
2, 16640, Note_on_c, 0, 57, 75
2, 16896, Note_off_c, 0, 66, 0
2, 16896, Note_off_c, 0, 60, 0
2, 16896, Note_on_c, 0, 67, 101
2, 16896, Note_on_c, 0, 62, 90
2, 16896, Note_off_c, 0, 50, 0
2, 16896, Note_off_c, 0, 57, 0
2, 16896, Note_on_c, 0, 55, 82
2, 16896, Note_on_c, 0, 47, 78
2, 17280, Note_off_c, 0, 67, 0
2, 17280, Note_on_c, 0, 67, 97
2, 17408, Note_off_c, 0, 62, 0
2, 17408, Note_off_c, 0, 67, 0
2, 17408, Note_on_c, 0, 67, 101
2, 17408, Note_on_c, 0, 61, 82
2, 17408, Note_off_c, 0, 55, 0
2, 17408, Note_off_c, 0, 47, 0
2, 17408, Note_on_c, 0, 55, 83
2, 17408, Note_on_c, 0, 52, 84
2, 17536, Note_off_c, 0, 67, 0
2, 17536, Note_on_c, 0, 66, 93
2, 17664, Note_off_c, 0, 66, 0
2, 17664, Note_on_c, 0, 67, 104
2, 17792, Note_off_c, 0, 67, 0
2, 17792, Note_on_c, 0, 69, 105
2, 17920, Note_off_c, 0, 61, 0
2, 17920, Note_off_c, 0, 69, 0
2, 17920, Note_on_c, 0, 69, 98
2, 17920, Note_on_c, 0, 62, 87
2, 17920, Note_off_c, 0, 55, 0
2, 17920, Note_off_c, 0, 52, 0
2, 17920, Note_on_c, 0, 60, 94
2, 17920, Note_on_c, 0, 50, 86
2, 18176, Note_off_c, 0, 69, 0
2, 18176, Note_on_c, 0, 67, 92
2, 18176, Note_off_c, 0, 60, 0
2, 18176, Note_off_c, 0, 50, 0
2, 18176, Note_on_c, 0, 59, 82
2, 18176, Note_on_c, 0, 55, 87
2, 18432, Note_off_c, 0, 62, 0
2, 18432, Note_off_c, 0, 67, 0
2, 18432, Note_on_c, 0, 67, 93
2, 18432, Note_on_c, 0, 64, 92
2, 18432, Note_off_c, 0, 59, 0
2, 18432, Note_off_c, 0, 55, 0
2, 18432, Note_on_c, 0, 59, 85
2, 18432, Note_on_c, 0, 52, 82
2, 18688, Note_off_c, 0, 67, 0
2, 18688, Note_on_c, 0, 71, 108
2, 18688, Note_off_c, 0, 59, 0
2, 18688, Note_on_c, 0, 55, 80
2, 18944, Note_off_c, 0, 64, 0
2, 18944, Note_off_c, 0, 71, 0
2, 18944, Note_on_c, 0, 74, 106
2, 18944, Note_on_c, 0, 62, 82
2, 18944, Note_off_c, 0, 52, 0
2, 18944, Note_off_c, 0, 55, 0
2, 18944, Note_on_c, 0, 54, 81
2, 18944, Note_on_c, 0, 47, 79
2, 19200, Note_off_c, 0, 54, 0
2, 19200, Note_on_c, 0, 55, 86
2, 19328, Note_off_c, 0, 74, 0
2, 19328, Note_on_c, 0, 71, 93
2, 19456, Note_off_c, 0, 62, 0
2, 19456, Note_off_c, 0, 71, 0
2, 19456, Note_on_c, 0, 71, 95
2, 19456, Note_on_c, 0, 64, 87
2, 19456, Note_off_c, 0, 47, 0
2, 19456, Note_off_c, 0, 55, 0
2, 19456, Note_on_c, 0, 55, 79
2, 19456, Note_on_c, 0, 48, 86
2, 19584, Note_off_c, 0, 71, 0
2, 19584, Note_on_c, 0, 69, 90
2, 19712, Note_off_c, 0, 64, 0
2, 19712, Note_off_c, 0, 69, 0
2, 19712, Note_on_c, 0, 67, 94
2, 19712, Note_on_c, 0, 62, 79
2, 19712, Note_off_c, 0, 48, 0
2, 19712, Note_on_c, 0, 50, 87
2, 19840, Note_off_c, 0, 67, 0
2, 19840, Note_on_c, 0, 66, 91
2, 19968, Note_off_c, 0, 62, 0
2, 19968, Note_off_c, 0, 66, 0
2, 19968, Note_on_c, 0, 67, 104
2, 19968, Note_on_c, 0, 62, 80
2, 19968, Note_off_c, 0, 55, 0
2, 19968, Note_off_c, 0, 50, 0
2, 19968, Note_on_c, 0, 59, 87
2, 19968, Note_on_c, 0, 55, 87
2, 20480, Note_off_c, 0, 67, 0
2, 20480, Note_off_c, 0, 62, 0
2, 20480, Note_on_c, 0, 76, 121
2, 20480, Note_on_c, 0, 64, 89
2, 20480, Note_off_c, 0, 59, 0
2, 20480, Note_off_c, 0, 55, 0
2, 20480, Note_on_c, 0, 60, 86
2, 20480, Note_on_c, 0, 48, 76
2, 20736, Note_off_c, 0, 76, 0
2, 20736, Note_off_c, 0, 64, 0
2, 20736, Note_on_c, 0, 76, 103
2, 20736, Note_on_c, 0, 67, 90
2, 20992, Note_off_c, 0, 76, 0
2, 20992, Note_off_c, 0, 67, 0
2, 20992, Note_on_c, 0, 74, 91
2, 20992, Note_on_c, 0, 67, 85
2, 20992, Note_off_c, 0, 60, 0
2, 20992, Note_off_c, 0, 48, 0
2, 20992, Note_on_c, 0, 59, 81
2, 20992, Note_on_c, 0, 55, 92
2, 21376, Note_off_c, 0, 74, 0
2, 21376, Note_off_c, 0, 67, 0
2, 21376, Note_on_c, 0, 67, 84
2, 21376, Note_on_c, 0, 62, 74
2, 21504, Note_off_c, 0, 67, 0
2, 21504, Note_off_c, 0, 62, 0
2, 21504, Note_on_c, 0, 72, 110
2, 21504, Note_on_c, 0, 64, 84
2, 21504, Note_off_c, 0, 59, 0
2, 21504, Note_off_c, 0, 55, 0
2, 21504, Note_on_c, 0, 57, 80
2, 21504, Note_on_c, 0, 50, 77
2, 21760, Note_off_c, 0, 72, 0
2, 21760, Note_off_c, 0, 64, 0
2, 21760, Note_on_c, 0, 72, 97
2, 21760, Note_on_c, 0, 66, 91
2, 22016, Note_off_c, 0, 72, 0
2, 22016, Note_off_c, 0, 66, 0
2, 22016, Note_on_c, 0, 71, 94
2, 22016, Note_on_c, 0, 62, 73
2, 22016, Note_off_c, 0, 57, 0
2, 22016, Note_off_c, 0, 50, 0
2, 22016, Note_on_c, 0, 59, 86
2, 22016, Note_on_c, 0, 55, 85
2, 22528, Note_off_c, 0, 71, 0
2, 22528, Note_off_c, 0, 62, 0
2, 22528, Note_on_c, 0, 76, 112
2, 22528, Note_on_c, 0, 64, 86
2, 22528, Note_off_c, 0, 59, 0
2, 22528, Note_off_c, 0, 55, 0
2, 22528, Note_on_c, 0, 60, 90
2, 22528, Note_on_c, 0, 48, 79
2, 22784, Note_off_c, 0, 76, 0
2, 22784, Note_off_c, 0, 64, 0
2, 22784, Note_on_c, 0, 76, 98
2, 22784, Note_on_c, 0, 66, 86
2, 23040, Note_off_c, 0, 76, 0
2, 23040, Note_off_c, 0, 66, 0
2, 23040, Note_on_c, 0, 74, 90
2, 23040, Note_on_c, 0, 67, 88
2, 23040, Note_off_c, 0, 60, 0
2, 23040, Note_off_c, 0, 48, 0
2, 23040, Note_on_c, 0, 60, 86
2, 23040, Note_on_c, 0, 50, 86
2, 23296, Note_off_c, 0, 60, 0
2, 23296, Note_on_c, 0, 59, 80
2, 23424, Note_off_c, 0, 74, 0
2, 23424, Note_on_c, 0, 71, 91
2, 23552, Note_off_c, 0, 67, 0
2, 23552, Note_off_c, 0, 71, 0
2, 23552, Note_on_c, 0, 71, 102
2, 23552, Note_on_c, 0, 64, 78
2, 23552, Note_off_c, 0, 50, 0
2, 23552, Note_off_c, 0, 59, 0
2, 23552, Note_on_c, 0, 60, 90
2, 23552, Note_on_c, 0, 48, 81
2, 23680, Note_off_c, 0, 71, 0
2, 23680, Note_on_c, 0, 69, 91
2, 23808, Note_off_c, 0, 69, 0
2, 23808, Note_on_c, 0, 67, 87
2, 23808, Note_off_c, 0, 48, 0
2, 23808, Note_on_c, 0, 50, 87
2, 23936, Note_off_c, 0, 67, 0
2, 23936, Note_on_c, 0, 66, 93
2, 24064, Note_off_c, 0, 64, 0
2, 24064, Note_off_c, 0, 66, 0
2, 24064, Note_on_c, 0, 67, 104
2, 24064, Note_on_c, 0, 62, 73
2, 24064, Note_off_c, 0, 60, 0
2, 24064, Note_off_c, 0, 50, 0
2, 24064, Note_on_c, 0, 59, 86
2, 24064, Note_on_c, 0, 55, 93
2, 24576, Note_off_c, 0, 67, 0
2, 24576, Note_off_c, 0, 62, 0
2, 24576, Note_off_c, 0, 59, 0
2, 24576, Note_off_c, 0, 55, 0
2, 24577, End_track
0, 0, End_of_file
