0, 0, Header, 1, 2, 256
1, 0, Start_track
1, 0, Time_signature, 6, 3, 36, 8
1, 0, Key_signature, 0, "major"
1, 0, Tempo, 1250000
1, 0, Title_t, "Silent Night"
1, 0, Text_t, "Franz Gruber"
1, 7296, Tempo, 1290322
1, 7872, Tempo, 1333332
1, 8256, Tempo, 1379309
1, 8447, Tempo, 1538460
1, 9216, Tempo, 1538460
1, 9216, Tempo, 1250000
1, 16512, Tempo, 1290322
1, 17088, Tempo, 1333332
1, 17472, Tempo, 1379309
1, 17663, Tempo, 1538460
1, 17664, End_track
2, 0, Start_track
2, 0, Program_c, 0, 19
2, 0, Control_c, 0, 121, 0
2, 0, Control_c, 0, 64, 0
2, 0, Control_c, 0, 91, 48
2, 0, Control_c, 0, 10, 76
2, 0, Control_c, 0, 7, 105
2, 0, Note_on_c, 0, 64, 41
2, 0, Note_on_c, 0, 67, 41
2, 0, Control_c, 0, 121, 0
2, 0, Control_c, 0, 64, 0
2, 0, Control_c, 0, 91, 52
2, 0, Control_c, 0, 10, 51
2, 0, Control_c, 0, 7, 105
2, 0, Title_t, "Organ manuals"
2, 0, Note_on_c, 0, 60, 43
2, 0, Note_on_c, 0, 48, 45
2, 192, Note_off_c, 0, 64, 0
2, 192, Note_off_c, 0, 67, 0
2, 192, Note_on_c, 0, 65, 49
2, 192, Note_on_c, 0, 69, 49
2, 256, Note_off_c, 0, 65, 0
2, 256, Note_off_c, 0, 69, 0
2, 256, Note_on_c, 0, 64, 48
2, 256, Note_on_c, 0, 67, 48
2, 256, Note_off_c, 0, 60, 0
2, 256, Note_on_c, 0, 60, 49
2, 384, Note_off_c, 0, 64, 0
2, 384, Note_off_c, 0, 67, 0
2, 384, Note_on_c, 0, 60, 46
2, 384, Note_on_c, 0, 64, 46
2, 384, Note_off_c, 0, 48, 0
2, 384, Note_off_c, 0, 60, 0
2, 384, Note_on_c, 0, 55, 47
2, 384, Note_on_c, 0, 48, 48
2, 576, Note_off_c, 0, 55, 0
2, 576, Note_on_c, 0, 57, 50
2, 640, Note_off_c, 0, 57, 0
2, 640, Note_on_c, 0, 55, 47
2, 768, Note_off_c, 0, 60, 0
2, 768, Note_off_c, 0, 64, 0
2, 768, Note_on_c, 0, 64, 51
2, 768, Note_on_c, 0, 67, 51
2, 768, Note_off_c, 0, 48, 0
2, 768, Note_off_c, 0, 55, 0
2, 768, Note_on_c, 0, 60, 50
2, 768, Note_on_c, 0, 48, 50
2, 960, Note_off_c, 0, 64, 0
2, 960, Note_off_c, 0, 67, 0
2, 960, Note_on_c, 0, 65, 50
2, 960, Note_on_c, 0, 69, 50
2, 1024, Note_off_c, 0, 65, 0
2, 1024, Note_off_c, 0, 69, 0
2, 1024, Note_on_c, 0, 64, 45
2, 1024, Note_on_c, 0, 67, 45
2, 1024, Note_off_c, 0, 60, 0
2, 1024, Note_on_c, 0, 60, 50
2, 1152, Note_off_c, 0, 64, 0
2, 1152, Note_off_c, 0, 67, 0
2, 1152, Note_on_c, 0, 60, 46
2, 1152, Note_on_c, 0, 64, 46
2, 1152, Note_off_c, 0, 48, 0
2, 1152, Note_off_c, 0, 60, 0
2, 1152, Note_on_c, 0, 55, 46
2, 1152, Note_on_c, 0, 48, 47
2, 1344, Note_off_c, 0, 55, 0
2, 1344, Note_on_c, 0, 57, 50
2, 1408, Note_off_c, 0, 57, 0
2, 1408, Note_on_c, 0, 55, 48
2, 1536, Note_off_c, 0, 60, 0
2, 1536, Note_off_c, 0, 64, 0
2, 1536, Note_on_c, 0, 65, 56
2, 1536, Note_on_c, 0, 74, 56
2, 1536, Note_off_c, 0, 48, 0
2, 1536, Note_off_c, 0, 55, 0
2, 1536, Note_on_c, 0, 59, 50
2, 1536, Note_on_c, 0, 55, 47
2, 1792, Note_off_c, 0, 65, 0
2, 1792, Note_off_c, 0, 74, 0
2, 1792, Note_on_c, 0, 65, 48
2, 1792, Note_on_c, 0, 74, 48
2, 1792, Note_off_c, 0, 59, 0
2, 1792, Note_on_c, 0, 59, 50
2, 1920, Note_off_c, 0, 65, 0
2, 1920, Note_off_c, 0, 74, 0
2, 1920, Note_on_c, 0, 65, 47
2, 1920, Note_on_c, 0, 71, 47
2, 1920, Note_off_c, 0, 55, 0
2, 1920, Note_off_c, 0, 59, 0
2, 1920, Note_on_c, 0, 62, 50
2, 1920, Note_on_c, 0, 55, 47
2, 2112, Note_off_c, 0, 62, 0
2, 2112, Note_on_c, 0, 64, 50
2, 2176, Note_off_c, 0, 64, 0
2, 2176, Note_on_c, 0, 62, 46
2, 2304, Note_off_c, 0, 65, 0
2, 2304, Note_off_c, 0, 71, 0
2, 2304, Note_on_c, 0, 64, 51
2, 2304, Note_on_c, 0, 72, 51
2, 2304, Note_off_c, 0, 55, 0
2, 2304, Note_off_c, 0, 62, 0
2, 2304, Note_on_c, 0, 60, 46
2, 2304, Note_on_c, 0, 55, 47
2, 2560, Note_off_c, 0, 64, 0
2, 2560, Note_off_c, 0, 72, 0
2, 2560, Note_on_c, 0, 64, 48
2, 2560, Note_on_c, 0, 72, 48
2, 2560, Note_off_c, 0, 60, 0
2, 2560, Note_on_c, 0, 60, 45
2, 2688, Note_off_c, 0, 64, 0
2, 2688, Note_off_c, 0, 72, 0
2, 2688, Note_on_c, 0, 67, 46
2, 2688, Note_on_c, 0, 64, 40
2, 2688, Note_off_c, 0, 55, 0
2, 2688, Note_off_c, 0, 60, 0
2, 2688, Note_on_c, 0, 55, 49
2, 2688, Note_on_c, 0, 48, 50
2, 2880, Note_off_c, 0, 64, 0
2, 2880, Note_on_c, 0, 62, 45
2, 2944, Note_off_c, 0, 62, 0
2, 2944, Note_on_c, 0, 60, 47
2, 3072, Note_off_c, 0, 67, 0
2, 3072, Note_off_c, 0, 60, 0
2, 3072, Note_on_c, 0, 65, 47
2, 3072, Note_on_c, 0, 69, 47
2, 3072, Note_off_c, 0, 55, 0
2, 3072, Note_off_c, 0, 48, 0
2, 3072, Note_on_c, 0, 53, 51
2, 3072, Note_on_c, 0, 60, 51
2, 3328, Note_off_c, 0, 65, 0
2, 3328, Note_off_c, 0, 69, 0
2, 3328, Note_on_c, 0, 65, 50
2, 3328, Note_on_c, 0, 69, 50
2, 3328, Note_off_c, 0, 53, 0
2, 3328, Note_off_c, 0, 60, 0
2, 3328, Note_on_c, 0, 53, 47
2, 3328, Note_on_c, 0, 57, 47
2, 3456, Note_off_c, 0, 65, 0
2, 3456, Note_off_c, 0, 69, 0
2, 3456, Note_on_c, 0, 69, 50
2, 3456, Note_on_c, 0, 72, 50
2, 3456, Note_off_c, 0, 53, 0
2, 3456, Note_off_c, 0, 57, 0
2, 3456, Note_on_c, 0, 53, 50
2, 3456, Note_on_c, 0, 60, 50
2, 3648, Note_off_c, 0, 69, 0
2, 3648, Note_off_c, 0, 72, 0
2, 3648, Note_on_c, 0, 67, 48
2, 3648, Note_on_c, 0, 71, 48
2, 3712, Note_off_c, 0, 67, 0
2, 3712, Note_off_c, 0, 71, 0
2, 3712, Note_on_c, 0, 65, 47
2, 3712, Note_on_c, 0, 69, 47
2, 3840, Note_off_c, 0, 65, 0
2, 3840, Note_off_c, 0, 69, 0
2, 3840, Note_on_c, 0, 64, 45
2, 3840, Note_on_c, 0, 67, 45
2, 3840, Note_off_c, 0, 53, 0
2, 3840, Note_off_c, 0, 60, 0
2, 3840, Note_on_c, 0, 60, 47
2, 3840, Note_on_c, 0, 52, 48
2, 4032, Note_off_c, 0, 64, 0
2, 4032, Note_off_c, 0, 67, 0
2, 4032, Note_on_c, 0, 65, 51
2, 4032, Note_on_c, 0, 69, 51
2, 4096, Note_off_c, 0, 65, 0
2, 4096, Note_off_c, 0, 69, 0
2, 4096, Note_on_c, 0, 64, 49
2, 4096, Note_on_c, 0, 67, 49
2, 4096, Note_off_c, 0, 60, 0
2, 4096, Note_on_c, 0, 60, 49
2, 4224, Note_off_c, 0, 64, 0
2, 4224, Note_off_c, 0, 67, 0
2, 4224, Note_on_c, 0, 60, 47
2, 4224, Note_on_c, 0, 64, 47
2, 4224, Note_off_c, 0, 52, 0
2, 4224, Note_off_c, 0, 60, 0
2, 4224, Note_on_c, 0, 55, 46
2, 4224, Note_on_c, 0, 48, 46
2, 4416, Note_off_c, 0, 55, 0
2, 4416, Note_on_c, 0, 57, 50
2, 4480, Note_off_c, 0, 57, 0
2, 4480, Note_on_c, 0, 55, 46
2, 4608, Note_off_c, 0, 60, 0
2, 4608, Note_off_c, 0, 64, 0
2, 4608, Note_on_c, 0, 65, 49
2, 4608, Note_on_c, 0, 69, 49
2, 4608, Note_off_c, 0, 48, 0
2, 4608, Note_off_c, 0, 55, 0
2, 4608, Note_on_c, 0, 53, 50
2, 4608, Note_on_c, 0, 60, 50
2, 4864, Note_off_c, 0, 65, 0
2, 4864, Note_off_c, 0, 69, 0
2, 4864, Note_on_c, 0, 65, 50
2, 4864, Note_on_c, 0, 69, 50
2, 4864, Note_off_c, 0, 53, 0
2, 4864, Note_off_c, 0, 60, 0
2, 4864, Note_on_c, 0, 53, 47
2, 4864, Note_on_c, 0, 57, 47
2, 4992, Note_off_c, 0, 65, 0
2, 4992, Note_off_c, 0, 69, 0
2, 4992, Note_on_c, 0, 69, 48
2, 4992, Note_on_c, 0, 72, 48
2, 4992, Note_off_c, 0, 53, 0
2, 4992, Note_off_c, 0, 57, 0
2, 4992, Note_on_c, 0, 53, 47
2, 4992, Note_on_c, 0, 60, 47
2, 5184, Note_off_c, 0, 69, 0
2, 5184, Note_off_c, 0, 72, 0
2, 5184, Note_on_c, 0, 67, 48
2, 5184, Note_on_c, 0, 71, 48
2, 5248, Note_off_c, 0, 67, 0
2, 5248, Note_off_c, 0, 71, 0
2, 5248, Note_on_c, 0, 65, 47
2, 5248, Note_on_c, 0, 69, 47
2, 5376, Note_off_c, 0, 65, 0
2, 5376, Note_off_c, 0, 69, 0
2, 5376, Note_on_c, 0, 64, 47
2, 5376, Note_on_c, 0, 67, 47
2, 5376, Note_off_c, 0, 53, 0
2, 5376, Note_off_c, 0, 60, 0
2, 5376, Note_on_c, 0, 60, 49
2, 5376, Note_on_c, 0, 52, 51
2, 5568, Note_off_c, 0, 64, 0
2, 5568, Note_off_c, 0, 67, 0
2, 5568, Note_on_c, 0, 65, 51
2, 5568, Note_on_c, 0, 69, 51
2, 5632, Note_off_c, 0, 65, 0
2, 5632, Note_off_c, 0, 69, 0
2, 5632, Note_on_c, 0, 64, 47
2, 5632, Note_on_c, 0, 67, 47
2, 5632, Note_off_c, 0, 60, 0
2, 5632, Note_on_c, 0, 60, 47
2, 5760, Note_off_c, 0, 64, 0
2, 5760, Note_off_c, 0, 67, 0
2, 5760, Note_on_c, 0, 60, 47
2, 5760, Note_on_c, 0, 64, 47
2, 5760, Note_off_c, 0, 52, 0
2, 5760, Note_off_c, 0, 60, 0
2, 5760, Note_on_c, 0, 55, 46
2, 5760, Note_on_c, 0, 48, 45
2, 5952, Note_off_c, 0, 55, 0
2, 5952, Note_on_c, 0, 57, 51
2, 6016, Note_off_c, 0, 57, 0
2, 6016, Note_on_c, 0, 55, 48
2, 6144, Note_off_c, 0, 60, 0
2, 6144, Note_off_c, 0, 64, 0
2, 6144, Note_on_c, 0, 65, 55
2, 6144, Note_on_c, 0, 74, 55
2, 6144, Note_off_c, 0, 48, 0
2, 6144, Note_off_c, 0, 55, 0
2, 6144, Note_on_c, 0, 55, 49
2, 6144, Note_on_c, 0, 59, 49
2, 6400, Note_off_c, 0, 65, 0
2, 6400, Note_off_c, 0, 74, 0
2, 6400, Note_on_c, 0, 65, 48
2, 6400, Note_on_c, 0, 74, 48
2, 6400, Note_off_c, 0, 55, 0
2, 6400, Note_off_c, 0, 59, 0
2, 6400, Note_on_c, 0, 55, 49
2, 6400, Note_on_c, 0, 59, 49
2, 6528, Note_off_c, 0, 65, 0
2, 6528, Note_off_c, 0, 74, 0
2, 6528, Note_on_c, 0, 69, 50
2, 6528, Note_on_c, 0, 77, 50
2, 6528, Note_off_c, 0, 55, 0
2, 6528, Note_off_c, 0, 59, 0
2, 6528, Note_on_c, 0, 62, 51
2, 6528, Note_on_c, 0, 50, 47
2, 6720, Note_off_c, 0, 69, 0
2, 6720, Note_off_c, 0, 77, 0
2, 6720, Note_on_c, 0, 65, 46
2, 6720, Note_on_c, 0, 74, 46
2, 6784, Note_off_c, 0, 65, 0
2, 6784, Note_off_c, 0, 74, 0
2, 6784, Note_on_c, 0, 67, 45
2, 6784, Note_on_c, 0, 71, 45
2, 6784, Note_off_c, 0, 50, 0
2, 6784, Note_on_c, 0, 55, 51
2, 6912, Note_off_c, 0, 67, 0
2, 6912, Note_off_c, 0, 71, 0
2, 6912, Note_on_c, 0, 64, 49
2, 6912, Note_on_c, 0, 72, 49
2, 6912, Note_off_c, 0, 62, 0
2, 6912, Note_off_c, 0, 55, 0
2, 6912, Note_on_c, 0, 60, 48
2, 6912, Note_on_c, 0, 52, 47
2, 7104, Note_off_c, 0, 52, 0
2, 7104, Note_on_c, 0, 53, 48
2, 7168, Note_off_c, 0, 53, 0
2, 7168, Note_on_c, 0, 52, 47
2, 7296, Note_off_c, 0, 64, 0
2, 7296, Note_off_c, 0, 72, 0
2, 7296, Note_on_c, 0, 67, 52
2, 7296, Note_on_c, 0, 76, 52
2, 7296, Note_off_c, 0, 60, 0
2, 7296, Note_off_c, 0, 52, 0
2, 7296, Note_on_c, 0, 60, 47
2, 7296, Note_on_c, 0, 48, 48
2, 7680, Note_off_c, 0, 67, 0
2, 7680, Note_off_c, 0, 76, 0
2, 7680, Note_on_c, 0, 64, 47
2, 7680, Note_on_c, 0, 72, 47
2, 7680, Note_off_c, 0, 60, 0
2, 7680, Note_off_c, 0, 48, 0
2, 7680, Note_on_c, 0, 52, 46
2, 7680, Note_on_c, 0, 55, 46
2, 7872, Note_off_c, 0, 64, 0
2, 7872, Note_off_c, 0, 72, 0
2, 7872, Note_on_c, 0, 64, 45
2, 7872, Note_on_c, 0, 67, 45
2, 7936, Note_off_c, 0, 64, 0
2, 7936, Note_off_c, 0, 67, 0
2, 7936, Note_on_c, 0, 60, 45
2, 7936, Note_on_c, 0, 64, 45
2, 7936, Note_off_c, 0, 52, 0
2, 7936, Note_off_c, 0, 55, 0
2, 7936, Note_on_c, 0, 48, 50
2, 7936, Note_on_c, 0, 55, 50
2, 8064, Note_off_c, 0, 60, 0
2, 8064, Note_off_c, 0, 64, 0
2, 8064, Note_on_c, 0, 59, 51
2, 8064, Note_on_c, 0, 67, 51
2, 8064, Note_off_c, 0, 48, 0
2, 8064, Note_off_c, 0, 55, 0
2, 8064, Note_on_c, 0, 43, 48
2, 8064, Note_on_c, 0, 53, 48
2, 8256, Note_off_c, 0, 59, 0
2, 8256, Note_off_c, 0, 67, 0
2, 8256, Note_on_c, 0, 57, 45
2, 8256, Note_on_c, 0, 65, 45
2, 8320, Note_off_c, 0, 57, 0
2, 8320, Note_off_c, 0, 65, 0
2, 8320, Note_on_c, 0, 59, 46
2, 8320, Note_on_c, 0, 62, 46
2, 8320, Note_off_c, 0, 43, 0
2, 8320, Note_off_c, 0, 53, 0
2, 8320, Note_on_c, 0, 43, 48
2, 8320, Note_on_c, 0, 50, 48
2, 8448, Note_off_c, 0, 59, 0
2, 8448, Note_off_c, 0, 62, 0
2, 8448, Note_on_c, 0, 55, 46
2, 8448, Note_on_c, 0, 60, 46
2, 8448, Note_off_c, 0, 43, 0
2, 8448, Note_off_c, 0, 50, 0
2, 8448, Note_on_c, 0, 48, 50
2, 8448, Note_on_c, 0, 52, 50
2, 9216, Note_off_c, 0, 55, 0
2, 9216, Note_off_c, 0, 60, 0
2, 9216, Note_on_c, 0, 64, 53
2, 9216, Note_on_c, 0, 67, 53
2, 9216, Note_off_c, 0, 48, 0
2, 9216, Note_off_c, 0, 52, 0
2, 9216, Note_on_c, 0, 60, 53
2, 9216, Note_on_c, 0, 48, 48
2, 9408, Note_off_c, 0, 64, 0
2, 9408, Note_off_c, 0, 67, 0
2, 9408, Note_on_c, 0, 65, 50
2, 9408, Note_on_c, 0, 69, 50
2, 9472, Note_off_c, 0, 65, 0
2, 9472, Note_off_c, 0, 69, 0
2, 9472, Note_on_c, 0, 64, 48
2, 9472, Note_on_c, 0, 67, 48
2, 9472, Note_off_c, 0, 60, 0
2, 9472, Note_on_c, 0, 60, 48
2, 9600, Note_off_c, 0, 64, 0
2, 9600, Note_off_c, 0, 67, 0
2, 9600, Note_on_c, 0, 60, 45
2, 9600, Note_on_c, 0, 64, 45
2, 9600, Note_off_c, 0, 48, 0
2, 9600, Note_off_c, 0, 60, 0
2, 9600, Note_on_c, 0, 55, 47
2, 9600, Note_on_c, 0, 48, 46
2, 9792, Note_off_c, 0, 55, 0
2, 9792, Note_on_c, 0, 57, 50
2, 9856, Note_off_c, 0, 57, 0
2, 9856, Note_on_c, 0, 55, 47
2, 9984, Note_off_c, 0, 60, 0
2, 9984, Note_off_c, 0, 64, 0
2, 9984, Note_on_c, 0, 64, 51
2, 9984, Note_on_c, 0, 67, 51
2, 9984, Note_off_c, 0, 48, 0
2, 9984, Note_off_c, 0, 55, 0
2, 9984, Note_on_c, 0, 60, 50
2, 9984, Note_on_c, 0, 48, 50
2, 10176, Note_off_c, 0, 64, 0
2, 10176, Note_off_c, 0, 67, 0
2, 10176, Note_on_c, 0, 65, 51
2, 10176, Note_on_c, 0, 69, 51
2, 10240, Note_off_c, 0, 65, 0
2, 10240, Note_off_c, 0, 69, 0
2, 10240, Note_on_c, 0, 64, 46
2, 10240, Note_on_c, 0, 67, 46
2, 10240, Note_off_c, 0, 60, 0
2, 10240, Note_on_c, 0, 60, 50
2, 10368, Note_off_c, 0, 64, 0
2, 10368, Note_off_c, 0, 67, 0
2, 10368, Note_on_c, 0, 60, 47
2, 10368, Note_on_c, 0, 64, 47
2, 10368, Note_off_c, 0, 48, 0
2, 10368, Note_off_c, 0, 60, 0
2, 10368, Note_on_c, 0, 55, 46
2, 10368, Note_on_c, 0, 48, 48
2, 10560, Note_off_c, 0, 55, 0
2, 10560, Note_on_c, 0, 57, 48
2, 10624, Note_off_c, 0, 57, 0
2, 10624, Note_on_c, 0, 55, 49
2, 10752, Note_off_c, 0, 60, 0
2, 10752, Note_off_c, 0, 64, 0
2, 10752, Note_on_c, 0, 65, 54
2, 10752, Note_on_c, 0, 74, 54
2, 10752, Note_off_c, 0, 48, 0
2, 10752, Note_off_c, 0, 55, 0
2, 10752, Note_on_c, 0, 59, 49
2, 10752, Note_on_c, 0, 55, 49
2, 11008, Note_off_c, 0, 65, 0
2, 11008, Note_off_c, 0, 74, 0
2, 11008, Note_on_c, 0, 65, 48
2, 11008, Note_on_c, 0, 74, 48
2, 11008, Note_off_c, 0, 59, 0
2, 11008, Note_on_c, 0, 59, 50
2, 11136, Note_off_c, 0, 65, 0
2, 11136, Note_off_c, 0, 74, 0
2, 11136, Note_on_c, 0, 65, 44
2, 11136, Note_on_c, 0, 71, 44
2, 11136, Note_off_c, 0, 55, 0
2, 11136, Note_off_c, 0, 59, 0
2, 11136, Note_on_c, 0, 62, 49
2, 11136, Note_on_c, 0, 55, 49
2, 11328, Note_off_c, 0, 62, 0
2, 11328, Note_on_c, 0, 64, 50
2, 11392, Note_off_c, 0, 64, 0
2, 11392, Note_on_c, 0, 62, 48
2, 11520, Note_off_c, 0, 65, 0
2, 11520, Note_off_c, 0, 71, 0
2, 11520, Note_on_c, 0, 64, 51
2, 11520, Note_on_c, 0, 72, 51
2, 11520, Note_off_c, 0, 55, 0
2, 11520, Note_off_c, 0, 62, 0
2, 11520, Note_on_c, 0, 60, 46
2, 11520, Note_on_c, 0, 55, 48
2, 11776, Note_off_c, 0, 64, 0
2, 11776, Note_off_c, 0, 72, 0
2, 11776, Note_on_c, 0, 64, 49
2, 11776, Note_on_c, 0, 72, 49
2, 11776, Note_off_c, 0, 60, 0
2, 11776, Note_on_c, 0, 60, 48
2, 11904, Note_off_c, 0, 64, 0
2, 11904, Note_off_c, 0, 72, 0
2, 11904, Note_on_c, 0, 67, 45
2, 11904, Note_on_c, 0, 64, 51
2, 11904, Note_off_c, 0, 55, 0
2, 11904, Note_off_c, 0, 60, 0
2, 11904, Note_on_c, 0, 55, 49
2, 11904, Note_on_c, 0, 48, 47
2, 12096, Note_off_c, 0, 64, 0
2, 12096, Note_on_c, 0, 62, 47
2, 12160, Note_off_c, 0, 62, 0
2, 12160, Note_on_c, 0, 60, 44
2, 12288, Note_off_c, 0, 67, 0
2, 12288, Note_off_c, 0, 60, 0
2, 12288, Note_on_c, 0, 65, 50
2, 12288, Note_on_c, 0, 69, 50
2, 12288, Note_off_c, 0, 55, 0
2, 12288, Note_off_c, 0, 48, 0
2, 12288, Note_on_c, 0, 53, 52
2, 12288, Note_on_c, 0, 60, 52
2, 12544, Note_off_c, 0, 65, 0
2, 12544, Note_off_c, 0, 69, 0
2, 12544, Note_on_c, 0, 65, 48
2, 12544, Note_on_c, 0, 69, 48
2, 12544, Note_off_c, 0, 53, 0
2, 12544, Note_off_c, 0, 60, 0
2, 12544, Note_on_c, 0, 53, 46
2, 12544, Note_on_c, 0, 57, 46
2, 12672, Note_off_c, 0, 65, 0
2, 12672, Note_off_c, 0, 69, 0
2, 12672, Note_on_c, 0, 69, 52
2, 12672, Note_on_c, 0, 72, 52
2, 12672, Note_off_c, 0, 53, 0
2, 12672, Note_off_c, 0, 57, 0
2, 12672, Note_on_c, 0, 53, 49
2, 12672, Note_on_c, 0, 60, 49
2, 12864, Note_off_c, 0, 69, 0
2, 12864, Note_off_c, 0, 72, 0
2, 12864, Note_on_c, 0, 67, 47
2, 12864, Note_on_c, 0, 71, 47
2, 12928, Note_off_c, 0, 67, 0
2, 12928, Note_off_c, 0, 71, 0
2, 12928, Note_on_c, 0, 65, 46
2, 12928, Note_on_c, 0, 69, 46
2, 13056, Note_off_c, 0, 65, 0
2, 13056, Note_off_c, 0, 69, 0
2, 13056, Note_on_c, 0, 64, 49
2, 13056, Note_on_c, 0, 67, 49
2, 13056, Note_off_c, 0, 53, 0
2, 13056, Note_off_c, 0, 60, 0
2, 13056, Note_on_c, 0, 60, 49
2, 13056, Note_on_c, 0, 52, 50
2, 13248, Note_off_c, 0, 64, 0
2, 13248, Note_off_c, 0, 67, 0
2, 13248, Note_on_c, 0, 65, 49
2, 13248, Note_on_c, 0, 69, 49
2, 13312, Note_off_c, 0, 65, 0
2, 13312, Note_off_c, 0, 69, 0
2, 13312, Note_on_c, 0, 64, 47
2, 13312, Note_on_c, 0, 67, 47
2, 13312, Note_off_c, 0, 60, 0
2, 13312, Note_on_c, 0, 60, 47
2, 13440, Note_off_c, 0, 64, 0
2, 13440, Note_off_c, 0, 67, 0
2, 13440, Note_on_c, 0, 60, 47
2, 13440, Note_on_c, 0, 64, 47
2, 13440, Note_off_c, 0, 52, 0
2, 13440, Note_off_c, 0, 60, 0
2, 13440, Note_on_c, 0, 55, 48
2, 13440, Note_on_c, 0, 48, 46
2, 13632, Note_off_c, 0, 55, 0
2, 13632, Note_on_c, 0, 57, 48
2, 13696, Note_off_c, 0, 57, 0
2, 13696, Note_on_c, 0, 55, 46
2, 13824, Note_off_c, 0, 60, 0
2, 13824, Note_off_c, 0, 64, 0
2, 13824, Note_on_c, 0, 65, 52
2, 13824, Note_on_c, 0, 69, 52
2, 13824, Note_off_c, 0, 48, 0
2, 13824, Note_off_c, 0, 55, 0
2, 13824, Note_on_c, 0, 53, 50
2, 13824, Note_on_c, 0, 60, 50
2, 14080, Note_off_c, 0, 65, 0
2, 14080, Note_off_c, 0, 69, 0
2, 14080, Note_on_c, 0, 65, 48
2, 14080, Note_on_c, 0, 69, 48
2, 14080, Note_off_c, 0, 53, 0
2, 14080, Note_off_c, 0, 60, 0
2, 14080, Note_on_c, 0, 53, 48
2, 14080, Note_on_c, 0, 57, 48
2, 14208, Note_off_c, 0, 65, 0
2, 14208, Note_off_c, 0, 69, 0
2, 14208, Note_on_c, 0, 69, 53
2, 14208, Note_on_c, 0, 72, 53
2, 14208, Note_off_c, 0, 53, 0
2, 14208, Note_off_c, 0, 57, 0
2, 14208, Note_on_c, 0, 53, 51
2, 14208, Note_on_c, 0, 60, 51
2, 14400, Note_off_c, 0, 69, 0
2, 14400, Note_off_c, 0, 72, 0
2, 14400, Note_on_c, 0, 67, 47
2, 14400, Note_on_c, 0, 71, 47
2, 14464, Note_off_c, 0, 67, 0
2, 14464, Note_off_c, 0, 71, 0
2, 14464, Note_on_c, 0, 65, 47
2, 14464, Note_on_c, 0, 69, 47
2, 14592, Note_off_c, 0, 65, 0
2, 14592, Note_off_c, 0, 69, 0
2, 14592, Note_on_c, 0, 64, 49
2, 14592, Note_on_c, 0, 67, 49
2, 14592, Note_off_c, 0, 53, 0
2, 14592, Note_off_c, 0, 60, 0
2, 14592, Note_on_c, 0, 60, 51
2, 14592, Note_on_c, 0, 52, 50
2, 14784, Note_off_c, 0, 64, 0
2, 14784, Note_off_c, 0, 67, 0
2, 14784, Note_on_c, 0, 65, 48
2, 14784, Note_on_c, 0, 69, 48
2, 14848, Note_off_c, 0, 65, 0
2, 14848, Note_off_c, 0, 69, 0
2, 14848, Note_on_c, 0, 64, 46
2, 14848, Note_on_c, 0, 67, 46
2, 14848, Note_off_c, 0, 60, 0
2, 14848, Note_on_c, 0, 60, 48
2, 14976, Note_off_c, 0, 64, 0
2, 14976, Note_off_c, 0, 67, 0
2, 14976, Note_on_c, 0, 60, 45
2, 14976, Note_on_c, 0, 64, 45
2, 14976, Note_off_c, 0, 52, 0
2, 14976, Note_off_c, 0, 60, 0
2, 14976, Note_on_c, 0, 55, 45
2, 14976, Note_on_c, 0, 48, 47
2, 15168, Note_off_c, 0, 55, 0
2, 15168, Note_on_c, 0, 57, 50
2, 15232, Note_off_c, 0, 57, 0
2, 15232, Note_on_c, 0, 55, 45
2, 15360, Note_off_c, 0, 60, 0
2, 15360, Note_off_c, 0, 64, 0
2, 15360, Note_on_c, 0, 65, 52
2, 15360, Note_on_c, 0, 74, 52
2, 15360, Note_off_c, 0, 48, 0
2, 15360, Note_off_c, 0, 55, 0
2, 15360, Note_on_c, 0, 55, 49
2, 15360, Note_on_c, 0, 59, 49
2, 15616, Note_off_c, 0, 65, 0
2, 15616, Note_off_c, 0, 74, 0
2, 15616, Note_on_c, 0, 65, 46
2, 15616, Note_on_c, 0, 74, 46
2, 15616, Note_off_c, 0, 55, 0
2, 15616, Note_off_c, 0, 59, 0
2, 15616, Note_on_c, 0, 55, 49
2, 15616, Note_on_c, 0, 59, 49
2, 15744, Note_off_c, 0, 65, 0
2, 15744, Note_off_c, 0, 74, 0
2, 15744, Note_on_c, 0, 69, 51
2, 15744, Note_on_c, 0, 77, 51
2, 15744, Note_off_c, 0, 55, 0
2, 15744, Note_off_c, 0, 59, 0
2, 15744, Note_on_c, 0, 62, 53
2, 15744, Note_on_c, 0, 50, 48
2, 15936, Note_off_c, 0, 69, 0
2, 15936, Note_off_c, 0, 77, 0
2, 15936, Note_on_c, 0, 65, 47
2, 15936, Note_on_c, 0, 74, 47
2, 16000, Note_off_c, 0, 65, 0
2, 16000, Note_off_c, 0, 74, 0
2, 16000, Note_on_c, 0, 67, 47
2, 16000, Note_on_c, 0, 71, 47
2, 16000, Note_off_c, 0, 50, 0
2, 16000, Note_on_c, 0, 55, 51
2, 16128, Note_off_c, 0, 67, 0
2, 16128, Note_off_c, 0, 71, 0
2, 16128, Note_on_c, 0, 64, 50
2, 16128, Note_on_c, 0, 72, 50
2, 16128, Note_off_c, 0, 62, 0
2, 16128, Note_off_c, 0, 55, 0
2, 16128, Note_on_c, 0, 60, 46
2, 16128, Note_on_c, 0, 52, 48
2, 16320, Note_off_c, 0, 52, 0
2, 16320, Note_on_c, 0, 53, 48
2, 16384, Note_off_c, 0, 53, 0
2, 16384, Note_on_c, 0, 52, 48
2, 16512, Note_off_c, 0, 64, 0
2, 16512, Note_off_c, 0, 72, 0
2, 16512, Note_on_c, 0, 67, 51
2, 16512, Note_on_c, 0, 76, 51
2, 16512, Note_off_c, 0, 60, 0
2, 16512, Note_off_c, 0, 52, 0
2, 16512, Note_on_c, 0, 60, 50
2, 16512, Note_on_c, 0, 48, 47
2, 16896, Note_off_c, 0, 67, 0
2, 16896, Note_off_c, 0, 76, 0
2, 16896, Note_on_c, 0, 64, 45
2, 16896, Note_on_c, 0, 72, 45
2, 16896, Note_off_c, 0, 60, 0
2, 16896, Note_off_c, 0, 48, 0
2, 16896, Note_on_c, 0, 52, 47
2, 16896, Note_on_c, 0, 55, 47
2, 17088, Note_off_c, 0, 64, 0
2, 17088, Note_off_c, 0, 72, 0
2, 17088, Note_on_c, 0, 64, 44
2, 17088, Note_on_c, 0, 67, 44
2, 17152, Note_off_c, 0, 64, 0
2, 17152, Note_off_c, 0, 67, 0
2, 17152, Note_on_c, 0, 60, 45
2, 17152, Note_on_c, 0, 64, 45
2, 17152, Note_off_c, 0, 52, 0
2, 17152, Note_off_c, 0, 55, 0
2, 17152, Note_on_c, 0, 48, 48
2, 17152, Note_on_c, 0, 55, 48
2, 17280, Note_off_c, 0, 60, 0
2, 17280, Note_off_c, 0, 64, 0
2, 17280, Note_on_c, 0, 59, 50
2, 17280, Note_on_c, 0, 67, 50
2, 17280, Note_off_c, 0, 48, 0
2, 17280, Note_off_c, 0, 55, 0
2, 17280, Note_on_c, 0, 43, 49
2, 17280, Note_on_c, 0, 53, 49
2, 17472, Note_off_c, 0, 59, 0
2, 17472, Note_off_c, 0, 67, 0
2, 17472, Note_on_c, 0, 57, 47
2, 17472, Note_on_c, 0, 65, 47
2, 17536, Note_off_c, 0, 57, 0
2, 17536, Note_off_c, 0, 65, 0
2, 17536, Note_on_c, 0, 59, 45
2, 17536, Note_on_c, 0, 62, 45
2, 17536, Note_off_c, 0, 43, 0
2, 17536, Note_off_c, 0, 53, 0
2, 17536, Note_on_c, 0, 43, 47
2, 17536, Note_on_c, 0, 50, 47
2, 17664, Note_off_c, 0, 59, 0
2, 17664, Note_off_c, 0, 62, 0
2, 17664, Note_on_c, 0, 55, 47
2, 17664, Note_on_c, 0, 60, 47
2, 17664, Note_off_c, 0, 43, 0
2, 17664, Note_off_c, 0, 50, 0
2, 17664, Note_on_c, 0, 48, 50
2, 17664, Note_on_c, 0, 52, 50
2, 18432, Note_off_c, 0, 55, 0
2, 18432, Note_off_c, 0, 60, 0
2, 18432, Note_off_c, 0, 48, 0
2, 18432, Note_off_c, 0, 52, 0
2, 18433, End_track
0, 0, End_of_file
