0, 0, Header, 1, 2, 256
1, 0, Start_track
1, 0, Time_signature, 1, 2, 24, 8
1, 0, Key_signature, 2, "major"
1, 0, Tempo, 600000
1, 0, Title_t, "The First Nowell"
1, 0, Text_t, "Traditional"
1, 256, Time_signature, 3, 2, 24, 8
1, 1791, Tempo, 588234
1, 5376, Tempo, 600000
1, 6399, Tempo, 588234
1, 11264, Tempo, 600000
1, 11653, Tempo, 612243
1, 12135, Tempo, 606059
1, 12543, Tempo, 600000
1, 13824, Tempo, 606059
1, 15360, Tempo, 612243
1, 16383, Tempo, 618556
1, 16766, Tempo, 631577
1, 17151, Tempo, 645161
1, 17408, Tempo, 666665
1, 17920, Tempo, 923075
1, 17920, Time_signature, 2, 2, 24, 8
1, 18432, Tempo, 923074
1, 18432, Tempo, 600000
1, 18432, Time_signature, 3, 2, 24, 8
1, 18432, Time_signature, 1, 2, 24, 8
1, 18688, Time_signature, 3, 2, 24, 8
1, 20223, Tempo, 588234
1, 23808, Tempo, 600000
1, 24831, Tempo, 588234
1, 29696, Tempo, 600000
1, 30085, Tempo, 612243
1, 30567, Tempo, 606059
1, 30975, Tempo, 600000
1, 32256, Tempo, 606059
1, 33792, Tempo, 612243
1, 34815, Tempo, 618556
1, 35198, Tempo, 631577
1, 35583, Tempo, 645161
1, 35840, Tempo, 666665
1, 36352, Tempo, 923075
1, 36352, Time_signature, 2, 2, 24, 8
1, 36353, End_track
2, 0, Start_track
2, 0, Program_c, 0, 19
2, 0, Control_c, 0, 121, 0
2, 0, Control_c, 0, 64, 0
2, 0, Control_c, 0, 91, 48
2, 0, Control_c, 0, 10, 76
2, 0, Control_c, 0, 7, 105
2, 0, Note_on_c, 0, 66, 72
2, 0, Note_on_c, 0, 57, 71
2, 0, Control_c, 0, 121, 0
2, 0, Control_c, 0, 64, 0
2, 0, Control_c, 0, 91, 52
2, 0, Control_c, 0, 10, 51
2, 0, Control_c, 0, 7, 105
2, 0, Title_t, "Organ manuals"
2, 0, Note_on_c, 0, 54, 72
2, 0, Note_on_c, 0, 50, 72
2, 128, Note_off_c, 0, 66, 0
2, 128, Note_on_c, 0, 64, 79
2, 256, Note_off_c, 0, 57, 0
2, 256, Note_off_c, 0, 64, 0
2, 256, Note_on_c, 0, 62, 77
2, 256, Note_on_c, 0, 59, 80
2, 256, Note_off_c, 0, 54, 0
2, 256, Note_off_c, 0, 50, 0
2, 256, Note_on_c, 0, 54, 81
2, 256, Note_on_c, 0, 47, 80
2, 640, Note_off_c, 0, 62, 0
2, 640, Note_on_c, 0, 64, 85
2, 768, Note_off_c, 0, 59, 0
2, 768, Note_off_c, 0, 64, 0
2, 768, Note_on_c, 0, 66, 82
2, 768, Note_on_c, 0, 62, 84
2, 768, Note_off_c, 0, 54, 0
2, 768, Note_off_c, 0, 47, 0
2, 768, Note_on_c, 0, 50, 77
2, 768, Note_on_c, 0, 47, 80
2, 896, Note_off_c, 0, 66, 0
2, 896, Note_on_c, 0, 67, 82
2, 1024, Note_off_c, 0, 62, 0
2, 1024, Note_off_c, 0, 67, 0
2, 1024, Note_on_c, 0, 69, 83
2, 1024, Note_on_c, 0, 61, 77
2, 1024, Note_off_c, 0, 50, 0
2, 1024, Note_off_c, 0, 47, 0
2, 1024, Note_on_c, 0, 52, 82
2, 1024, Note_on_c, 0, 45, 79
2, 1280, Note_off_c, 0, 52, 0
2, 1280, Note_on_c, 0, 57, 82
2, 1536, Note_off_c, 0, 69, 0
2, 1536, Note_off_c, 0, 61, 0
2, 1536, Note_on_c, 0, 71, 85
2, 1536, Note_on_c, 0, 64, 83
2, 1536, Note_off_c, 0, 45, 0
2, 1536, Note_off_c, 0, 57, 0
2, 1536, Note_on_c, 0, 59, 82
2, 1536, Note_on_c, 0, 55, 85
2, 1664, Note_off_c, 0, 71, 0
2, 1664, Note_on_c, 0, 73, 82
2, 1792, Note_off_c, 0, 64, 0
2, 1792, Note_off_c, 0, 73, 0
2, 1792, Note_on_c, 0, 74, 84
2, 1792, Note_on_c, 0, 62, 76
2, 1792, Note_off_c, 0, 59, 0
2, 1792, Note_off_c, 0, 55, 0
2, 1792, Note_on_c, 0, 57, 80
2, 1792, Note_on_c, 0, 54, 80
2, 2048, Note_off_c, 0, 74, 0
2, 2048, Note_off_c, 0, 62, 0
2, 2048, Note_on_c, 0, 73, 78
2, 2048, Note_on_c, 0, 66, 83
2, 2048, Note_off_c, 0, 54, 0
2, 2048, Note_on_c, 0, 50, 77
2, 2304, Note_off_c, 0, 73, 0
2, 2304, Note_off_c, 0, 66, 0
2, 2304, Note_on_c, 0, 71, 76
2, 2304, Note_on_c, 0, 67, 79
2, 2304, Note_off_c, 0, 57, 0
2, 2304, Note_off_c, 0, 50, 0
2, 2304, Note_on_c, 0, 61, 85
2, 2304, Note_on_c, 0, 52, 84
2, 2560, Note_off_c, 0, 71, 0
2, 2560, Note_off_c, 0, 67, 0
2, 2560, Note_on_c, 0, 69, 78
2, 2560, Note_on_c, 0, 66, 79
2, 2560, Note_off_c, 0, 61, 0
2, 2560, Note_off_c, 0, 52, 0
2, 2560, Note_on_c, 0, 62, 81
2, 2560, Note_on_c, 0, 54, 82
2, 3072, Note_off_c, 0, 69, 0
2, 3072, Note_off_c, 0, 66, 0
2, 3072, Note_on_c, 0, 71, 83
2, 3072, Note_on_c, 0, 64, 78
2, 3072, Note_off_c, 0, 62, 0
2, 3072, Note_off_c, 0, 54, 0
2, 3072, Note_on_c, 0, 59, 80
2, 3072, Note_on_c, 0, 55, 81
2, 3200, Note_off_c, 0, 71, 0
2, 3200, Note_on_c, 0, 73, 82
2, 3200, Note_off_c, 0, 59, 0
2, 3200, Note_on_c, 0, 57, 79
2, 3328, Note_off_c, 0, 64, 0
2, 3328, Note_off_c, 0, 73, 0
2, 3328, Note_on_c, 0, 74, 81
2, 3328, Note_on_c, 0, 62, 77
2, 3328, Note_off_c, 0, 55, 0
2, 3328, Note_off_c, 0, 57, 0
2, 3328, Note_on_c, 0, 57, 79
2, 3328, Note_on_c, 0, 54, 79
2, 3584, Note_off_c, 0, 74, 0
2, 3584, Note_off_c, 0, 62, 0
2, 3584, Note_on_c, 0, 73, 78
2, 3584, Note_on_c, 0, 66, 84
2, 3584, Note_off_c, 0, 54, 0
2, 3584, Note_on_c, 0, 50, 79
2, 3840, Note_off_c, 0, 73, 0
2, 3840, Note_off_c, 0, 66, 0
2, 3840, Note_on_c, 0, 71, 78
2, 3840, Note_on_c, 0, 67, 81
2, 3840, Note_off_c, 0, 57, 0
2, 3840, Note_off_c, 0, 50, 0
2, 3840, Note_on_c, 0, 61, 84
2, 3840, Note_on_c, 0, 52, 82
2, 4096, Note_off_c, 0, 71, 0
2, 4096, Note_off_c, 0, 67, 0
2, 4096, Note_on_c, 0, 69, 78
2, 4096, Note_on_c, 0, 66, 78
2, 4096, Note_off_c, 0, 61, 0
2, 4096, Note_off_c, 0, 52, 0
2, 4096, Note_on_c, 0, 62, 83
2, 4096, Note_on_c, 0, 54, 82
2, 4352, Note_off_c, 0, 69, 0
2, 4352, Note_off_c, 0, 66, 0
2, 4352, Note_on_c, 0, 71, 84
2, 4352, Note_on_c, 0, 67, 83
2, 4352, Note_off_c, 0, 54, 0
2, 4352, Note_on_c, 0, 55, 81
2, 4608, Note_off_c, 0, 71, 0
2, 4608, Note_off_c, 0, 67, 0
2, 4608, Note_on_c, 0, 73, 83
2, 4608, Note_on_c, 0, 67, 80
2, 4608, Note_off_c, 0, 62, 0
2, 4608, Note_off_c, 0, 55, 0
2, 4608, Note_on_c, 0, 64, 83
2, 4608, Note_on_c, 0, 52, 79
2, 4864, Note_off_c, 0, 73, 0
2, 4864, Note_off_c, 0, 67, 0
2, 4864, Note_on_c, 0, 74, 83
2, 4864, Note_on_c, 0, 69, 82
2, 4864, Note_off_c, 0, 64, 0
2, 4864, Note_off_c, 0, 52, 0
2, 4864, Note_on_c, 0, 62, 78
2, 4864, Note_on_c, 0, 54, 82
2, 5120, Note_off_c, 0, 74, 0
2, 5120, Note_off_c, 0, 69, 0
2, 5120, Note_on_c, 0, 69, 73
2, 5120, Note_on_c, 0, 66, 78
2, 5376, Note_off_c, 0, 69, 0
2, 5376, Note_off_c, 0, 66, 0
2, 5376, Note_on_c, 0, 67, 78
2, 5376, Note_on_c, 0, 61, 74
2, 5376, Note_off_c, 0, 62, 0
2, 5376, Note_off_c, 0, 54, 0
2, 5376, Note_on_c, 0, 57, 80
2, 5376, Note_on_c, 0, 52, 78
2, 5632, Note_off_c, 0, 67, 0
2, 5632, Note_off_c, 0, 61, 0
2, 5632, Note_on_c, 0, 66, 77
2, 5632, Note_on_c, 0, 62, 82
2, 5632, Note_off_c, 0, 57, 0
2, 5632, Note_off_c, 0, 52, 0
2, 5632, Note_on_c, 0, 57, 80
2, 5632, Note_on_c, 0, 50, 78
2, 6144, Note_off_c, 0, 66, 0
2, 6144, Note_off_c, 0, 62, 0
2, 6144, Note_on_c, 0, 66, 80
2, 6144, Note_on_c, 0, 57, 78
2, 6144, Note_off_c, 0, 57, 0
2, 6144, Note_off_c, 0, 50, 0
2, 6144, Note_on_c, 0, 54, 80
2, 6144, Note_on_c, 0, 50, 79
2, 6272, Note_off_c, 0, 66, 0
2, 6272, Note_on_c, 0, 64, 75
2, 6400, Note_off_c, 0, 57, 0
2, 6400, Note_off_c, 0, 64, 0
2, 6400, Note_on_c, 0, 62, 79
2, 6400, Note_on_c, 0, 59, 81
2, 6400, Note_off_c, 0, 54, 0
2, 6400, Note_off_c, 0, 50, 0
2, 6400, Note_on_c, 0, 54, 81
2, 6400, Note_on_c, 0, 47, 78
2, 6784, Note_off_c, 0, 62, 0
2, 6784, Note_on_c, 0, 64, 81
2, 6912, Note_off_c, 0, 59, 0
2, 6912, Note_off_c, 0, 64, 0
2, 6912, Note_on_c, 0, 66, 83
2, 6912, Note_on_c, 0, 62, 82
2, 6912, Note_off_c, 0, 54, 0
2, 6912, Note_off_c, 0, 47, 0
2, 6912, Note_on_c, 0, 50, 77
2, 6912, Note_on_c, 0, 47, 80
2, 7040, Note_off_c, 0, 66, 0
2, 7040, Note_on_c, 0, 67, 82
2, 7168, Note_off_c, 0, 62, 0
2, 7168, Note_off_c, 0, 67, 0
2, 7168, Note_on_c, 0, 69, 82
2, 7168, Note_on_c, 0, 61, 75
2, 7168, Note_off_c, 0, 50, 0
2, 7168, Note_off_c, 0, 47, 0
2, 7168, Note_on_c, 0, 52, 82
2, 7168, Note_on_c, 0, 45, 80
2, 7424, Note_off_c, 0, 52, 0
2, 7424, Note_on_c, 0, 57, 83
2, 7680, Note_off_c, 0, 69, 0
2, 7680, Note_off_c, 0, 61, 0
2, 7680, Note_on_c, 0, 71, 85
2, 7680, Note_on_c, 0, 64, 87
2, 7680, Note_off_c, 0, 45, 0
2, 7680, Note_off_c, 0, 57, 0
2, 7680, Note_on_c, 0, 59, 82
2, 7680, Note_on_c, 0, 55, 86
2, 7808, Note_off_c, 0, 71, 0
2, 7808, Note_on_c, 0, 73, 82
2, 7936, Note_off_c, 0, 64, 0
2, 7936, Note_off_c, 0, 73, 0
2, 7936, Note_on_c, 0, 74, 81
2, 7936, Note_on_c, 0, 62, 78
2, 7936, Note_off_c, 0, 59, 0
2, 7936, Note_off_c, 0, 55, 0
2, 7936, Note_on_c, 0, 57, 80
2, 7936, Note_on_c, 0, 54, 79
2, 8192, Note_off_c, 0, 74, 0
2, 8192, Note_off_c, 0, 62, 0
2, 8192, Note_on_c, 0, 73, 77
2, 8192, Note_on_c, 0, 66, 83
2, 8192, Note_off_c, 0, 54, 0
2, 8192, Note_on_c, 0, 50, 79
2, 8448, Note_off_c, 0, 73, 0
2, 8448, Note_off_c, 0, 66, 0
2, 8448, Note_on_c, 0, 71, 78
2, 8448, Note_on_c, 0, 67, 81
2, 8448, Note_off_c, 0, 57, 0
2, 8448, Note_off_c, 0, 50, 0
2, 8448, Note_on_c, 0, 61, 86
2, 8448, Note_on_c, 0, 52, 81
2, 8704, Note_off_c, 0, 71, 0
2, 8704, Note_off_c, 0, 67, 0
2, 8704, Note_on_c, 0, 69, 77
2, 8704, Note_on_c, 0, 66, 79
2, 8704, Note_off_c, 0, 61, 0
2, 8704, Note_off_c, 0, 52, 0
2, 8704, Note_on_c, 0, 62, 83
2, 8704, Note_on_c, 0, 54, 80
2, 9216, Note_off_c, 0, 69, 0
2, 9216, Note_off_c, 0, 66, 0
2, 9216, Note_on_c, 0, 71, 81
2, 9216, Note_on_c, 0, 64, 76
2, 9216, Note_off_c, 0, 62, 0
2, 9216, Note_off_c, 0, 54, 0
2, 9216, Note_on_c, 0, 59, 79
2, 9216, Note_on_c, 0, 55, 81
2, 9344, Note_off_c, 0, 71, 0
2, 9344, Note_on_c, 0, 73, 82
2, 9344, Note_off_c, 0, 59, 0
2, 9344, Note_on_c, 0, 57, 79
2, 9472, Note_off_c, 0, 64, 0
2, 9472, Note_off_c, 0, 73, 0
2, 9472, Note_on_c, 0, 74, 78
2, 9472, Note_on_c, 0, 62, 78
2, 9472, Note_off_c, 0, 55, 0
2, 9472, Note_off_c, 0, 57, 0
2, 9472, Note_on_c, 0, 57, 79
2, 9472, Note_on_c, 0, 54, 79
2, 9728, Note_off_c, 0, 74, 0
2, 9728, Note_off_c, 0, 62, 0
2, 9728, Note_on_c, 0, 73, 80
2, 9728, Note_on_c, 0, 66, 83
2, 9728, Note_off_c, 0, 54, 0
2, 9728, Note_on_c, 0, 50, 77
2, 9984, Note_off_c, 0, 73, 0
2, 9984, Note_off_c, 0, 66, 0
2, 9984, Note_on_c, 0, 71, 77
2, 9984, Note_on_c, 0, 67, 80
2, 9984, Note_off_c, 0, 57, 0
2, 9984, Note_off_c, 0, 50, 0
2, 9984, Note_on_c, 0, 61, 84
2, 9984, Note_on_c, 0, 52, 79
2, 10240, Note_off_c, 0, 71, 0
2, 10240, Note_off_c, 0, 67, 0
2, 10240, Note_on_c, 0, 69, 79
2, 10240, Note_on_c, 0, 66, 79
2, 10240, Note_off_c, 0, 61, 0
2, 10240, Note_off_c, 0, 52, 0
2, 10240, Note_on_c, 0, 62, 81
2, 10240, Note_on_c, 0, 54, 81
2, 10496, Note_off_c, 0, 69, 0
2, 10496, Note_off_c, 0, 66, 0
2, 10496, Note_on_c, 0, 71, 83
2, 10496, Note_on_c, 0, 67, 83
2, 10496, Note_off_c, 0, 54, 0
2, 10496, Note_on_c, 0, 55, 81
2, 10752, Note_off_c, 0, 71, 0
2, 10752, Note_off_c, 0, 67, 0
2, 10752, Note_on_c, 0, 73, 83
2, 10752, Note_on_c, 0, 67, 78
2, 10752, Note_off_c, 0, 62, 0
2, 10752, Note_off_c, 0, 55, 0
2, 10752, Note_on_c, 0, 64, 84
2, 10752, Note_on_c, 0, 52, 79
2, 11008, Note_off_c, 0, 73, 0
2, 11008, Note_off_c, 0, 67, 0
2, 11008, Note_on_c, 0, 74, 83
2, 11008, Note_on_c, 0, 69, 84
2, 11008, Note_off_c, 0, 64, 0
2, 11008, Note_off_c, 0, 52, 0
2, 11008, Note_on_c, 0, 62, 76
2, 11008, Note_on_c, 0, 54, 81
2, 11264, Note_off_c, 0, 74, 0
2, 11264, Note_off_c, 0, 69, 0
2, 11264, Note_on_c, 0, 69, 75
2, 11264, Note_on_c, 0, 66, 77
2, 11520, Note_off_c, 0, 69, 0
2, 11520, Note_off_c, 0, 66, 0
2, 11520, Note_on_c, 0, 67, 76
2, 11520, Note_on_c, 0, 61, 74
2, 11520, Note_off_c, 0, 62, 0
2, 11520, Note_off_c, 0, 54, 0
2, 11520, Note_on_c, 0, 57, 76
2, 11520, Note_on_c, 0, 45, 76
2, 11776, Note_off_c, 0, 67, 0
2, 11776, Note_off_c, 0, 61, 0
2, 11776, Note_on_c, 0, 66, 79
2, 11776, Note_on_c, 0, 62, 81
2, 11776, Note_off_c, 0, 57, 0
2, 11776, Note_off_c, 0, 45, 0
2, 11776, Note_on_c, 0, 57, 79
2, 11776, Note_on_c, 0, 50, 82
2, 12288, Note_off_c, 0, 66, 0
2, 12288, Note_off_c, 0, 62, 0
2, 12288, Note_on_c, 0, 66, 81
2, 12288, Note_on_c, 0, 61, 79
2, 12288, Note_off_c, 0, 57, 0
2, 12288, Note_off_c, 0, 50, 0
2, 12288, Note_on_c, 0, 55, 79
2, 12288, Note_on_c, 0, 45, 78
2, 12416, Note_off_c, 0, 66, 0
2, 12416, Note_on_c, 0, 64, 78
2, 12544, Note_off_c, 0, 61, 0
2, 12544, Note_off_c, 0, 64, 0
2, 12544, Note_on_c, 0, 62, 79
2, 12544, Note_on_c, 0, 57, 79
2, 12544, Note_off_c, 0, 55, 0
2, 12544, Note_off_c, 0, 45, 0
2, 12544, Note_on_c, 0, 54, 79
2, 12544, Note_on_c, 0, 50, 81
2, 12928, Note_off_c, 0, 62, 0
2, 12928, Note_on_c, 0, 64, 82
2, 13056, Note_off_c, 0, 57, 0
2, 13056, Note_off_c, 0, 64, 0
2, 13056, Note_on_c, 0, 66, 82
2, 13056, Note_on_c, 0, 62, 85
2, 13056, Note_off_c, 0, 54, 0
2, 13056, Note_off_c, 0, 50, 0
2, 13056, Note_on_c, 0, 59, 82
2, 13056, Note_on_c, 0, 47, 76
2, 13184, Note_off_c, 0, 66, 0
2, 13184, Note_off_c, 0, 62, 0
2, 13184, Note_on_c, 0, 67, 80
2, 13184, Note_on_c, 0, 64, 84
2, 13312, Note_off_c, 0, 67, 0
2, 13312, Note_off_c, 0, 64, 0
2, 13312, Note_on_c, 0, 69, 82
2, 13312, Note_on_c, 0, 66, 81
2, 13312, Note_off_c, 0, 59, 0
2, 13312, Note_off_c, 0, 47, 0
2, 13312, Note_on_c, 0, 61, 82
2, 13312, Note_on_c, 0, 54, 84
2, 13824, Note_off_c, 0, 69, 0
2, 13824, Note_off_c, 0, 66, 0
2, 13824, Note_on_c, 0, 74, 86
2, 13824, Note_on_c, 0, 66, 81
2, 13824, Note_off_c, 0, 61, 0
2, 13824, Note_off_c, 0, 54, 0
2, 13824, Note_on_c, 0, 57, 78
2, 13824, Note_on_c, 0, 50, 77
2, 13952, Note_off_c, 0, 74, 0
2, 13952, Note_on_c, 0, 73, 78
2, 14080, Note_off_c, 0, 66, 0
2, 14080, Note_off_c, 0, 73, 0
2, 14080, Note_on_c, 0, 71, 77
2, 14080, Note_on_c, 0, 62, 75
2, 14080, Note_off_c, 0, 57, 0
2, 14080, Note_off_c, 0, 50, 0
2, 14080, Note_on_c, 0, 59, 81
2, 14080, Note_on_c, 0, 55, 84
2, 14464, Note_off_c, 0, 59, 0
2, 14464, Note_off_c, 0, 55, 0
2, 14464, Note_on_c, 0, 61, 81
2, 14464, Note_on_c, 0, 57, 82
2, 14592, Note_off_c, 0, 71, 0
2, 14592, Note_off_c, 0, 62, 0
2, 14592, Note_on_c, 0, 71, 89
2, 14592, Note_on_c, 0, 67, 93
2, 14592, Note_off_c, 0, 61, 0
2, 14592, Note_off_c, 0, 57, 0
2, 14592, Note_on_c, 0, 62, 84
2, 14592, Note_on_c, 0, 59, 82
2, 14720, Note_off_c, 0, 62, 0
2, 14720, Note_off_c, 0, 59, 0
2, 14720, Note_on_c, 0, 64, 83
2, 14720, Note_on_c, 0, 61, 83
2, 14848, Note_off_c, 0, 71, 0
2, 14848, Note_off_c, 0, 67, 0
2, 14848, Note_on_c, 0, 69, 84
2, 14848, Note_on_c, 0, 66, 88
2, 14848, Note_off_c, 0, 64, 0
2, 14848, Note_off_c, 0, 61, 0
2, 14848, Note_on_c, 0, 66, 90
2, 14848, Note_on_c, 0, 62, 89
2, 15360, Note_off_c, 0, 66, 0
2, 15360, Note_off_c, 0, 62, 0
2, 15360, Note_on_c, 0, 64, 85
2, 15360, Note_on_c, 0, 61, 86
2, 15616, Note_off_c, 0, 69, 0
2, 15616, Note_off_c, 0, 66, 0
2, 15616, Note_on_c, 0, 74, 92
2, 15616, Note_on_c, 0, 66, 89
2, 15616, Note_off_c, 0, 64, 0
2, 15616, Note_off_c, 0, 61, 0
2, 15616, Note_on_c, 0, 62, 87
2, 15616, Note_on_c, 0, 59, 87
2, 15872, Note_off_c, 0, 74, 0
2, 15872, Note_off_c, 0, 66, 0
2, 15872, Note_on_c, 0, 73, 87
2, 15872, Note_on_c, 0, 69, 92
2, 15872, Note_off_c, 0, 59, 0
2, 15872, Note_on_c, 0, 54, 85
2, 16128, Note_off_c, 0, 73, 0
2, 16128, Note_off_c, 0, 69, 0
2, 16128, Note_on_c, 0, 71, 84
2, 16128, Note_on_c, 0, 67, 85
2, 16128, Note_off_c, 0, 62, 0
2, 16128, Note_off_c, 0, 54, 0
2, 16128, Note_on_c, 0, 62, 89
2, 16128, Note_on_c, 0, 55, 89
2, 16384, Note_off_c, 0, 71, 0
2, 16384, Note_off_c, 0, 67, 0
2, 16384, Note_on_c, 0, 69, 85
2, 16384, Note_on_c, 0, 66, 88
2, 16384, Note_off_c, 0, 62, 0
2, 16384, Note_off_c, 0, 55, 0
2, 16384, Note_on_c, 0, 62, 86
2, 16384, Note_on_c, 0, 50, 84
2, 16640, Note_off_c, 0, 69, 0
2, 16640, Note_on_c, 0, 71, 91
2, 16896, Note_off_c, 0, 66, 0
2, 16896, Note_off_c, 0, 71, 0
2, 16896, Note_on_c, 0, 73, 92
2, 16896, Note_on_c, 0, 67, 88
2, 16896, Note_off_c, 0, 62, 0
2, 16896, Note_off_c, 0, 50, 0
2, 16896, Note_on_c, 0, 57, 86
2, 16896, Note_on_c, 0, 52, 89
2, 17152, Note_off_c, 0, 73, 0
2, 17152, Note_off_c, 0, 67, 0
2, 17152, Note_on_c, 0, 74, 89
2, 17152, Note_on_c, 0, 69, 92
2, 17152, Note_off_c, 0, 57, 0
2, 17152, Note_off_c, 0, 52, 0
2, 17152, Note_on_c, 0, 57, 88
2, 17152, Note_on_c, 0, 54, 87
2, 17280, Note_off_c, 0, 54, 0
2, 17280, Note_on_c, 0, 55, 87
2, 17408, Note_off_c, 0, 74, 0
2, 17408, Note_off_c, 0, 69, 0
2, 17408, Note_on_c, 0, 69, 83
2, 17408, Note_on_c, 0, 66, 84
2, 17408, Note_off_c, 0, 57, 0
2, 17408, Note_off_c, 0, 55, 0
2, 17408, Note_on_c, 0, 62, 93
2, 17408, Note_on_c, 0, 57, 89
2, 17664, Note_off_c, 0, 69, 0
2, 17664, Note_off_c, 0, 66, 0
2, 17664, Note_on_c, 0, 67, 86
2, 17664, Note_on_c, 0, 61, 82
2, 17664, Note_off_c, 0, 62, 0
2, 17664, Note_off_c, 0, 57, 0
2, 17664, Note_on_c, 0, 57, 95
2, 17664, Note_on_c, 0, 45, 89
2, 17920, Note_off_c, 0, 67, 0
2, 17920, Note_off_c, 0, 61, 0
2, 17920, Note_on_c, 0, 66, 85
2, 17920, Note_on_c, 0, 62, 88
2, 17920, Note_off_c, 0, 57, 0
2, 17920, Note_off_c, 0, 45, 0
2, 17920, Note_on_c, 0, 57, 97
2, 17920, Note_on_c, 0, 50, 99
2, 18432, Note_off_c, 0, 66, 0
2, 18432, Note_off_c, 0, 62, 0
2, 18432, Note_on_c, 0, 66, 79
2, 18432, Note_on_c, 0, 57, 77
2, 18432, Note_off_c, 0, 57, 0
2, 18432, Note_off_c, 0, 50, 0
2, 18432, Note_on_c, 0, 54, 77
2, 18432, Note_on_c, 0, 50, 80
2, 18560, Note_off_c, 0, 66, 0
2, 18560, Note_on_c, 0, 64, 79
2, 18688, Note_off_c, 0, 57, 0
2, 18688, Note_off_c, 0, 64, 0
2, 18688, Note_on_c, 0, 62, 80
2, 18688, Note_on_c, 0, 59, 82
2, 18688, Note_off_c, 0, 54, 0
2, 18688, Note_off_c, 0, 50, 0
2, 18688, Note_on_c, 0, 54, 82
2, 18688, Note_on_c, 0, 47, 80
2, 19072, Note_off_c, 0, 62, 0
2, 19072, Note_on_c, 0, 64, 82
2, 19200, Note_off_c, 0, 59, 0
2, 19200, Note_off_c, 0, 64, 0
2, 19200, Note_on_c, 0, 66, 81
2, 19200, Note_on_c, 0, 62, 83
2, 19200, Note_off_c, 0, 54, 0
2, 19200, Note_off_c, 0, 47, 0
2, 19200, Note_on_c, 0, 50, 79
2, 19200, Note_on_c, 0, 47, 80
2, 19328, Note_off_c, 0, 66, 0
2, 19328, Note_on_c, 0, 67, 83
2, 19456, Note_off_c, 0, 62, 0
2, 19456, Note_off_c, 0, 67, 0
2, 19456, Note_on_c, 0, 69, 80
2, 19456, Note_on_c, 0, 61, 78
2, 19456, Note_off_c, 0, 50, 0
2, 19456, Note_off_c, 0, 47, 0
2, 19456, Note_on_c, 0, 52, 82
2, 19456, Note_on_c, 0, 45, 80
2, 19712, Note_off_c, 0, 52, 0
2, 19712, Note_on_c, 0, 57, 80
2, 19968, Note_off_c, 0, 69, 0
2, 19968, Note_off_c, 0, 61, 0
2, 19968, Note_on_c, 0, 71, 83
2, 19968, Note_on_c, 0, 64, 86
2, 19968, Note_off_c, 0, 45, 0
2, 19968, Note_off_c, 0, 57, 0
2, 19968, Note_on_c, 0, 59, 82
2, 19968, Note_on_c, 0, 55, 84
2, 20096, Note_off_c, 0, 71, 0
2, 20096, Note_on_c, 0, 73, 82
2, 20224, Note_off_c, 0, 64, 0
2, 20224, Note_off_c, 0, 73, 0
2, 20224, Note_on_c, 0, 74, 83
2, 20224, Note_on_c, 0, 62, 77
2, 20224, Note_off_c, 0, 59, 0
2, 20224, Note_off_c, 0, 55, 0
2, 20224, Note_on_c, 0, 57, 80
2, 20224, Note_on_c, 0, 54, 77
2, 20480, Note_off_c, 0, 74, 0
2, 20480, Note_off_c, 0, 62, 0
2, 20480, Note_on_c, 0, 73, 79
2, 20480, Note_on_c, 0, 66, 84
2, 20480, Note_off_c, 0, 54, 0
2, 20480, Note_on_c, 0, 50, 78
2, 20736, Note_off_c, 0, 73, 0
2, 20736, Note_off_c, 0, 66, 0
2, 20736, Note_on_c, 0, 71, 78
2, 20736, Note_on_c, 0, 67, 84
2, 20736, Note_off_c, 0, 57, 0
2, 20736, Note_off_c, 0, 50, 0
2, 20736, Note_on_c, 0, 61, 83
2, 20736, Note_on_c, 0, 52, 82
2, 20992, Note_off_c, 0, 71, 0
2, 20992, Note_off_c, 0, 67, 0
2, 20992, Note_on_c, 0, 69, 77
2, 20992, Note_on_c, 0, 66, 78
2, 20992, Note_off_c, 0, 61, 0
2, 20992, Note_off_c, 0, 52, 0
2, 20992, Note_on_c, 0, 62, 82
2, 20992, Note_on_c, 0, 54, 81
2, 21504, Note_off_c, 0, 69, 0
2, 21504, Note_off_c, 0, 66, 0
2, 21504, Note_on_c, 0, 71, 82
2, 21504, Note_on_c, 0, 64, 79
2, 21504, Note_off_c, 0, 62, 0
2, 21504, Note_off_c, 0, 54, 0
2, 21504, Note_on_c, 0, 59, 82
2, 21504, Note_on_c, 0, 55, 80
2, 21632, Note_off_c, 0, 71, 0
2, 21632, Note_on_c, 0, 73, 82
2, 21632, Note_off_c, 0, 59, 0
2, 21632, Note_on_c, 0, 57, 78
2, 21760, Note_off_c, 0, 64, 0
2, 21760, Note_off_c, 0, 73, 0
2, 21760, Note_on_c, 0, 74, 83
2, 21760, Note_on_c, 0, 62, 78
2, 21760, Note_off_c, 0, 55, 0
2, 21760, Note_off_c, 0, 57, 0
2, 21760, Note_on_c, 0, 57, 80
2, 21760, Note_on_c, 0, 54, 79
2, 22016, Note_off_c, 0, 74, 0
2, 22016, Note_off_c, 0, 62, 0
2, 22016, Note_on_c, 0, 73, 79
2, 22016, Note_on_c, 0, 66, 84
2, 22016, Note_off_c, 0, 54, 0
2, 22016, Note_on_c, 0, 50, 76
2, 22272, Note_off_c, 0, 73, 0
2, 22272, Note_off_c, 0, 66, 0
2, 22272, Note_on_c, 0, 71, 77
2, 22272, Note_on_c, 0, 67, 81
2, 22272, Note_off_c, 0, 57, 0
2, 22272, Note_off_c, 0, 50, 0
2, 22272, Note_on_c, 0, 61, 86
2, 22272, Note_on_c, 0, 52, 83
2, 22528, Note_off_c, 0, 71, 0
2, 22528, Note_off_c, 0, 67, 0
2, 22528, Note_on_c, 0, 69, 75
2, 22528, Note_on_c, 0, 66, 76
2, 22528, Note_off_c, 0, 61, 0
2, 22528, Note_off_c, 0, 52, 0
2, 22528, Note_on_c, 0, 62, 82
2, 22528, Note_on_c, 0, 54, 81
2, 22784, Note_off_c, 0, 69, 0
2, 22784, Note_off_c, 0, 66, 0
2, 22784, Note_on_c, 0, 71, 85
2, 22784, Note_on_c, 0, 67, 82
2, 22784, Note_off_c, 0, 54, 0
2, 22784, Note_on_c, 0, 55, 80
2, 23040, Note_off_c, 0, 71, 0
2, 23040, Note_off_c, 0, 67, 0
2, 23040, Note_on_c, 0, 73, 83
2, 23040, Note_on_c, 0, 67, 79
2, 23040, Note_off_c, 0, 62, 0
2, 23040, Note_off_c, 0, 55, 0
2, 23040, Note_on_c, 0, 64, 83
2, 23040, Note_on_c, 0, 52, 80
2, 23296, Note_off_c, 0, 73, 0
2, 23296, Note_off_c, 0, 67, 0
2, 23296, Note_on_c, 0, 74, 84
2, 23296, Note_on_c, 0, 69, 83
2, 23296, Note_off_c, 0, 64, 0
2, 23296, Note_off_c, 0, 52, 0
2, 23296, Note_on_c, 0, 62, 78
2, 23296, Note_on_c, 0, 54, 83
2, 23552, Note_off_c, 0, 74, 0
2, 23552, Note_off_c, 0, 69, 0
2, 23552, Note_on_c, 0, 69, 73
2, 23552, Note_on_c, 0, 66, 76
2, 23808, Note_off_c, 0, 69, 0
2, 23808, Note_off_c, 0, 66, 0
2, 23808, Note_on_c, 0, 67, 77
2, 23808, Note_on_c, 0, 61, 74
2, 23808, Note_off_c, 0, 62, 0
2, 23808, Note_off_c, 0, 54, 0
2, 23808, Note_on_c, 0, 57, 75
2, 23808, Note_on_c, 0, 52, 77
2, 24064, Note_off_c, 0, 67, 0
2, 24064, Note_off_c, 0, 61, 0
2, 24064, Note_on_c, 0, 66, 78
2, 24064, Note_on_c, 0, 62, 80
2, 24064, Note_off_c, 0, 57, 0
2, 24064, Note_off_c, 0, 52, 0
2, 24064, Note_on_c, 0, 57, 80
2, 24064, Note_on_c, 0, 50, 79
2, 24576, Note_off_c, 0, 66, 0
2, 24576, Note_off_c, 0, 62, 0
2, 24576, Note_on_c, 0, 66, 81
2, 24576, Note_on_c, 0, 57, 79
2, 24576, Note_off_c, 0, 57, 0
2, 24576, Note_off_c, 0, 50, 0
2, 24576, Note_on_c, 0, 54, 79
2, 24576, Note_on_c, 0, 50, 79
2, 24704, Note_off_c, 0, 66, 0
2, 24704, Note_on_c, 0, 64, 77
2, 24832, Note_off_c, 0, 57, 0
2, 24832, Note_off_c, 0, 64, 0
2, 24832, Note_on_c, 0, 62, 77
2, 24832, Note_on_c, 0, 59, 81
2, 24832, Note_off_c, 0, 54, 0
2, 24832, Note_off_c, 0, 50, 0
2, 24832, Note_on_c, 0, 54, 81
2, 24832, Note_on_c, 0, 47, 80
2, 25216, Note_off_c, 0, 62, 0
2, 25216, Note_on_c, 0, 64, 82
2, 25344, Note_off_c, 0, 59, 0
2, 25344, Note_off_c, 0, 64, 0
2, 25344, Note_on_c, 0, 66, 81
2, 25344, Note_on_c, 0, 62, 85
2, 25344, Note_off_c, 0, 54, 0
2, 25344, Note_off_c, 0, 47, 0
2, 25344, Note_on_c, 0, 50, 78
2, 25344, Note_on_c, 0, 47, 83
2, 25472, Note_off_c, 0, 66, 0
2, 25472, Note_on_c, 0, 67, 85
2, 25600, Note_off_c, 0, 62, 0
2, 25600, Note_off_c, 0, 67, 0
2, 25600, Note_on_c, 0, 69, 82
2, 25600, Note_on_c, 0, 61, 78
2, 25600, Note_off_c, 0, 50, 0
2, 25600, Note_off_c, 0, 47, 0
2, 25600, Note_on_c, 0, 52, 80
2, 25600, Note_on_c, 0, 45, 80
2, 25856, Note_off_c, 0, 52, 0
2, 25856, Note_on_c, 0, 57, 82
2, 26112, Note_off_c, 0, 69, 0
2, 26112, Note_off_c, 0, 61, 0
2, 26112, Note_on_c, 0, 71, 83
2, 26112, Note_on_c, 0, 64, 84
2, 26112, Note_off_c, 0, 45, 0
2, 26112, Note_off_c, 0, 57, 0
2, 26112, Note_on_c, 0, 59, 83
2, 26112, Note_on_c, 0, 55, 87
2, 26240, Note_off_c, 0, 71, 0
2, 26240, Note_on_c, 0, 73, 80
2, 26368, Note_off_c, 0, 64, 0
2, 26368, Note_off_c, 0, 73, 0
2, 26368, Note_on_c, 0, 74, 82
2, 26368, Note_on_c, 0, 62, 78
2, 26368, Note_off_c, 0, 59, 0
2, 26368, Note_off_c, 0, 55, 0
2, 26368, Note_on_c, 0, 57, 80
2, 26368, Note_on_c, 0, 54, 79
2, 26624, Note_off_c, 0, 74, 0
2, 26624, Note_off_c, 0, 62, 0
2, 26624, Note_on_c, 0, 73, 77
2, 26624, Note_on_c, 0, 66, 82
2, 26624, Note_off_c, 0, 54, 0
2, 26624, Note_on_c, 0, 50, 79
2, 26880, Note_off_c, 0, 73, 0
2, 26880, Note_off_c, 0, 66, 0
2, 26880, Note_on_c, 0, 71, 78
2, 26880, Note_on_c, 0, 67, 79
2, 26880, Note_off_c, 0, 57, 0
2, 26880, Note_off_c, 0, 50, 0
2, 26880, Note_on_c, 0, 61, 82
2, 26880, Note_on_c, 0, 52, 82
2, 27136, Note_off_c, 0, 71, 0
2, 27136, Note_off_c, 0, 67, 0
2, 27136, Note_on_c, 0, 69, 78
2, 27136, Note_on_c, 0, 66, 80
2, 27136, Note_off_c, 0, 61, 0
2, 27136, Note_off_c, 0, 52, 0
2, 27136, Note_on_c, 0, 62, 82
2, 27136, Note_on_c, 0, 54, 80
2, 27648, Note_off_c, 0, 69, 0
2, 27648, Note_off_c, 0, 66, 0
2, 27648, Note_on_c, 0, 71, 82
2, 27648, Note_on_c, 0, 64, 78
2, 27648, Note_off_c, 0, 62, 0
2, 27648, Note_off_c, 0, 54, 0
2, 27648, Note_on_c, 0, 59, 79
2, 27648, Note_on_c, 0, 55, 81
2, 27776, Note_off_c, 0, 71, 0
2, 27776, Note_on_c, 0, 73, 81
2, 27776, Note_off_c, 0, 59, 0
2, 27776, Note_on_c, 0, 57, 77
2, 27904, Note_off_c, 0, 64, 0
2, 27904, Note_off_c, 0, 73, 0
2, 27904, Note_on_c, 0, 74, 82
2, 27904, Note_on_c, 0, 62, 80
2, 27904, Note_off_c, 0, 55, 0
2, 27904, Note_off_c, 0, 57, 0
2, 27904, Note_on_c, 0, 57, 79
2, 27904, Note_on_c, 0, 54, 79
2, 28160, Note_off_c, 0, 74, 0
2, 28160, Note_off_c, 0, 62, 0
2, 28160, Note_on_c, 0, 73, 80
2, 28160, Note_on_c, 0, 66, 87
2, 28160, Note_off_c, 0, 54, 0
2, 28160, Note_on_c, 0, 50, 79
2, 28416, Note_off_c, 0, 73, 0
2, 28416, Note_off_c, 0, 66, 0
2, 28416, Note_on_c, 0, 71, 77
2, 28416, Note_on_c, 0, 67, 83
2, 28416, Note_off_c, 0, 57, 0
2, 28416, Note_off_c, 0, 50, 0
2, 28416, Note_on_c, 0, 61, 85
2, 28416, Note_on_c, 0, 52, 80
2, 28672, Note_off_c, 0, 71, 0
2, 28672, Note_off_c, 0, 67, 0
2, 28672, Note_on_c, 0, 69, 79
2, 28672, Note_on_c, 0, 66, 78
2, 28672, Note_off_c, 0, 61, 0
2, 28672, Note_off_c, 0, 52, 0
2, 28672, Note_on_c, 0, 62, 81
2, 28672, Note_on_c, 0, 54, 81
2, 28928, Note_off_c, 0, 69, 0
2, 28928, Note_off_c, 0, 66, 0
2, 28928, Note_on_c, 0, 71, 84
2, 28928, Note_on_c, 0, 67, 82
2, 28928, Note_off_c, 0, 54, 0
2, 28928, Note_on_c, 0, 55, 82
2, 29184, Note_off_c, 0, 71, 0
2, 29184, Note_off_c, 0, 67, 0
2, 29184, Note_on_c, 0, 73, 82
2, 29184, Note_on_c, 0, 67, 78
2, 29184, Note_off_c, 0, 62, 0
2, 29184, Note_off_c, 0, 55, 0
2, 29184, Note_on_c, 0, 64, 82
2, 29184, Note_on_c, 0, 52, 80
2, 29440, Note_off_c, 0, 73, 0
2, 29440, Note_off_c, 0, 67, 0
2, 29440, Note_on_c, 0, 74, 83
2, 29440, Note_on_c, 0, 69, 81
2, 29440, Note_off_c, 0, 64, 0
2, 29440, Note_off_c, 0, 52, 0
2, 29440, Note_on_c, 0, 62, 77
2, 29440, Note_on_c, 0, 54, 81
2, 29696, Note_off_c, 0, 74, 0
2, 29696, Note_off_c, 0, 69, 0
2, 29696, Note_on_c, 0, 69, 76
2, 29696, Note_on_c, 0, 66, 76
2, 29952, Note_off_c, 0, 69, 0
2, 29952, Note_off_c, 0, 66, 0
2, 29952, Note_on_c, 0, 67, 77
2, 29952, Note_on_c, 0, 61, 76
2, 29952, Note_off_c, 0, 62, 0
2, 29952, Note_off_c, 0, 54, 0
2, 29952, Note_on_c, 0, 57, 78
2, 29952, Note_on_c, 0, 45, 75
2, 30208, Note_off_c, 0, 67, 0
2, 30208, Note_off_c, 0, 61, 0
2, 30208, Note_on_c, 0, 66, 77
2, 30208, Note_on_c, 0, 62, 81
2, 30208, Note_off_c, 0, 57, 0
2, 30208, Note_off_c, 0, 45, 0
2, 30208, Note_on_c, 0, 57, 80
2, 30208, Note_on_c, 0, 50, 82
2, 30720, Note_off_c, 0, 66, 0
2, 30720, Note_off_c, 0, 62, 0
2, 30720, Note_on_c, 0, 66, 78
2, 30720, Note_on_c, 0, 61, 78
2, 30720, Note_off_c, 0, 57, 0
2, 30720, Note_off_c, 0, 50, 0
2, 30720, Note_on_c, 0, 55, 78
2, 30720, Note_on_c, 0, 45, 79
2, 30848, Note_off_c, 0, 66, 0
2, 30848, Note_on_c, 0, 64, 78
2, 30976, Note_off_c, 0, 61, 0
2, 30976, Note_off_c, 0, 64, 0
2, 30976, Note_on_c, 0, 62, 78
2, 30976, Note_on_c, 0, 57, 78
2, 30976, Note_off_c, 0, 55, 0
2, 30976, Note_off_c, 0, 45, 0
2, 30976, Note_on_c, 0, 54, 80
2, 30976, Note_on_c, 0, 50, 82
2, 31360, Note_off_c, 0, 62, 0
2, 31360, Note_on_c, 0, 64, 84
2, 31488, Note_off_c, 0, 57, 0
2, 31488, Note_off_c, 0, 64, 0
2, 31488, Note_on_c, 0, 66, 80
2, 31488, Note_on_c, 0, 62, 86
2, 31488, Note_off_c, 0, 54, 0
2, 31488, Note_off_c, 0, 50, 0
2, 31488, Note_on_c, 0, 59, 84
2, 31488, Note_on_c, 0, 47, 78
2, 31616, Note_off_c, 0, 66, 0
2, 31616, Note_off_c, 0, 62, 0
2, 31616, Note_on_c, 0, 67, 81
2, 31616, Note_on_c, 0, 64, 83
2, 31744, Note_off_c, 0, 67, 0
2, 31744, Note_off_c, 0, 64, 0
2, 31744, Note_on_c, 0, 69, 80
2, 31744, Note_on_c, 0, 66, 82
2, 31744, Note_off_c, 0, 59, 0
2, 31744, Note_off_c, 0, 47, 0
2, 31744, Note_on_c, 0, 61, 82
2, 31744, Note_on_c, 0, 54, 83
2, 32256, Note_off_c, 0, 69, 0
2, 32256, Note_off_c, 0, 66, 0
2, 32256, Note_on_c, 0, 74, 87
2, 32256, Note_on_c, 0, 66, 79
2, 32256, Note_off_c, 0, 61, 0
2, 32256, Note_off_c, 0, 54, 0
2, 32256, Note_on_c, 0, 57, 77
2, 32256, Note_on_c, 0, 50, 80
2, 32384, Note_off_c, 0, 74, 0
2, 32384, Note_on_c, 0, 73, 78
2, 32512, Note_off_c, 0, 66, 0
2, 32512, Note_off_c, 0, 73, 0
2, 32512, Note_on_c, 0, 71, 78
2, 32512, Note_on_c, 0, 62, 76
2, 32512, Note_off_c, 0, 57, 0
2, 32512, Note_off_c, 0, 50, 0
2, 32512, Note_on_c, 0, 59, 85
2, 32512, Note_on_c, 0, 55, 82
2, 32896, Note_off_c, 0, 59, 0
2, 32896, Note_off_c, 0, 55, 0
2, 32896, Note_on_c, 0, 61, 84
2, 32896, Note_on_c, 0, 57, 81
2, 33024, Note_off_c, 0, 71, 0
2, 33024, Note_off_c, 0, 62, 0
2, 33024, Note_on_c, 0, 71, 88
2, 33024, Note_on_c, 0, 67, 94
2, 33024, Note_off_c, 0, 61, 0
2, 33024, Note_off_c, 0, 57, 0
2, 33024, Note_on_c, 0, 62, 82
2, 33024, Note_on_c, 0, 59, 79
2, 33152, Note_off_c, 0, 62, 0
2, 33152, Note_off_c, 0, 59, 0
2, 33152, Note_on_c, 0, 64, 83
2, 33152, Note_on_c, 0, 61, 81
2, 33280, Note_off_c, 0, 71, 0
2, 33280, Note_off_c, 0, 67, 0
2, 33280, Note_on_c, 0, 69, 86
2, 33280, Note_on_c, 0, 66, 87
2, 33280, Note_off_c, 0, 64, 0
2, 33280, Note_off_c, 0, 61, 0
2, 33280, Note_on_c, 0, 66, 91
2, 33280, Note_on_c, 0, 62, 90
2, 33792, Note_off_c, 0, 66, 0
2, 33792, Note_off_c, 0, 62, 0
2, 33792, Note_on_c, 0, 64, 85
2, 33792, Note_on_c, 0, 61, 86
2, 34048, Note_off_c, 0, 69, 0
2, 34048, Note_off_c, 0, 66, 0
2, 34048, Note_on_c, 0, 74, 91
2, 34048, Note_on_c, 0, 66, 88
2, 34048, Note_off_c, 0, 64, 0
2, 34048, Note_off_c, 0, 61, 0
2, 34048, Note_on_c, 0, 62, 86
2, 34048, Note_on_c, 0, 59, 87
2, 34304, Note_off_c, 0, 74, 0
2, 34304, Note_off_c, 0, 66, 0
2, 34304, Note_on_c, 0, 73, 87
2, 34304, Note_on_c, 0, 69, 91
2, 34304, Note_off_c, 0, 59, 0
2, 34304, Note_on_c, 0, 54, 86
2, 34560, Note_off_c, 0, 73, 0
2, 34560, Note_off_c, 0, 69, 0
2, 34560, Note_on_c, 0, 71, 84
2, 34560, Note_on_c, 0, 67, 84
2, 34560, Note_off_c, 0, 62, 0
2, 34560, Note_off_c, 0, 54, 0
2, 34560, Note_on_c, 0, 62, 86
2, 34560, Note_on_c, 0, 55, 89
2, 34816, Note_off_c, 0, 71, 0
2, 34816, Note_off_c, 0, 67, 0
2, 34816, Note_on_c, 0, 69, 85
2, 34816, Note_on_c, 0, 66, 85
2, 34816, Note_off_c, 0, 62, 0
2, 34816, Note_off_c, 0, 55, 0
2, 34816, Note_on_c, 0, 62, 89
2, 34816, Note_on_c, 0, 50, 85
2, 35072, Note_off_c, 0, 69, 0
2, 35072, Note_on_c, 0, 71, 92
2, 35328, Note_off_c, 0, 66, 0
2, 35328, Note_off_c, 0, 71, 0
2, 35328, Note_on_c, 0, 73, 90
2, 35328, Note_on_c, 0, 67, 89
2, 35328, Note_off_c, 0, 62, 0
2, 35328, Note_off_c, 0, 50, 0
2, 35328, Note_on_c, 0, 57, 86
2, 35328, Note_on_c, 0, 52, 89
2, 35584, Note_off_c, 0, 73, 0
2, 35584, Note_off_c, 0, 67, 0
2, 35584, Note_on_c, 0, 74, 90
2, 35584, Note_on_c, 0, 69, 89
2, 35584, Note_off_c, 0, 57, 0
2, 35584, Note_off_c, 0, 52, 0
2, 35584, Note_on_c, 0, 57, 91
2, 35584, Note_on_c, 0, 54, 89
2, 35712, Note_off_c, 0, 54, 0
2, 35712, Note_on_c, 0, 55, 88
2, 35840, Note_off_c, 0, 74, 0
2, 35840, Note_off_c, 0, 69, 0
2, 35840, Note_on_c, 0, 69, 84
2, 35840, Note_on_c, 0, 66, 85
2, 35840, Note_off_c, 0, 57, 0
2, 35840, Note_off_c, 0, 55, 0
2, 35840, Note_on_c, 0, 62, 94
2, 35840, Note_on_c, 0, 57, 91
2, 36096, Note_off_c, 0, 69, 0
2, 36096, Note_off_c, 0, 66, 0
2, 36096, Note_on_c, 0, 67, 85
2, 36096, Note_on_c, 0, 61, 82
2, 36096, Note_off_c, 0, 62, 0
2, 36096, Note_off_c, 0, 57, 0
2, 36096, Note_on_c, 0, 57, 92
2, 36096, Note_on_c, 0, 45, 90
2, 36352, Note_off_c, 0, 67, 0
2, 36352, Note_off_c, 0, 61, 0
2, 36352, Note_on_c, 0, 66, 85
2, 36352, Note_on_c, 0, 62, 91
2, 36352, Note_off_c, 0, 57, 0
2, 36352, Note_off_c, 0, 45, 0
2, 36352, Note_on_c, 0, 57, 98
2, 36352, Note_on_c, 0, 50, 100
2, 36864, Note_off_c, 0, 66, 0
2, 36864, Note_off_c, 0, 62, 0
2, 36864, Note_off_c, 0, 57, 0
2, 36864, Note_off_c, 0, 50, 0
2, 36865, End_track
0, 0, End_of_file
