0, 0, Header, 1, 2, 256
1, 0, Start_track
1, 0, Time_signature, 1, 2, 24, 8
1, 0, Key_signature, -1, "major"
1, 0, Tempo, 461537
1, 0, Title_t, "The Holly and the Ivy"
1, 0, Text_t, "Traditional"
1, 256, Time_signature, 3, 2, 24, 8
1, 11776, Time_signature, 2, 2, 24, 8
1, 12288, Tempo, 461536
1, 12288, Tempo, 461537
1, 12288, Time_signature, 3, 2, 24, 8
1, 12288, Time_signature, 1, 2, 24, 8
1, 12544, Time_signature, 3, 2, 24, 8
1, 24064, Time_signature, 2, 2, 24, 8
1, 24065, End_track
2, 0, Start_track
2, 0, Program_c, 0, 0
2, 0, Control_c, 0, 121, 0
2, 0, Control_c, 0, 64, 0
2, 0, Control_c, 0, 91, 48
2, 0, Control_c, 0, 10, 76
2, 0, Control_c, 0, 7, 105
2, 0, Note_on_c, 0, 65, 72
2, 0, Control_c, 0, 121, 0
2, 0, Control_c, 0, 64, 0
2, 0, Control_c, 0, 91, 52
2, 0, Control_c, 0, 10, 51
2, 0, Control_c, 0, 7, 105
2, 0, Title_t, "Organ manuals"
2, 0, Note_on_c, 0, 53, 56
2, 0, Note_on_c, 0, 57, 56
2, 256, Note_off_c, 0, 65, 0
2, 256, Note_on_c, 0, 65, 77
2, 256, Note_off_c, 0, 53, 0
2, 256, Note_off_c, 0, 57, 0
2, 256, Note_on_c, 0, 53, 62
2, 256, Note_on_c, 0, 57, 62
2, 384, Note_off_c, 0, 65, 0
2, 384, Note_on_c, 0, 65, 77
2, 512, Note_off_c, 0, 65, 0
2, 512, Note_on_c, 0, 65, 80
2, 768, Note_off_c, 0, 65, 0
2, 768, Note_on_c, 0, 74, 90
2, 768, Note_off_c, 0, 53, 0
2, 768, Note_off_c, 0, 57, 0
2, 768, Note_on_c, 0, 53, 65
2, 768, Note_on_c, 0, 58, 65
2, 1024, Note_off_c, 0, 74, 0
2, 1024, Note_on_c, 0, 72, 78
2, 1024, Note_off_c, 0, 53, 0
2, 1024, Note_off_c, 0, 58, 0
2, 1024, Note_on_c, 0, 53, 61
2, 1024, Note_on_c, 0, 57, 61
2, 1280, Note_off_c, 0, 72, 0
2, 1280, Note_on_c, 0, 69, 77
2, 1536, Note_off_c, 0, 69, 0
2, 1536, Note_on_c, 0, 65, 76
2, 1536, Note_off_c, 0, 53, 0
2, 1536, Note_off_c, 0, 57, 0
2, 1536, Note_on_c, 0, 52, 62
2, 1536, Note_on_c, 0, 57, 62
2, 1792, Note_off_c, 0, 65, 0
2, 1792, Note_on_c, 0, 65, 78
2, 1792, Note_off_c, 0, 52, 0
2, 1792, Note_off_c, 0, 57, 0
2, 1792, Note_on_c, 0, 50, 65
2, 1792, Note_on_c, 0, 60, 65
2, 1920, Note_off_c, 0, 65, 0
2, 1920, Note_on_c, 0, 65, 80
2, 2048, Note_off_c, 0, 65, 0
2, 2048, Note_on_c, 0, 65, 82
2, 2304, Note_off_c, 0, 65, 0
2, 2304, Note_on_c, 0, 74, 88
2, 2304, Note_off_c, 0, 50, 0
2, 2304, Note_off_c, 0, 60, 0
2, 2304, Note_on_c, 0, 55, 60
2, 2304, Note_on_c, 0, 59, 60
2, 2560, Note_off_c, 0, 74, 0
2, 2560, Note_on_c, 0, 72, 79
2, 2560, Note_off_c, 0, 55, 0
2, 2560, Note_off_c, 0, 59, 0
2, 2560, Note_on_c, 0, 60, 65
2, 2560, Note_on_c, 0, 48, 59
2, 2816, Note_off_c, 0, 48, 0
2, 2816, Note_on_c, 0, 50, 63
2, 3072, Note_off_c, 0, 72, 0
2, 3072, Note_on_c, 0, 72, 81
2, 3072, Note_off_c, 0, 60, 0
2, 3072, Note_off_c, 0, 50, 0
2, 3072, Note_on_c, 0, 60, 63
2, 3072, Note_on_c, 0, 52, 63
2, 3200, Note_off_c, 0, 72, 0
2, 3200, Note_on_c, 0, 70, 77
2, 3328, Note_off_c, 0, 70, 0
2, 3328, Note_on_c, 0, 69, 79
2, 3328, Note_off_c, 0, 60, 0
2, 3328, Note_off_c, 0, 52, 0
2, 3328, Note_on_c, 0, 53, 65
2, 3328, Note_on_c, 0, 60, 65
2, 3456, Note_off_c, 0, 69, 0
2, 3456, Note_on_c, 0, 67, 75
2, 3584, Note_off_c, 0, 67, 0
2, 3584, Note_on_c, 0, 65, 76
2, 3840, Note_off_c, 0, 65, 0
2, 3840, Note_on_c, 0, 69, 84
2, 3840, Note_off_c, 0, 53, 0
2, 3840, Note_off_c, 0, 60, 0
2, 3840, Note_on_c, 0, 45, 61
2, 3840, Note_on_c, 0, 53, 61
2, 3968, Note_off_c, 0, 69, 0
2, 3968, Note_on_c, 0, 69, 78
2, 4096, Note_off_c, 0, 69, 0
2, 4096, Note_on_c, 0, 62, 74
2, 4096, Note_off_c, 0, 45, 0
2, 4096, Note_off_c, 0, 53, 0
2, 4096, Note_on_c, 0, 55, 64
2, 4096, Note_on_c, 0, 46, 62
2, 4224, Note_off_c, 0, 62, 0
2, 4224, Note_on_c, 0, 62, 79
2, 4352, Note_off_c, 0, 62, 0
2, 4352, Note_on_c, 0, 60, 78
2, 4352, Note_off_c, 0, 46, 0
2, 4352, Note_on_c, 0, 48, 65
2, 4608, Note_off_c, 0, 60, 0
2, 4608, Note_on_c, 0, 65, 85
2, 4608, Note_off_c, 0, 55, 0
2, 4608, Note_off_c, 0, 48, 0
2, 4608, Note_on_c, 0, 58, 63
2, 4608, Note_on_c, 0, 50, 66
2, 4736, Note_off_c, 0, 65, 0
2, 4736, Note_on_c, 0, 67, 82
2, 4864, Note_off_c, 0, 67, 0
2, 4864, Note_on_c, 0, 69, 83
2, 4864, Note_off_c, 0, 58, 0
2, 4864, Note_off_c, 0, 50, 0
2, 4864, Note_on_c, 0, 48, 67
2, 4864, Note_on_c, 0, 60, 67
2, 4992, Note_off_c, 0, 69, 0
2, 4992, Note_on_c, 0, 70, 84
2, 5120, Note_off_c, 0, 70, 0
2, 5120, Note_on_c, 0, 69, 79
2, 5376, Note_off_c, 0, 69, 0
2, 5376, Note_on_c, 0, 67, 75
2, 5376, Note_off_c, 0, 48, 0
2, 5376, Note_off_c, 0, 60, 0
2, 5376, Note_on_c, 0, 48, 62
2, 5376, Note_on_c, 0, 58, 62
2, 5632, Note_off_c, 0, 67, 0
2, 5632, Note_on_c, 0, 65, 79
2, 5632, Note_off_c, 0, 48, 0
2, 5632, Note_off_c, 0, 58, 0
2, 5632, Note_on_c, 0, 53, 63
2, 5632, Note_on_c, 0, 57, 63
2, 6144, Note_off_c, 0, 65, 0
2, 6144, Note_on_c, 0, 65, 78
2, 6144, Note_off_c, 0, 53, 0
2, 6144, Note_off_c, 0, 57, 0
2, 6144, Note_on_c, 0, 53, 63
2, 6144, Note_on_c, 0, 57, 63
2, 6272, Note_off_c, 0, 65, 0
2, 6272, Note_on_c, 0, 65, 80
2, 6400, Note_off_c, 0, 65, 0
2, 6400, Note_on_c, 0, 65, 80
2, 6400, Note_off_c, 0, 53, 0
2, 6400, Note_off_c, 0, 57, 0
2, 6400, Note_on_c, 0, 55, 63
2, 6400, Note_on_c, 0, 58, 63
2, 6528, Note_off_c, 0, 65, 0
2, 6528, Note_on_c, 0, 65, 80
2, 6656, Note_off_c, 0, 65, 0
2, 6656, Note_on_c, 0, 65, 81
2, 6656, Note_off_c, 0, 55, 0
2, 6656, Note_off_c, 0, 58, 0
2, 6656, Note_on_c, 0, 57, 66
2, 6656, Note_on_c, 0, 60, 66
2, 6912, Note_off_c, 0, 65, 0
2, 6912, Note_on_c, 0, 65, 89
2, 6912, Note_on_c, 0, 74, 89
2, 6912, Note_off_c, 0, 57, 0
2, 6912, Note_off_c, 0, 60, 0
2, 6912, Note_on_c, 0, 58, 65
2, 6912, Note_on_c, 0, 62, 65
2, 7168, Note_off_c, 0, 65, 0
2, 7168, Note_off_c, 0, 74, 0
2, 7168, Note_on_c, 0, 64, 79
2, 7168, Note_on_c, 0, 72, 79
2, 7168, Note_off_c, 0, 58, 0
2, 7168, Note_off_c, 0, 62, 0
2, 7168, Note_on_c, 0, 60, 63
2, 7168, Note_on_c, 0, 57, 67
2, 7424, Note_off_c, 0, 64, 0
2, 7424, Note_off_c, 0, 72, 0
2, 7424, Note_on_c, 0, 65, 78
2, 7424, Note_on_c, 0, 69, 78
2, 7424, Note_off_c, 0, 57, 0
2, 7424, Note_on_c, 0, 53, 62
2, 7680, Note_off_c, 0, 65, 0
2, 7680, Note_off_c, 0, 69, 0
2, 7680, Note_on_c, 0, 65, 75
2, 7680, Note_off_c, 0, 60, 0
2, 7680, Note_off_c, 0, 53, 0
2, 7680, Note_on_c, 0, 60, 65
2, 7680, Note_on_c, 0, 57, 65
2, 7808, Note_off_c, 0, 65, 0
2, 7808, Note_on_c, 0, 65, 80
2, 7936, Note_off_c, 0, 65, 0
2, 7936, Note_on_c, 0, 65, 79
2, 7936, Note_off_c, 0, 60, 0
2, 7936, Note_off_c, 0, 57, 0
2, 7936, Note_on_c, 0, 58, 65
2, 7936, Note_on_c, 0, 62, 65
2, 8064, Note_off_c, 0, 65, 0
2, 8064, Note_on_c, 0, 65, 78
2, 8192, Note_off_c, 0, 65, 0
2, 8192, Note_on_c, 0, 65, 80
2, 8192, Note_off_c, 0, 58, 0
2, 8192, Note_off_c, 0, 62, 0
2, 8192, Note_on_c, 0, 57, 61
2, 8192, Note_on_c, 0, 60, 61
2, 8448, Note_off_c, 0, 65, 0
2, 8448, Note_on_c, 0, 65, 90
2, 8448, Note_on_c, 0, 74, 90
2, 8448, Note_off_c, 0, 57, 0
2, 8448, Note_off_c, 0, 60, 0
2, 8448, Note_on_c, 0, 55, 63
2, 8448, Note_on_c, 0, 59, 63
2, 8704, Note_off_c, 0, 65, 0
2, 8704, Note_off_c, 0, 74, 0
2, 8704, Note_on_c, 0, 72, 80
2, 8704, Note_on_c, 0, 64, 72
2, 8704, Note_off_c, 0, 55, 0
2, 8704, Note_off_c, 0, 59, 0
2, 8704, Note_on_c, 0, 48, 63
2, 8704, Note_on_c, 0, 60, 63
2, 9216, Note_off_c, 0, 72, 0
2, 9216, Note_off_c, 0, 64, 0
2, 9216, Note_on_c, 0, 72, 79
2, 9216, Note_off_c, 0, 48, 0
2, 9216, Note_off_c, 0, 60, 0
2, 9216, Note_on_c, 0, 52, 65
2, 9216, Note_on_c, 0, 60, 65
2, 9344, Note_off_c, 0, 72, 0
2, 9344, Note_on_c, 0, 70, 78
2, 9472, Note_off_c, 0, 70, 0
2, 9472, Note_on_c, 0, 69, 77
2, 9472, Note_off_c, 0, 52, 0
2, 9472, Note_off_c, 0, 60, 0
2, 9472, Note_on_c, 0, 53, 63
2, 9472, Note_on_c, 0, 60, 63
2, 9600, Note_off_c, 0, 69, 0
2, 9600, Note_on_c, 0, 67, 77
2, 9728, Note_off_c, 0, 67, 0
2, 9728, Note_on_c, 0, 65, 77
2, 9984, Note_off_c, 0, 65, 0
2, 9984, Note_on_c, 0, 69, 85
2, 9984, Note_off_c, 0, 53, 0
2, 9984, Note_off_c, 0, 60, 0
2, 9984, Note_on_c, 0, 50, 60
2, 9984, Note_on_c, 0, 53, 60
2, 10112, Note_off_c, 0, 69, 0
2, 10112, Note_on_c, 0, 69, 80
2, 10240, Note_off_c, 0, 69, 0
2, 10240, Note_on_c, 0, 62, 75
2, 10240, Note_off_c, 0, 50, 0
2, 10240, Note_off_c, 0, 53, 0
2, 10240, Note_on_c, 0, 46, 66
2, 10240, Note_on_c, 0, 55, 66
2, 10368, Note_off_c, 0, 62, 0
2, 10368, Note_on_c, 0, 62, 78
2, 10496, Note_off_c, 0, 62, 0
2, 10496, Note_on_c, 0, 60, 78
2, 10496, Note_off_c, 0, 46, 0
2, 10496, Note_off_c, 0, 55, 0
2, 10496, Note_on_c, 0, 45, 63
2, 10496, Note_on_c, 0, 53, 63
2, 10752, Note_off_c, 0, 60, 0
2, 10752, Note_on_c, 0, 65, 87
2, 10752, Note_on_c, 0, 58, 71
2, 10752, Note_off_c, 0, 45, 0
2, 10752, Note_off_c, 0, 53, 0
2, 10752, Note_on_c, 0, 50, 63
2, 10752, Note_on_c, 0, 53, 63
2, 10880, Note_off_c, 0, 65, 0
2, 10880, Note_on_c, 0, 67, 84
2, 11008, Note_off_c, 0, 58, 0
2, 11008, Note_off_c, 0, 67, 0
2, 11008, Note_on_c, 0, 69, 83
2, 11008, Note_on_c, 0, 60, 82
2, 11008, Note_off_c, 0, 50, 0
2, 11008, Note_off_c, 0, 53, 0
2, 11008, Note_on_c, 0, 48, 63
2, 11008, Note_on_c, 0, 53, 63
2, 11136, Note_off_c, 0, 69, 0
2, 11136, Note_on_c, 0, 70, 80
2, 11264, Note_off_c, 0, 70, 0
2, 11264, Note_on_c, 0, 69, 79
2, 11520, Note_off_c, 0, 60, 0
2, 11520, Note_off_c, 0, 69, 0
2, 11520, Note_on_c, 0, 67, 78
2, 11520, Note_on_c, 0, 64, 84
2, 11520, Note_off_c, 0, 48, 0
2, 11520, Note_off_c, 0, 53, 0
2, 11520, Note_on_c, 0, 48, 65
2, 11520, Note_on_c, 0, 58, 65
2, 11776, Note_off_c, 0, 67, 0
2, 11776, Note_off_c, 0, 64, 0
2, 11776, Note_on_c, 0, 60, 77
2, 11776, Note_on_c, 0, 65, 77
2, 11776, Note_off_c, 0, 48, 0
2, 11776, Note_off_c, 0, 58, 0
2, 11776, Note_on_c, 0, 53, 64
2, 11776, Note_on_c, 0, 57, 64
2, 12288, Note_off_c, 0, 60, 0
2, 12288, Note_off_c, 0, 65, 0
2, 12288, Note_on_c, 0, 65, 81
2, 12288, Note_off_c, 0, 53, 0
2, 12288, Note_off_c, 0, 57, 0
2, 12288, Note_on_c, 0, 53, 63
2, 12288, Note_on_c, 0, 57, 63
2, 12544, Note_off_c, 0, 65, 0
2, 12544, Note_on_c, 0, 65, 77
2, 12544, Note_off_c, 0, 53, 0
2, 12544, Note_off_c, 0, 57, 0
2, 12544, Note_on_c, 0, 53, 63
2, 12544, Note_on_c, 0, 57, 63
2, 12672, Note_off_c, 0, 65, 0
2, 12672, Note_on_c, 0, 65, 80
2, 12800, Note_off_c, 0, 65, 0
2, 12800, Note_on_c, 0, 65, 79
2, 13056, Note_off_c, 0, 65, 0
2, 13056, Note_on_c, 0, 74, 91
2, 13056, Note_off_c, 0, 53, 0
2, 13056, Note_off_c, 0, 57, 0
2, 13056, Note_on_c, 0, 53, 65
2, 13056, Note_on_c, 0, 58, 65
2, 13312, Note_off_c, 0, 74, 0
2, 13312, Note_on_c, 0, 72, 78
2, 13312, Note_off_c, 0, 53, 0
2, 13312, Note_off_c, 0, 58, 0
2, 13312, Note_on_c, 0, 53, 62
2, 13312, Note_on_c, 0, 57, 62
2, 13568, Note_off_c, 0, 72, 0
2, 13568, Note_on_c, 0, 69, 76
2, 13824, Note_off_c, 0, 69, 0
2, 13824, Note_on_c, 0, 65, 78
2, 13824, Note_off_c, 0, 53, 0
2, 13824, Note_off_c, 0, 57, 0
2, 13824, Note_on_c, 0, 52, 64
2, 13824, Note_on_c, 0, 57, 64
2, 14080, Note_off_c, 0, 65, 0
2, 14080, Note_on_c, 0, 65, 80
2, 14080, Note_off_c, 0, 52, 0
2, 14080, Note_off_c, 0, 57, 0
2, 14080, Note_on_c, 0, 50, 66
2, 14080, Note_on_c, 0, 60, 66
2, 14208, Note_off_c, 0, 65, 0
2, 14208, Note_on_c, 0, 65, 81
2, 14336, Note_off_c, 0, 65, 0
2, 14336, Note_on_c, 0, 65, 80
2, 14592, Note_off_c, 0, 65, 0
2, 14592, Note_on_c, 0, 74, 89
2, 14592, Note_off_c, 0, 50, 0
2, 14592, Note_off_c, 0, 60, 0
2, 14592, Note_on_c, 0, 55, 64
2, 14592, Note_on_c, 0, 59, 64
2, 14848, Note_off_c, 0, 74, 0
2, 14848, Note_on_c, 0, 72, 77
2, 14848, Note_off_c, 0, 55, 0
2, 14848, Note_off_c, 0, 59, 0
2, 14848, Note_on_c, 0, 60, 64
2, 14848, Note_on_c, 0, 48, 60
2, 15104, Note_off_c, 0, 48, 0
2, 15104, Note_on_c, 0, 50, 64
2, 15360, Note_off_c, 0, 72, 0
2, 15360, Note_on_c, 0, 72, 83
2, 15360, Note_off_c, 0, 60, 0
2, 15360, Note_off_c, 0, 50, 0
2, 15360, Note_on_c, 0, 60, 66
2, 15360, Note_on_c, 0, 52, 65
2, 15488, Note_off_c, 0, 72, 0
2, 15488, Note_on_c, 0, 70, 78
2, 15616, Note_off_c, 0, 70, 0
2, 15616, Note_on_c, 0, 69, 78
2, 15616, Note_off_c, 0, 60, 0
2, 15616, Note_off_c, 0, 52, 0
2, 15616, Note_on_c, 0, 53, 65
2, 15616, Note_on_c, 0, 60, 65
2, 15744, Note_off_c, 0, 69, 0
2, 15744, Note_on_c, 0, 67, 79
2, 15872, Note_off_c, 0, 67, 0
2, 15872, Note_on_c, 0, 65, 76
2, 16128, Note_off_c, 0, 65, 0
2, 16128, Note_on_c, 0, 69, 84
2, 16128, Note_off_c, 0, 53, 0
2, 16128, Note_off_c, 0, 60, 0
2, 16128, Note_on_c, 0, 45, 59
2, 16128, Note_on_c, 0, 53, 59
2, 16256, Note_off_c, 0, 69, 0
2, 16256, Note_on_c, 0, 69, 79
2, 16384, Note_off_c, 0, 69, 0
2, 16384, Note_on_c, 0, 62, 72
2, 16384, Note_off_c, 0, 45, 0
2, 16384, Note_off_c, 0, 53, 0
2, 16384, Note_on_c, 0, 55, 63
2, 16384, Note_on_c, 0, 46, 62
2, 16512, Note_off_c, 0, 62, 0
2, 16512, Note_on_c, 0, 62, 77
2, 16640, Note_off_c, 0, 62, 0
2, 16640, Note_on_c, 0, 60, 78
2, 16640, Note_off_c, 0, 46, 0
2, 16640, Note_on_c, 0, 48, 65
2, 16896, Note_off_c, 0, 60, 0
2, 16896, Note_on_c, 0, 65, 86
2, 16896, Note_off_c, 0, 55, 0
2, 16896, Note_off_c, 0, 48, 0
2, 16896, Note_on_c, 0, 58, 63
2, 16896, Note_on_c, 0, 50, 66
2, 17024, Note_off_c, 0, 65, 0
2, 17024, Note_on_c, 0, 67, 84
2, 17152, Note_off_c, 0, 67, 0
2, 17152, Note_on_c, 0, 69, 83
2, 17152, Note_off_c, 0, 58, 0
2, 17152, Note_off_c, 0, 50, 0
2, 17152, Note_on_c, 0, 48, 65
2, 17152, Note_on_c, 0, 60, 65
2, 17280, Note_off_c, 0, 69, 0
2, 17280, Note_on_c, 0, 70, 82
2, 17408, Note_off_c, 0, 70, 0
2, 17408, Note_on_c, 0, 69, 77
2, 17664, Note_off_c, 0, 69, 0
2, 17664, Note_on_c, 0, 67, 77
2, 17664, Note_off_c, 0, 48, 0
2, 17664, Note_off_c, 0, 60, 0
2, 17664, Note_on_c, 0, 48, 61
2, 17664, Note_on_c, 0, 58, 61
2, 17920, Note_off_c, 0, 67, 0
2, 17920, Note_on_c, 0, 65, 77
2, 17920, Note_off_c, 0, 48, 0
2, 17920, Note_off_c, 0, 58, 0
2, 17920, Note_on_c, 0, 53, 61
2, 17920, Note_on_c, 0, 57, 61
2, 18432, Note_off_c, 0, 65, 0
2, 18432, Note_on_c, 0, 65, 79
2, 18432, Note_off_c, 0, 53, 0
2, 18432, Note_off_c, 0, 57, 0
2, 18432, Note_on_c, 0, 53, 63
2, 18432, Note_on_c, 0, 57, 63
2, 18560, Note_off_c, 0, 65, 0
2, 18560, Note_on_c, 0, 65, 81
2, 18688, Note_off_c, 0, 65, 0
2, 18688, Note_on_c, 0, 65, 79
2, 18688, Note_off_c, 0, 53, 0
2, 18688, Note_off_c, 0, 57, 0
2, 18688, Note_on_c, 0, 55, 64
2, 18688, Note_on_c, 0, 58, 64
2, 18816, Note_off_c, 0, 65, 0
2, 18816, Note_on_c, 0, 65, 80
2, 18944, Note_off_c, 0, 65, 0
2, 18944, Note_on_c, 0, 65, 80
2, 18944, Note_off_c, 0, 55, 0
2, 18944, Note_off_c, 0, 58, 0
2, 18944, Note_on_c, 0, 57, 67
2, 18944, Note_on_c, 0, 60, 67
2, 19200, Note_off_c, 0, 65, 0
2, 19200, Note_on_c, 0, 65, 90
2, 19200, Note_on_c, 0, 74, 90
2, 19200, Note_off_c, 0, 57, 0
2, 19200, Note_off_c, 0, 60, 0
2, 19200, Note_on_c, 0, 58, 68
2, 19200, Note_on_c, 0, 62, 68
2, 19456, Note_off_c, 0, 65, 0
2, 19456, Note_off_c, 0, 74, 0
2, 19456, Note_on_c, 0, 64, 79
2, 19456, Note_on_c, 0, 72, 79
2, 19456, Note_off_c, 0, 58, 0
2, 19456, Note_off_c, 0, 62, 0
2, 19456, Note_on_c, 0, 60, 62
2, 19456, Note_on_c, 0, 57, 65
2, 19712, Note_off_c, 0, 64, 0
2, 19712, Note_off_c, 0, 72, 0
2, 19712, Note_on_c, 0, 65, 77
2, 19712, Note_on_c, 0, 69, 77
2, 19712, Note_off_c, 0, 57, 0
2, 19712, Note_on_c, 0, 53, 60
2, 19968, Note_off_c, 0, 65, 0
2, 19968, Note_off_c, 0, 69, 0
2, 19968, Note_on_c, 0, 65, 75
2, 19968, Note_off_c, 0, 60, 0
2, 19968, Note_off_c, 0, 53, 0
2, 19968, Note_on_c, 0, 60, 64
2, 19968, Note_on_c, 0, 57, 66
2, 20096, Note_off_c, 0, 65, 0
2, 20096, Note_on_c, 0, 65, 81
2, 20224, Note_off_c, 0, 65, 0
2, 20224, Note_on_c, 0, 65, 80
2, 20224, Note_off_c, 0, 60, 0
2, 20224, Note_off_c, 0, 57, 0
2, 20224, Note_on_c, 0, 58, 63
2, 20224, Note_on_c, 0, 62, 63
2, 20352, Note_off_c, 0, 65, 0
2, 20352, Note_on_c, 0, 65, 78
2, 20480, Note_off_c, 0, 65, 0
2, 20480, Note_on_c, 0, 65, 81
2, 20480, Note_off_c, 0, 58, 0
2, 20480, Note_off_c, 0, 62, 0
2, 20480, Note_on_c, 0, 57, 61
2, 20480, Note_on_c, 0, 60, 61
2, 20736, Note_off_c, 0, 65, 0
2, 20736, Note_on_c, 0, 65, 90
2, 20736, Note_on_c, 0, 74, 90
2, 20736, Note_off_c, 0, 57, 0
2, 20736, Note_off_c, 0, 60, 0
2, 20736, Note_on_c, 0, 55, 63
2, 20736, Note_on_c, 0, 59, 63
2, 20992, Note_off_c, 0, 65, 0
2, 20992, Note_off_c, 0, 74, 0
2, 20992, Note_on_c, 0, 72, 77
2, 20992, Note_on_c, 0, 64, 79
2, 20992, Note_off_c, 0, 55, 0
2, 20992, Note_off_c, 0, 59, 0
2, 20992, Note_on_c, 0, 48, 68
2, 20992, Note_on_c, 0, 60, 68
2, 21504, Note_off_c, 0, 72, 0
2, 21504, Note_off_c, 0, 64, 0
2, 21504, Note_on_c, 0, 72, 81
2, 21504, Note_off_c, 0, 48, 0
2, 21504, Note_off_c, 0, 60, 0
2, 21504, Note_on_c, 0, 52, 63
2, 21504, Note_on_c, 0, 60, 63
2, 21632, Note_off_c, 0, 72, 0
2, 21632, Note_on_c, 0, 70, 78
2, 21760, Note_off_c, 0, 70, 0
2, 21760, Note_on_c, 0, 69, 78
2, 21760, Note_off_c, 0, 52, 0
2, 21760, Note_off_c, 0, 60, 0
2, 21760, Note_on_c, 0, 53, 65
2, 21760, Note_on_c, 0, 60, 65
2, 21888, Note_off_c, 0, 69, 0
2, 21888, Note_on_c, 0, 67, 75
2, 22016, Note_off_c, 0, 67, 0
2, 22016, Note_on_c, 0, 65, 79
2, 22272, Note_off_c, 0, 65, 0
2, 22272, Note_on_c, 0, 69, 84
2, 22272, Note_off_c, 0, 53, 0
2, 22272, Note_off_c, 0, 60, 0
2, 22272, Note_on_c, 0, 50, 61
2, 22272, Note_on_c, 0, 53, 61
2, 22400, Note_off_c, 0, 69, 0
2, 22400, Note_on_c, 0, 69, 79
2, 22528, Note_off_c, 0, 69, 0
2, 22528, Note_on_c, 0, 62, 73
2, 22528, Note_off_c, 0, 50, 0
2, 22528, Note_off_c, 0, 53, 0
2, 22528, Note_on_c, 0, 46, 65
2, 22528, Note_on_c, 0, 55, 65
2, 22656, Note_off_c, 0, 62, 0
2, 22656, Note_on_c, 0, 62, 79
2, 22784, Note_off_c, 0, 62, 0
2, 22784, Note_on_c, 0, 60, 77
2, 22784, Note_off_c, 0, 46, 0
2, 22784, Note_off_c, 0, 55, 0
2, 22784, Note_on_c, 0, 45, 62
2, 22784, Note_on_c, 0, 53, 62
2, 23040, Note_off_c, 0, 60, 0
2, 23040, Note_on_c, 0, 65, 84
2, 23040, Note_on_c, 0, 58, 68
2, 23040, Note_off_c, 0, 45, 0
2, 23040, Note_off_c, 0, 53, 0
2, 23040, Note_on_c, 0, 50, 64
2, 23040, Note_on_c, 0, 53, 64
2, 23168, Note_off_c, 0, 65, 0
2, 23168, Note_on_c, 0, 67, 86
2, 23296, Note_off_c, 0, 58, 0
2, 23296, Note_off_c, 0, 67, 0
2, 23296, Note_on_c, 0, 69, 86
2, 23296, Note_on_c, 0, 60, 82
2, 23296, Note_off_c, 0, 50, 0
2, 23296, Note_off_c, 0, 53, 0
2, 23296, Note_on_c, 0, 48, 65
2, 23296, Note_on_c, 0, 53, 65
2, 23424, Note_off_c, 0, 69, 0
2, 23424, Note_on_c, 0, 70, 81
2, 23552, Note_off_c, 0, 70, 0
2, 23552, Note_on_c, 0, 69, 78
2, 23808, Note_off_c, 0, 60, 0
2, 23808, Note_off_c, 0, 69, 0
2, 23808, Note_on_c, 0, 67, 76
2, 23808, Note_on_c, 0, 64, 83
2, 23808, Note_off_c, 0, 48, 0
2, 23808, Note_off_c, 0, 53, 0
2, 23808, Note_on_c, 0, 48, 65
2, 23808, Note_on_c, 0, 58, 65
2, 24064, Note_off_c, 0, 67, 0
2, 24064, Note_off_c, 0, 64, 0
2, 24064, Note_on_c, 0, 60, 78
2, 24064, Note_on_c, 0, 65, 78
2, 24064, Note_off_c, 0, 48, 0
2, 24064, Note_off_c, 0, 58, 0
2, 24064, Note_on_c, 0, 53, 63
2, 24064, Note_on_c, 0, 57, 63
2, 24576, Note_off_c, 0, 60, 0
2, 24576, Note_off_c, 0, 65, 0
2, 24576, Note_off_c, 0, 53, 0
2, 24576, Note_off_c, 0, 57, 0
2, 24577, End_track
0, 0, End_of_file
