0, 0, Header, 1, 2, 256
1, 0, Start_track
1, 0, Time_signature, 1, 2, 24, 8
1, 0, Key_signature, -1, "major"
1, 0, Tempo, 576922
1, 256, Time_signature, 4, 2, 24, 8
1, 7424, Time_signature, 3, 2, 24, 8
1, 8192, Tempo, 576922
1, 8192, Tempo, 576922
1, 8192, Time_signature, 4, 2, 24, 8
1, 8192, Time_signature, 1, 2, 24, 8
1, 8448, Time_signature, 4, 2, 24, 8
1, 15616, Time_signature, 3, 2, 24, 8
1, 15617, End_track
2, 0, Start_track
2, 0, Program_c, 0, 0
2, 0, Control_c, 0, 121, 0
2, 0, Control_c, 0, 64, 0
2, 0, Control_c, 0, 91, 48
2, 0, Control_c, 0, 10, 104
2, 0, Control_c, 0, 7, 127
2, 0, Note_on_c, 0, 60, 93
2, 0, Note_on_c, 0, 65, 93
2, 0, Control_c, 0, 121, 0
2, 0, Control_c, 0, 64, 0
2, 0, Control_c, 0, 91, 57
2, 0, Control_c, 0, 10, 21
2, 0, Control_c, 0, 7, 127
2, 0, Note_on_c, 0, 53, 87
2, 0, Note_on_c, 0, 57, 87
2, 256, Note_off_c, 0, 60, 0
2, 256, Note_off_c, 0, 65, 0
2, 256, Note_on_c, 0, 65, 111
2, 256, Note_on_c, 0, 69, 111
2, 256, Note_off_c, 0, 53, 0
2, 256, Note_off_c, 0, 57, 0
2, 256, Note_on_c, 0, 53, 105
2, 256, Note_on_c, 0, 60, 105
2, 640, Note_off_c, 0, 65, 0
2, 640, Note_off_c, 0, 69, 0
2, 640, Note_on_c, 0, 65, 97
2, 640, Note_on_c, 0, 69, 97
2, 640, Note_off_c, 0, 53, 0
2, 640, Note_off_c, 0, 60, 0
2, 640, Note_on_c, 0, 53, 99
2, 640, Note_on_c, 0, 60, 99
2, 768, Note_off_c, 0, 65, 0
2, 768, Note_off_c, 0, 69, 0
2, 768, Note_on_c, 0, 64, 90
2, 768, Note_on_c, 0, 67, 90
2, 768, Note_off_c, 0, 53, 0
2, 768, Note_off_c, 0, 60, 0
2, 768, Note_on_c, 0, 48, 94
2, 768, Note_on_c, 0, 60, 94
2, 1024, Note_off_c, 0, 64, 0
2, 1024, Note_off_c, 0, 67, 0
2, 1024, Note_on_c, 0, 62, 92
2, 1024, Note_on_c, 0, 65, 92
2, 1024, Note_off_c, 0, 48, 0
2, 1024, Note_off_c, 0, 60, 0
2, 1024, Note_on_c, 0, 50, 93
2, 1024, Note_on_c, 0, 57, 93
2, 1280, Note_off_c, 0, 62, 0
2, 1280, Note_off_c, 0, 65, 0
2, 1280, Note_on_c, 0, 62, 109
2, 1280, Note_on_c, 0, 70, 109
2, 1280, Note_off_c, 0, 50, 0
2, 1280, Note_off_c, 0, 57, 0
2, 1280, Note_on_c, 0, 46, 102
2, 1280, Note_on_c, 0, 58, 102
2, 1536, Note_off_c, 0, 62, 0
2, 1536, Note_off_c, 0, 70, 0
2, 1536, Note_on_c, 0, 65, 101
2, 1536, Note_on_c, 0, 70, 101
2, 1536, Note_off_c, 0, 46, 0
2, 1536, Note_off_c, 0, 58, 0
2, 1536, Note_on_c, 0, 58, 107
2, 1536, Note_on_c, 0, 62, 107
2, 1792, Note_off_c, 0, 65, 0
2, 1792, Note_off_c, 0, 70, 0
2, 1792, Note_on_c, 0, 65, 94
2, 1792, Note_on_c, 0, 69, 94
2, 1792, Note_off_c, 0, 58, 0
2, 1792, Note_off_c, 0, 62, 0
2, 1792, Note_on_c, 0, 53, 92
2, 1792, Note_on_c, 0, 60, 92
2, 2048, Note_off_c, 0, 65, 0
2, 2048, Note_off_c, 0, 69, 0
2, 2048, Note_on_c, 0, 64, 91
2, 2048, Note_on_c, 0, 67, 91
2, 2048, Note_off_c, 0, 53, 0
2, 2048, Note_off_c, 0, 60, 0
2, 2048, Note_on_c, 0, 48, 97
2, 2048, Note_on_c, 0, 60, 97
2, 2304, Note_off_c, 0, 64, 0
2, 2304, Note_off_c, 0, 67, 0
2, 2304, Note_on_c, 0, 65, 105
2, 2304, Note_on_c, 0, 69, 105
2, 2304, Note_off_c, 0, 48, 0
2, 2304, Note_off_c, 0, 60, 0
2, 2304, Note_on_c, 0, 53, 99
2, 2304, Note_on_c, 0, 60, 99
2, 2560, Note_off_c, 0, 65, 0
2, 2560, Note_off_c, 0, 69, 0
2, 2560, Note_on_c, 0, 69, 98
2, 2560, Note_on_c, 0, 72, 98
2, 2560, Note_off_c, 0, 53, 0
2, 2560, Note_off_c, 0, 60, 0
2, 2560, Note_on_c, 0, 53, 97
2, 2560, Note_on_c, 0, 60, 97
2, 2816, Note_off_c, 0, 69, 0
2, 2816, Note_off_c, 0, 72, 0
2, 2816, Note_on_c, 0, 67, 101
2, 2816, Note_on_c, 0, 72, 101
2, 2816, Note_off_c, 0, 53, 0
2, 2816, Note_off_c, 0, 60, 0
2, 2816, Note_on_c, 0, 55, 109
2, 2816, Note_on_c, 0, 64, 109
2, 3072, Note_off_c, 0, 67, 0
2, 3072, Note_off_c, 0, 72, 0
2, 3072, Note_on_c, 0, 67, 93
2, 3072, Note_on_c, 0, 71, 93
2, 3072, Note_off_c, 0, 55, 0
2, 3072, Note_off_c, 0, 64, 0
2, 3072, Note_on_c, 0, 55, 95
2, 3072, Note_on_c, 0, 62, 95
2, 3328, Note_off_c, 0, 67, 0
2, 3328, Note_off_c, 0, 71, 0
2, 3328, Note_on_c, 0, 64, 100
2, 3328, Note_on_c, 0, 72, 100
2, 3328, Note_off_c, 0, 55, 0
2, 3328, Note_off_c, 0, 62, 0
2, 3328, Note_on_c, 0, 48, 87
2, 3328, Note_on_c, 0, 60, 87
2, 4096, Note_off_c, 0, 64, 0
2, 4096, Note_off_c, 0, 72, 0
2, 4096, Note_on_c, 0, 65, 94
2, 4096, Note_on_c, 0, 69, 94
2, 4096, Note_off_c, 0, 48, 0
2, 4096, Note_off_c, 0, 60, 0
2, 4096, Note_on_c, 0, 53, 98
2, 4096, Note_on_c, 0, 60, 98
2, 4352, Note_off_c, 0, 65, 0
2, 4352, Note_off_c, 0, 69, 0
2, 4352, Note_on_c, 0, 65, 111
2, 4352, Note_on_c, 0, 74, 111
2, 4352, Note_off_c, 0, 53, 0
2, 4352, Note_off_c, 0, 60, 0
2, 4352, Note_on_c, 0, 53, 94
2, 4352, Note_on_c, 0, 58, 94
2, 4736, Note_off_c, 0, 65, 0
2, 4736, Note_off_c, 0, 74, 0
2, 4736, Note_on_c, 0, 65, 95
2, 4736, Note_on_c, 0, 72, 95
2, 4736, Note_off_c, 0, 53, 0
2, 4736, Note_off_c, 0, 58, 0
2, 4736, Note_on_c, 0, 53, 96
2, 4736, Note_on_c, 0, 57, 96
2, 4864, Note_off_c, 0, 65, 0
2, 4864, Note_off_c, 0, 72, 0
2, 4864, Note_on_c, 0, 65, 90
2, 4864, Note_on_c, 0, 70, 90
2, 4864, Note_off_c, 0, 53, 0
2, 4864, Note_off_c, 0, 57, 0
2, 4864, Note_on_c, 0, 50, 98
2, 4864, Note_on_c, 0, 58, 98
2, 5120, Note_off_c, 0, 65, 0
2, 5120, Note_off_c, 0, 70, 0
2, 5120, Note_on_c, 0, 65, 91
2, 5120, Note_on_c, 0, 69, 91
2, 5120, Note_off_c, 0, 50, 0
2, 5120, Note_off_c, 0, 58, 0
2, 5120, Note_on_c, 0, 53, 102
2, 5120, Note_on_c, 0, 60, 102
2, 5376, Note_off_c, 0, 65, 0
2, 5376, Note_off_c, 0, 69, 0
2, 5376, Note_on_c, 0, 64, 87
2, 5376, Note_on_c, 0, 67, 87
2, 5376, Note_off_c, 0, 53, 0
2, 5376, Note_off_c, 0, 60, 0
2, 5376, Note_on_c, 0, 48, 101
2, 5376, Note_on_c, 0, 60, 101
2, 5632, Note_off_c, 0, 64, 0
2, 5632, Note_off_c, 0, 67, 0
2, 5632, Note_on_c, 0, 62, 94
2, 5632, Note_on_c, 0, 65, 94
2, 5632, Note_off_c, 0, 48, 0
2, 5632, Note_off_c, 0, 60, 0
2, 5632, Note_on_c, 0, 50, 95
2, 5632, Note_on_c, 0, 57, 95
2, 5888, Note_off_c, 0, 62, 0
2, 5888, Note_off_c, 0, 65, 0
2, 5888, Note_on_c, 0, 61, 89
2, 5888, Note_on_c, 0, 64, 89
2, 5888, Note_off_c, 0, 50, 0
2, 5888, Note_off_c, 0, 57, 0
2, 5888, Note_on_c, 0, 45, 97
2, 5888, Note_on_c, 0, 57, 97
2, 6144, Note_off_c, 0, 61, 0
2, 6144, Note_off_c, 0, 64, 0
2, 6144, Note_on_c, 0, 60, 112
2, 6144, Note_on_c, 0, 69, 112
2, 6144, Note_off_c, 0, 45, 0
2, 6144, Note_off_c, 0, 57, 0
2, 6144, Note_on_c, 0, 53, 99
2, 6144, Note_on_c, 0, 57, 99
2, 6400, Note_off_c, 0, 60, 0
2, 6400, Note_off_c, 0, 69, 0
2, 6400, Note_on_c, 0, 64, 93
2, 6400, Note_on_c, 0, 67, 93
2, 6400, Note_off_c, 0, 53, 0
2, 6400, Note_off_c, 0, 57, 0
2, 6400, Note_on_c, 0, 48, 108
2, 6400, Note_on_c, 0, 60, 108
2, 6656, Note_off_c, 0, 64, 0
2, 6656, Note_off_c, 0, 67, 0
2, 6656, Note_on_c, 0, 62, 91
2, 6656, Note_on_c, 0, 65, 91
2, 6656, Note_off_c, 0, 48, 0
2, 6656, Note_off_c, 0, 60, 0
2, 6656, Note_on_c, 0, 50, 95
2, 6656, Note_on_c, 0, 57, 95
2, 6912, Note_off_c, 0, 62, 0
2, 6912, Note_off_c, 0, 65, 0
2, 6912, Note_on_c, 0, 62, 96
2, 6912, Note_on_c, 0, 65, 96
2, 6912, Note_off_c, 0, 50, 0
2, 6912, Note_off_c, 0, 57, 0
2, 6912, Note_on_c, 0, 46, 105
2, 6912, Note_on_c, 0, 58, 105
2, 7168, Note_off_c, 0, 62, 0
2, 7168, Note_off_c, 0, 65, 0
2, 7168, Note_on_c, 0, 60, 97
2, 7168, Note_on_c, 0, 64, 97
2, 7168, Note_off_c, 0, 46, 0
2, 7168, Note_off_c, 0, 58, 0
2, 7168, Note_on_c, 0, 48, 94
2, 7168, Note_on_c, 0, 55, 94
2, 7424, Note_off_c, 0, 60, 0
2, 7424, Note_off_c, 0, 64, 0
2, 7424, Note_on_c, 0, 60, 99
2, 7424, Note_on_c, 0, 65, 99
2, 7424, Note_off_c, 0, 48, 0
2, 7424, Note_off_c, 0, 55, 0
2, 7424, Note_on_c, 0, 53, 100
2, 7424, Note_on_c, 0, 57, 100
2, 8192, Note_off_c, 0, 60, 0
2, 8192, Note_off_c, 0, 65, 0
2, 8192, Note_on_c, 0, 60, 98
2, 8192, Note_on_c, 0, 65, 98
2, 8192, Note_off_c, 0, 53, 0
2, 8192, Note_off_c, 0, 57, 0
2, 8192, Note_on_c, 0, 53, 100
2, 8192, Note_on_c, 0, 57, 100
2, 8448, Note_off_c, 0, 60, 0
2, 8448, Note_off_c, 0, 65, 0
2, 8448, Note_on_c, 0, 65, 103
2, 8448, Note_on_c, 0, 69, 103
2, 8448, Note_off_c, 0, 53, 0
2, 8448, Note_off_c, 0, 57, 0
2, 8448, Note_on_c, 0, 53, 107
2, 8448, Note_on_c, 0, 60, 107
2, 8832, Note_off_c, 0, 65, 0
2, 8832, Note_off_c, 0, 69, 0
2, 8832, Note_on_c, 0, 65, 95
2, 8832, Note_on_c, 0, 69, 95
2, 8832, Note_off_c, 0, 53, 0
2, 8832, Note_off_c, 0, 60, 0
2, 8832, Note_on_c, 0, 53, 102
2, 8832, Note_on_c, 0, 60, 102
2, 8960, Note_off_c, 0, 65, 0
2, 8960, Note_off_c, 0, 69, 0
2, 8960, Note_on_c, 0, 64, 86
2, 8960, Note_on_c, 0, 67, 86
2, 8960, Note_off_c, 0, 53, 0
2, 8960, Note_off_c, 0, 60, 0
2, 8960, Note_on_c, 0, 48, 96
2, 8960, Note_on_c, 0, 60, 96
2, 9216, Note_off_c, 0, 64, 0
2, 9216, Note_off_c, 0, 67, 0
2, 9216, Note_on_c, 0, 62, 93
2, 9216, Note_on_c, 0, 65, 93
2, 9216, Note_off_c, 0, 48, 0
2, 9216, Note_off_c, 0, 60, 0
2, 9216, Note_on_c, 0, 50, 93
2, 9216, Note_on_c, 0, 57, 93
2, 9472, Note_off_c, 0, 62, 0
2, 9472, Note_off_c, 0, 65, 0
2, 9472, Note_on_c, 0, 62, 109
2, 9472, Note_on_c, 0, 70, 109
2, 9472, Note_off_c, 0, 50, 0
2, 9472, Note_off_c, 0, 57, 0
2, 9472, Note_on_c, 0, 46, 97
2, 9472, Note_on_c, 0, 58, 97
2, 9728, Note_off_c, 0, 62, 0
2, 9728, Note_off_c, 0, 70, 0
2, 9728, Note_on_c, 0, 65, 98
2, 9728, Note_on_c, 0, 70, 98
2, 9728, Note_off_c, 0, 46, 0
2, 9728, Note_off_c, 0, 58, 0
2, 9728, Note_on_c, 0, 58, 106
2, 9728, Note_on_c, 0, 62, 106
2, 9984, Note_off_c, 0, 65, 0
2, 9984, Note_off_c, 0, 70, 0
2, 9984, Note_on_c, 0, 65, 91
2, 9984, Note_on_c, 0, 69, 91
2, 9984, Note_off_c, 0, 58, 0
2, 9984, Note_off_c, 0, 62, 0
2, 9984, Note_on_c, 0, 53, 94
2, 9984, Note_on_c, 0, 60, 94
2, 10240, Note_off_c, 0, 65, 0
2, 10240, Note_off_c, 0, 69, 0
2, 10240, Note_on_c, 0, 64, 89
2, 10240, Note_on_c, 0, 67, 89
2, 10240, Note_off_c, 0, 53, 0
2, 10240, Note_off_c, 0, 60, 0
2, 10240, Note_on_c, 0, 48, 103
2, 10240, Note_on_c, 0, 60, 103
2, 10496, Note_off_c, 0, 64, 0
2, 10496, Note_off_c, 0, 67, 0
2, 10496, Note_on_c, 0, 65, 103
2, 10496, Note_on_c, 0, 69, 103
2, 10496, Note_off_c, 0, 48, 0
2, 10496, Note_off_c, 0, 60, 0
2, 10496, Note_on_c, 0, 53, 98
2, 10496, Note_on_c, 0, 60, 98
2, 10752, Note_off_c, 0, 65, 0
2, 10752, Note_off_c, 0, 69, 0
2, 10752, Note_on_c, 0, 69, 107
2, 10752, Note_on_c, 0, 72, 107
2, 10752, Note_off_c, 0, 53, 0
2, 10752, Note_off_c, 0, 60, 0
2, 10752, Note_on_c, 0, 53, 101
2, 10752, Note_on_c, 0, 60, 101
2, 11008, Note_off_c, 0, 69, 0
2, 11008, Note_off_c, 0, 72, 0
2, 11008, Note_on_c, 0, 67, 101
2, 11008, Note_on_c, 0, 72, 101
2, 11008, Note_off_c, 0, 53, 0
2, 11008, Note_off_c, 0, 60, 0
2, 11008, Note_on_c, 0, 55, 111
2, 11008, Note_on_c, 0, 64, 111
2, 11264, Note_off_c, 0, 67, 0
2, 11264, Note_off_c, 0, 72, 0
2, 11264, Note_on_c, 0, 67, 94
2, 11264, Note_on_c, 0, 71, 94
2, 11264, Note_off_c, 0, 55, 0
2, 11264, Note_off_c, 0, 64, 0
2, 11264, Note_on_c, 0, 55, 92
2, 11264, Note_on_c, 0, 62, 92
2, 11520, Note_off_c, 0, 67, 0
2, 11520, Note_off_c, 0, 71, 0
2, 11520, Note_on_c, 0, 64, 100
2, 11520, Note_on_c, 0, 72, 100
2, 11520, Note_off_c, 0, 55, 0
2, 11520, Note_off_c, 0, 62, 0
2, 11520, Note_on_c, 0, 48, 89
2, 11520, Note_on_c, 0, 60, 89
2, 12288, Note_off_c, 0, 64, 0
2, 12288, Note_off_c, 0, 72, 0
2, 12288, Note_on_c, 0, 65, 87
2, 12288, Note_on_c, 0, 69, 87
2, 12288, Note_off_c, 0, 48, 0
2, 12288, Note_off_c, 0, 60, 0
2, 12288, Note_on_c, 0, 53, 97
2, 12288, Note_on_c, 0, 60, 97
2, 12544, Note_off_c, 0, 65, 0
2, 12544, Note_off_c, 0, 69, 0
2, 12544, Note_on_c, 0, 65, 110
2, 12544, Note_on_c, 0, 74, 110
2, 12544, Note_off_c, 0, 53, 0
2, 12544, Note_off_c, 0, 60, 0
2, 12544, Note_on_c, 0, 53, 94
2, 12544, Note_on_c, 0, 58, 94
2, 12928, Note_off_c, 0, 65, 0
2, 12928, Note_off_c, 0, 74, 0
2, 12928, Note_on_c, 0, 65, 93
2, 12928, Note_on_c, 0, 72, 93
2, 12928, Note_off_c, 0, 53, 0
2, 12928, Note_off_c, 0, 58, 0
2, 12928, Note_on_c, 0, 53, 97
2, 12928, Note_on_c, 0, 57, 97
2, 13056, Note_off_c, 0, 65, 0
2, 13056, Note_off_c, 0, 72, 0
2, 13056, Note_on_c, 0, 65, 92
2, 13056, Note_on_c, 0, 70, 92
2, 13056, Note_off_c, 0, 53, 0
2, 13056, Note_off_c, 0, 57, 0
2, 13056, Note_on_c, 0, 50, 105
2, 13056, Note_on_c, 0, 58, 105
2, 13312, Note_off_c, 0, 65, 0
2, 13312, Note_off_c, 0, 70, 0
2, 13312, Note_on_c, 0, 65, 89
2, 13312, Note_on_c, 0, 69, 89
2, 13312, Note_off_c, 0, 50, 0
2, 13312, Note_off_c, 0, 58, 0
2, 13312, Note_on_c, 0, 53, 102
2, 13312, Note_on_c, 0, 60, 102
2, 13568, Note_off_c, 0, 65, 0
2, 13568, Note_off_c, 0, 69, 0
2, 13568, Note_on_c, 0, 64, 85
2, 13568, Note_on_c, 0, 67, 85
2, 13568, Note_off_c, 0, 53, 0
2, 13568, Note_off_c, 0, 60, 0
2, 13568, Note_on_c, 0, 48, 97
2, 13568, Note_on_c, 0, 60, 97
2, 13824, Note_off_c, 0, 64, 0
2, 13824, Note_off_c, 0, 67, 0
2, 13824, Note_on_c, 0, 62, 91
2, 13824, Note_on_c, 0, 65, 91
2, 13824, Note_off_c, 0, 48, 0
2, 13824, Note_off_c, 0, 60, 0
2, 13824, Note_on_c, 0, 50, 94
2, 13824, Note_on_c, 0, 57, 94
2, 14080, Note_off_c, 0, 62, 0
2, 14080, Note_off_c, 0, 65, 0
2, 14080, Note_on_c, 0, 61, 96
2, 14080, Note_on_c, 0, 64, 96
2, 14080, Note_off_c, 0, 50, 0
2, 14080, Note_off_c, 0, 57, 0
2, 14080, Note_on_c, 0, 45, 98
2, 14080, Note_on_c, 0, 57, 98
2, 14336, Note_off_c, 0, 61, 0
2, 14336, Note_off_c, 0, 64, 0
2, 14336, Note_on_c, 0, 60, 110
2, 14336, Note_on_c, 0, 69, 110
2, 14336, Note_off_c, 0, 45, 0
2, 14336, Note_off_c, 0, 57, 0
2, 14336, Note_on_c, 0, 53, 90
2, 14336, Note_on_c, 0, 57, 90
2, 14592, Note_off_c, 0, 60, 0
2, 14592, Note_off_c, 0, 69, 0
2, 14592, Note_on_c, 0, 64, 98
2, 14592, Note_on_c, 0, 67, 98
2, 14592, Note_off_c, 0, 53, 0
2, 14592, Note_off_c, 0, 57, 0
2, 14592, Note_on_c, 0, 48, 107
2, 14592, Note_on_c, 0, 60, 107
2, 14848, Note_off_c, 0, 64, 0
2, 14848, Note_off_c, 0, 67, 0
2, 14848, Note_on_c, 0, 62, 94
2, 14848, Note_on_c, 0, 65, 94
2, 14848, Note_off_c, 0, 48, 0
2, 14848, Note_off_c, 0, 60, 0
2, 14848, Note_on_c, 0, 50, 96
2, 14848, Note_on_c, 0, 57, 96
2, 15104, Note_off_c, 0, 62, 0
2, 15104, Note_off_c, 0, 65, 0
2, 15104, Note_on_c, 0, 62, 96
2, 15104, Note_on_c, 0, 65, 96
2, 15104, Note_off_c, 0, 50, 0
2, 15104, Note_off_c, 0, 57, 0
2, 15104, Note_on_c, 0, 46, 96
2, 15104, Note_on_c, 0, 58, 96
2, 15360, Note_off_c, 0, 62, 0
2, 15360, Note_off_c, 0, 65, 0
2, 15360, Note_on_c, 0, 60, 94
2, 15360, Note_on_c, 0, 64, 94
2, 15360, Note_off_c, 0, 46, 0
2, 15360, Note_off_c, 0, 58, 0
2, 15360, Note_on_c, 0, 48, 89
2, 15360, Note_on_c, 0, 55, 89
2, 15616, Note_off_c, 0, 60, 0
2, 15616, Note_off_c, 0, 64, 0
2, 15616, Note_on_c, 0, 60, 103
2, 15616, Note_on_c, 0, 65, 103
2, 15616, Note_off_c, 0, 48, 0
2, 15616, Note_off_c, 0, 55, 0
2, 15616, Note_on_c, 0, 53, 101
2, 15616, Note_on_c, 0, 57, 101
2, 16384, Note_off_c, 0, 60, 0
2, 16384, Note_off_c, 0, 65, 0
2, 16384, Note_off_c, 0, 53, 0
2, 16384, Note_off_c, 0, 57, 0
2, 16385, End_track
0, 0, End_of_file
