2, 0, Note_on_c, 0, 60, 60
2, 0, Note_on_c, 0, 64, 60
2, 0, Note_on_c, 0, 69, 60
2, 0, Note_on_c, 0, 57, 54
2, 256, Note_on_c, 0, 60, 64
2, 256, Note_on_c, 0, 64, 64
2, 256, Note_on_c, 0, 69, 64
2, 256, Note_on_c, 0, 57, 60
2, 512, Note_on_c, 0, 59, 56
2, 512, Note_on_c, 0, 64, 56
2, 512, Note_on_c, 0, 68, 56
2, 512, Note_on_c, 0, 52, 58
2, 768, Note_on_c, 0, 60, 62
2, 768, Note_on_c, 0, 64, 62
2, 768, Note_on_c, 0, 69, 62
2, 768, Note_on_c, 0, 57, 61
2, 1280, Note_on_c, 0, 64, 67
2, 1280, Note_on_c, 0, 67, 67
2, 1280, Note_on_c, 0, 72, 67
2, 1280, Note_on_c, 0, 52, 57
2, 1536, Note_on_c, 0, 62, 58
2, 1536, Note_on_c, 0, 67, 58
2, 1536, Note_on_c, 0, 71, 58
2, 1536, Note_on_c, 0, 55, 65
2, 2048, Note_on_c, 0, 60, 58
2, 2048, Note_on_c, 0, 64, 58
2, 2048, Note_on_c, 0, 69, 58
2, 2048, Note_on_c, 0, 57, 62
2, 2304, Note_on_c, 0, 59, 58
2, 2304, Note_on_c, 0, 64, 58
2, 2304, Note_on_c, 0, 68, 58
2, 2304, Note_on_c, 0, 52, 56
2, 3072, Note_on_c, 0, 60, 63
2, 3072, Note_on_c, 0, 64, 63
2, 3072, Note_on_c, 0, 69, 63
2, 3072, Note_on_c, 0, 57, 64
2, 3328, Note_on_c, 0, 62, 66
2, 3328, Note_on_c, 0, 67, 66
2, 3328, Note_on_c, 0, 71, 66
2, 3328, Note_on_c, 0, 55, 61
2, 3584, Note_on_c, 0, 64, 56
2, 3584, Note_on_c, 0, 67, 56
2, 3584, Note_on_c, 0, 72, 56
2, 3584, Note_on_c, 0, 52, 58
2, 3840, Note_on_c, 0, 62, 67
2, 3840, Note_on_c, 0, 69, 67
2, 3840, Note_on_c, 0, 74, 67
2, 3840, Note_on_c, 0, 53, 63
2, 4096, Note_on_c, 0, 62, 56
2, 4096, Note_on_c, 0, 67, 56
2, 4096, Note_on_c, 0, 71, 56
2, 4096, Note_on_c, 0, 55, 65
2, 4608, Note_on_c, 0, 60, 55
2, 4608, Note_on_c, 0, 64, 55
2, 4608, Note_on_c, 0, 69, 55
2, 4608, Note_on_c, 0, 57, 59
2, 5888, Note_on_c, 0, 67, 77
2, 5888, Note_on_c, 0, 72, 77
2, 5888, Note_on_c, 0, 76, 77
2, 5888, Note_on_c, 0, 52, 58
2, 6144, Note_on_c, 0, 67, 61
2, 6144, Note_on_c, 0, 71, 61
2, 6144, Note_on_c, 0, 74, 61
2, 6144, Note_on_c, 0, 55, 63
2, 6656, Note_on_c, 0, 64, 59
2, 6656, Note_on_c, 0, 67, 59
2, 6656, Note_on_c, 0, 72, 59
2, 6656, Note_on_c, 0, 48, 56
2, 6912, Note_on_c, 0, 64, 57
2, 6912, Note_on_c, 0, 69, 57
2, 6912, Note_on_c, 0, 71, 57
2, 6912, Note_on_c, 0, 52, 61
2, 7424, Note_on_c, 0, 64, 62
2, 7424, Note_on_c, 0, 69, 62
2, 7424, Note_on_c, 0, 72, 62
2, 7424, Note_on_c, 0, 57, 63
2, 7680, Note_on_c, 0, 62, 54
2, 7680, Note_on_c, 0, 66, 54
2, 7680, Note_on_c, 0, 71, 54
2, 7680, Note_on_c, 0, 50, 58
2, 8192, Note_on_c, 0, 62, 59
2, 8192, Note_on_c, 0, 66, 59
2, 8192, Note_on_c, 0, 69, 59
2, 8192, Note_on_c, 0, 50, 61
2, 8448, Note_on_c, 0, 59, 55
2, 8448, Note_on_c, 0, 64, 55
2, 8448, Note_on_c, 0, 68, 55
2, 8448, Note_on_c, 0, 52, 62
2, 9216, Note_on_c, 0, 60, 65
2, 9216, Note_on_c, 0, 64, 65
2, 9216, Note_on_c, 0, 69, 65
2, 9216, Note_on_c, 0, 57, 66
2, 9472, Note_on_c, 0, 59, 57
2, 9472, Note_on_c, 0, 64, 57
2, 9472, Note_on_c, 0, 68, 57
2, 9472, Note_on_c, 0, 52, 60
2, 9728, Note_on_c, 0, 60, 63
2, 9728, Note_on_c, 0, 64, 63
2, 9728, Note_on_c, 0, 69, 63
2, 9728, Note_on_c, 0, 57, 64
2, 9984, Note_on_c, 0, 62, 68
2, 9984, Note_on_c, 0, 69, 68
2, 9984, Note_on_c, 0, 74, 68
2, 9984, Note_on_c, 0, 53, 63
2, 10240, Note_on_c, 0, 64, 61
2, 10240, Note_on_c, 0, 69, 61
2, 10240, Note_on_c, 0, 71, 61
2, 10240, Note_on_c, 0, 52, 59
2, 10752, Note_on_c, 0, 64, 62
2, 10752, Note_on_c, 0, 69, 62
2, 10752, Note_on_c, 0, 73, 62
2, 10752, Note_on_c, 0, 57, 64
2, 12288, Note_on_c, 0, 60, 55
2, 12288, Note_on_c, 0, 64, 55
2, 12288, Note_on_c, 0, 69, 55
2, 12288, Note_on_c, 0, 57, 64
2, 12544, Note_on_c, 0, 60, 55
2, 12544, Note_on_c, 0, 64, 55
2, 12544, Note_on_c, 0, 69, 55
2, 12544, Note_on_c, 0, 57, 62
2, 12800, Note_on_c, 0, 59, 53
2, 12800, Note_on_c, 0, 64, 53
2, 12800, Note_on_c, 0, 68, 53
2, 12800, Note_on_c, 0, 52, 60
2, 13056, Note_on_c, 0, 60, 58
2, 13056, Note_on_c, 0, 64, 58
2, 13056, Note_on_c, 0, 69, 58
2, 13056, Note_on_c, 0, 57, 62
2, 13568, Note_on_c, 0, 64, 68
2, 13568, Note_on_c, 0, 67, 68
2, 13568, Note_on_c, 0, 72, 68
2, 13568, Note_on_c, 0, 52, 57
2, 13824, Note_on_c, 0, 62, 58
2, 13824, Note_on_c, 0, 67, 58
2, 13824, Note_on_c, 0, 71, 58
2, 13824, Note_on_c, 0, 55, 60
2, 14336, Note_on_c, 0, 60, 55
2, 14336, Note_on_c, 0, 64, 55
2, 14336, Note_on_c, 0, 69, 55
2, 14336, Note_on_c, 0, 57, 60
2, 14592, Note_on_c, 0, 59, 56
2, 14592, Note_on_c, 0, 64, 56
2, 14592, Note_on_c, 0, 68, 56
2, 14592, Note_on_c, 0, 52, 58
2, 15360, Note_on_c, 0, 60, 61
2, 15360, Note_on_c, 0, 64, 61
2, 15360, Note_on_c, 0, 69, 61
2, 15360, Note_on_c, 0, 57, 71
2, 15616, Note_on_c, 0, 62, 65
2, 15616, Note_on_c, 0, 67, 65
2, 15616, Note_on_c, 0, 71, 65
2, 15616, Note_on_c, 0, 55, 60
2, 15872, Note_on_c, 0, 64, 64
2, 15872, Note_on_c, 0, 67, 64
2, 15872, Note_on_c, 0, 72, 64
2, 15872, Note_on_c, 0, 52, 61
2, 16128, Note_on_c, 0, 62, 67
2, 16128, Note_on_c, 0, 69, 67
2, 16128, Note_on_c, 0, 74, 67
2, 16128, Note_on_c, 0, 53, 65
2, 16384, Note_on_c, 0, 62, 57
2, 16384, Note_on_c, 0, 67, 57
2, 16384, Note_on_c, 0, 71, 57
2, 16384, Note_on_c, 0, 55, 61
2, 16896, Note_on_c, 0, 60, 55
2, 16896, Note_on_c, 0, 64, 55
2, 16896, Note_on_c, 0, 69, 55
2, 16896, Note_on_c, 0, 57, 61
2, 18176, Note_on_c, 0, 67, 69
2, 18176, Note_on_c, 0, 72, 69
2, 18176, Note_on_c, 0, 76, 69
2, 18176, Note_on_c, 0, 52, 57
2, 18432, Note_on_c, 0, 67, 59
2, 18432, Note_on_c, 0, 71, 59
2, 18432, Note_on_c, 0, 74, 59
2, 18432, Note_on_c, 0, 55, 62
2, 18944, Note_on_c, 0, 64, 57
2, 18944, Note_on_c, 0, 67, 57
2, 18944, Note_on_c, 0, 72, 57
2, 18944, Note_on_c, 0, 48, 57
2, 19200, Note_on_c, 0, 64, 59
2, 19200, Note_on_c, 0, 69, 59
2, 19200, Note_on_c, 0, 71, 59
2, 19200, Note_on_c, 0, 52, 68
2, 19712, Note_on_c, 0, 64, 60
2, 19712, Note_on_c, 0, 69, 60
2, 19712, Note_on_c, 0, 72, 60
2, 19712, Note_on_c, 0, 57, 63
2, 19968, Note_on_c, 0, 62, 53
2, 19968, Note_on_c, 0, 66, 53
2, 19968, Note_on_c, 0, 71, 53
2, 19968, Note_on_c, 0, 50, 55
2, 20480, Note_on_c, 0, 62, 57
2, 20480, Note_on_c, 0, 66, 57
2, 20480, Note_on_c, 0, 69, 57
2, 20480, Note_on_c, 0, 50, 61
2, 20736, Note_on_c, 0, 59, 62
2, 20736, Note_on_c, 0, 64, 62
2, 20736, Note_on_c, 0, 68, 62
2, 20736, Note_on_c, 0, 52, 63
2, 21504, Note_on_c, 0, 60, 63
2, 21504, Note_on_c, 0, 64, 63
2, 21504, Note_on_c, 0, 69, 63
2, 21504, Note_on_c, 0, 57, 57
2, 21760, Note_on_c, 0, 59, 62
2, 21760, Note_on_c, 0, 64, 62
2, 21760, Note_on_c, 0, 68, 62
2, 21760, Note_on_c, 0, 52, 59
2, 22016, Note_on_c, 0, 60, 66
2, 22016, Note_on_c, 0, 64, 66
2, 22016, Note_on_c, 0, 69, 66
2, 22016, Note_on_c, 0, 57, 65
2, 22272, Note_on_c, 0, 62, 68
2, 22272, Note_on_c, 0, 69, 68
2, 22272, Note_on_c, 0, 74, 68
2, 22272, Note_on_c, 0, 53, 54
2, 22528, Note_on_c, 0, 64, 58
2, 22528, Note_on_c, 0, 69, 58
2, 22528, Note_on_c, 0, 71, 58
2, 22528, Note_on_c, 0, 52, 54
2, 23040, Note_on_c, 0, 64, 65
2, 23040, Note_on_c, 0, 69, 65
2, 23040, Note_on_c, 0, 73, 65
2, 23040, Note_on_c, 0, 57, 65
