2, 0, Note_on_c, 0, 60, 55
2, 0, Note_on_c, 0, 48, 74
2, 256, Note_on_c, 0, 57, 70
2, 256, Note_on_c, 0, 65, 70
2, 256, Note_on_c, 0, 41, 70
2, 512, Note_on_c, 0, 57, 63
2, 512, Note_on_c, 0, 65, 63
2, 512, Note_on_c, 0, 41, 72
2, 768, Note_on_c, 0, 57, 64
2, 768, Note_on_c, 0, 65, 64
2, 768, Note_on_c, 0, 41, 72
2, 1024, Note_on_c, 0, 60, 67
2, 1024, Note_on_c, 0, 67, 67
2, 1024, Note_on_c, 0, 48, 75
2, 1280, Note_on_c, 0, 65, 63
2, 1280, Note_on_c, 0, 69, 63
2, 1280, Note_on_c, 0, 50, 74
2, 1408, Note_on_c, 0, 64, 61
2, 1408, Note_on_c, 0, 67, 61
2, 1536, Note_on_c, 0, 65, 66
2, 1536, Note_on_c, 0, 69, 66
2, 1536, Note_on_c, 0, 50, 72
2, 1664, Note_on_c, 0, 67, 64
2, 1664, Note_on_c, 0, 70, 64
2, 1792, Note_on_c, 0, 69, 66
2, 1792, Note_on_c, 0, 72, 66
2, 1792, Note_on_c, 0, 45, 70
2, 2048, Note_on_c, 0, 65, 59
2, 2048, Note_on_c, 0, 69, 59
2, 2048, Note_on_c, 0, 48, 73
2, 2304, Note_on_c, 0, 67, 64
2, 2304, Note_on_c, 0, 70, 64
2, 2304, Note_on_c, 0, 46, 72
2, 2560, Note_on_c, 0, 65, 63
2, 2560, Note_on_c, 0, 69, 63
2, 2560, Note_on_c, 0, 46, 72
2, 2688, Note_on_c, 0, 60, 60
2, 2688, Note_on_c, 0, 65, 60
2, 2816, Note_on_c, 0, 58, 65
2, 2816, Note_on_c, 0, 67, 65
2, 2816, Note_on_c, 0, 48, 71
2, 3072, Note_on_c, 0, 58, 62
2, 3072, Note_on_c, 0, 67, 62
2, 3072, Note_on_c, 0, 48, 72
2, 3328, Note_on_c, 0, 57, 60
2, 3328, Note_on_c, 0, 65, 60
2, 3328, Note_on_c, 0, 41, 68
2, 4096, Note_on_c, 0, 55, 59
2, 4096, Note_on_c, 0, 60, 59
2, 4096, Note_on_c, 0, 48, 75
2, 4352, Note_on_c, 0, 57, 68
2, 4352, Note_on_c, 0, 65, 68
2, 4352, Note_on_c, 0, 41, 69
2, 4608, Note_on_c, 0, 57, 64
2, 4608, Note_on_c, 0, 65, 64
2, 4608, Note_on_c, 0, 41, 73
2, 4864, Note_on_c, 0, 57, 62
2, 4864, Note_on_c, 0, 65, 62
2, 4864, Note_on_c, 0, 40, 71
2, 5120, Note_on_c, 0, 60, 65
2, 5120, Note_on_c, 0, 67, 65
2, 5120, Note_on_c, 0, 40, 74
2, 5376, Note_on_c, 0, 65, 67
2, 5376, Note_on_c, 0, 69, 67
2, 5376, Note_on_c, 0, 38, 71
2, 5504, Note_on_c, 0, 64, 63
2, 5504, Note_on_c, 0, 67, 63
2, 5632, Note_on_c, 0, 65, 67
2, 5632, Note_on_c, 0, 69, 67
2, 5632, Note_on_c, 0, 38, 69
2, 5760, Note_on_c, 0, 67, 68
2, 5760, Note_on_c, 0, 70, 68
2, 5888, Note_on_c, 0, 69, 65
2, 5888, Note_on_c, 0, 72, 65
2, 5888, Note_on_c, 0, 41, 71
2, 6144, Note_on_c, 0, 65, 61
2, 6144, Note_on_c, 0, 69, 61
2, 6144, Note_on_c, 0, 48, 75
2, 6400, Note_on_c, 0, 67, 66
2, 6400, Note_on_c, 0, 70, 66
2, 6400, Note_on_c, 0, 46, 68
2, 6656, Note_on_c, 0, 65, 62
2, 6656, Note_on_c, 0, 69, 62
2, 6656, Note_on_c, 0, 46, 73
2, 6784, Note_on_c, 0, 60, 59
2, 6784, Note_on_c, 0, 65, 59
2, 6912, Note_on_c, 0, 60, 65
2, 6912, Note_on_c, 0, 67, 65
2, 6912, Note_on_c, 0, 48, 71
2, 7168, Note_on_c, 0, 58, 62
2, 7168, Note_on_c, 0, 67, 62
2, 7168, Note_on_c, 0, 36, 68
2, 7424, Note_on_c, 0, 57, 60
2, 7424, Note_on_c, 0, 65, 60
2, 7424, Note_on_c, 0, 41, 74
2, 8192, Note_on_c, 0, 57, 63
2, 8192, Note_on_c, 0, 65, 63
2, 8192, Note_on_c, 0, 41, 73
2, 8320, Note_on_c, 0, 60, 67
2, 8320, Note_on_c, 0, 69, 67
2, 8448, Note_on_c, 0, 65, 68
2, 8448, Note_on_c, 0, 72, 68
2, 8448, Note_on_c, 0, 41, 73
2, 8832, Note_on_c, 0, 70, 65
2, 8832, Note_on_c, 0, 74, 65
2, 8960, Note_on_c, 0, 69, 62
2, 8960, Note_on_c, 0, 72, 62
2, 8960, Note_on_c, 0, 41, 70
2, 9088, Note_on_c, 0, 67, 63
2, 9088, Note_on_c, 0, 70, 63
2, 9216, Note_on_c, 0, 65, 63
2, 9216, Note_on_c, 0, 69, 63
2, 9216, Note_on_c, 0, 48, 75
2, 9344, Note_on_c, 0, 64, 63
2, 9344, Note_on_c, 0, 67, 63
2, 9472, Note_on_c, 0, 62, 63
2, 9472, Note_on_c, 0, 65, 63
2, 9472, Note_on_c, 0, 50, 72
2, 9600, Note_on_c, 0, 64, 65
2, 9600, Note_on_c, 0, 67, 65
2, 9728, Note_on_c, 0, 65, 67
2, 9728, Note_on_c, 0, 69, 67
2, 9728, Note_on_c, 0, 46, 70
2, 9856, Note_on_c, 0, 67, 65
2, 9856, Note_on_c, 0, 70, 65
2, 9984, Note_on_c, 0, 69, 64
2, 9984, Note_on_c, 0, 72, 64
2, 9984, Note_on_c, 0, 45, 72
2, 10240, Note_on_c, 0, 58, 57
2, 10240, Note_on_c, 0, 60, 57
2, 10240, Note_on_c, 0, 43, 70
2, 10496, Note_on_c, 0, 57, 67
2, 10496, Note_on_c, 0, 65, 67
2, 10496, Note_on_c, 0, 41, 73
2, 10752, Note_on_c, 0, 60, 68
2, 10752, Note_on_c, 0, 69, 68
2, 10752, Note_on_c, 0, 41, 71
2, 11008, Note_on_c, 0, 58, 62
2, 11008, Note_on_c, 0, 67, 62
2, 11008, Note_on_c, 0, 43, 72
2, 11264, Note_on_c, 0, 57, 61
2, 11264, Note_on_c, 0, 65, 61
2, 11264, Note_on_c, 0, 45, 75
2, 11520, Note_on_c, 0, 52, 62
2, 11520, Note_on_c, 0, 60, 62
2, 11520, Note_on_c, 0, 48, 72
2, 12288, Note_on_c, 0, 58, 63
2, 12288, Note_on_c, 0, 60, 63
2, 12288, Note_on_c, 0, 36, 67
2, 12544, Note_on_c, 0, 57, 67
2, 12544, Note_on_c, 0, 65, 67
2, 12544, Note_on_c, 0, 41, 75
2, 12800, Note_on_c, 0, 58, 63
2, 12800, Note_on_c, 0, 65, 63
2, 12800, Note_on_c, 0, 41, 75
2, 13056, Note_on_c, 0, 57, 64
2, 13056, Note_on_c, 0, 65, 64
2, 13056, Note_on_c, 0, 41, 74
2, 13312, Note_on_c, 0, 60, 65
2, 13312, Note_on_c, 0, 67, 65
2, 13312, Note_on_c, 0, 40, 73
2, 13568, Note_on_c, 0, 65, 62
2, 13568, Note_on_c, 0, 69, 62
2, 13568, Note_on_c, 0, 38, 71
2, 13696, Note_on_c, 0, 64, 61
2, 13696, Note_on_c, 0, 67, 61
2, 13824, Note_on_c, 0, 65, 67
2, 13824, Note_on_c, 0, 69, 67
2, 13824, Note_on_c, 0, 38, 72
2, 13952, Note_on_c, 0, 67, 65
2, 13952, Note_on_c, 0, 70, 65
2, 14080, Note_on_c, 0, 69, 67
2, 14080, Note_on_c, 0, 72, 67
2, 14080, Note_on_c, 0, 41, 72
2, 14336, Note_on_c, 0, 65, 62
2, 14336, Note_on_c, 0, 69, 62
2, 14336, Note_on_c, 0, 48, 73
2, 14592, Note_on_c, 0, 67, 64
2, 14592, Note_on_c, 0, 70, 64
2, 14592, Note_on_c, 0, 46, 69
2, 14848, Note_on_c, 0, 65, 61
2, 14848, Note_on_c, 0, 69, 61
2, 14848, Note_on_c, 0, 46, 72
2, 14976, Note_on_c, 0, 60, 63
2, 14976, Note_on_c, 0, 65, 63
2, 15104, Note_on_c, 0, 58, 65
2, 15104, Note_on_c, 0, 67, 65
2, 15104, Note_on_c, 0, 48, 74
2, 15360, Note_on_c, 0, 58, 64
2, 15360, Note_on_c, 0, 67, 64
2, 15360, Note_on_c, 0, 36, 69
2, 15616, Note_on_c, 0, 57, 60
2, 15616, Note_on_c, 0, 65, 60
2, 15616, Note_on_c, 0, 41, 72
2, 16384, Note_on_c, 0, 60, 59
2, 16384, Note_on_c, 0, 48, 84
2, 16640, Note_on_c, 0, 57, 65
2, 16640, Note_on_c, 0, 65, 65
2, 16640, Note_on_c, 0, 41, 67
2, 16896, Note_on_c, 0, 57, 64
2, 16896, Note_on_c, 0, 65, 64
2, 16896, Note_on_c, 0, 41, 71
2, 17152, Note_on_c, 0, 57, 63
2, 17152, Note_on_c, 0, 65, 63
2, 17152, Note_on_c, 0, 41, 71
2, 17408, Note_on_c, 0, 60, 65
2, 17408, Note_on_c, 0, 67, 65
2, 17408, Note_on_c, 0, 48, 73
2, 17664, Note_on_c, 0, 65, 64
2, 17664, Note_on_c, 0, 69, 64
2, 17664, Note_on_c, 0, 50, 73
2, 17792, Note_on_c, 0, 64, 61
2, 17792, Note_on_c, 0, 67, 61
2, 17920, Note_on_c, 0, 65, 65
2, 17920, Note_on_c, 0, 69, 65
2, 17920, Note_on_c, 0, 50, 73
2, 18048, Note_on_c, 0, 67, 67
2, 18048, Note_on_c, 0, 70, 67
2, 18176, Note_on_c, 0, 69, 65
2, 18176, Note_on_c, 0, 72, 65
2, 18176, Note_on_c, 0, 45, 70
2, 18432, Note_on_c, 0, 65, 63
2, 18432, Note_on_c, 0, 69, 63
2, 18432, Note_on_c, 0, 48, 72
2, 18688, Note_on_c, 0, 67, 64
2, 18688, Note_on_c, 0, 70, 64
2, 18688, Note_on_c, 0, 46, 71
2, 18944, Note_on_c, 0, 65, 58
2, 18944, Note_on_c, 0, 69, 58
2, 18944, Note_on_c, 0, 46, 71
2, 19072, Note_on_c, 0, 60, 59
2, 19072, Note_on_c, 0, 65, 59
2, 19200, Note_on_c, 0, 58, 65
2, 19200, Note_on_c, 0, 67, 65
2, 19200, Note_on_c, 0, 48, 73
2, 19456, Note_on_c, 0, 58, 62
2, 19456, Note_on_c, 0, 67, 62
2, 19456, Note_on_c, 0, 48, 71
2, 19712, Note_on_c, 0, 57, 63
2, 19712, Note_on_c, 0, 65, 63
2, 19712, Note_on_c, 0, 41, 70
2, 20480, Note_on_c, 0, 55, 60
2, 20480, Note_on_c, 0, 60, 60
2, 20480, Note_on_c, 0, 48, 76
2, 20736, Note_on_c, 0, 57, 67
2, 20736, Note_on_c, 0, 65, 67
2, 20736, Note_on_c, 0, 41, 69
2, 20992, Note_on_c, 0, 57, 65
2, 20992, Note_on_c, 0, 65, 65
2, 20992, Note_on_c, 0, 41, 71
2, 21248, Note_on_c, 0, 57, 63
2, 21248, Note_on_c, 0, 65, 63
2, 21248, Note_on_c, 0, 40, 69
2, 21504, Note_on_c, 0, 60, 66
2, 21504, Note_on_c, 0, 67, 66
2, 21504, Note_on_c, 0, 40, 72
2, 21760, Note_on_c, 0, 65, 67
2, 21760, Note_on_c, 0, 69, 67
2, 21760, Note_on_c, 0, 38, 74
2, 21888, Note_on_c, 0, 64, 62
2, 21888, Note_on_c, 0, 67, 62
2, 22016, Note_on_c, 0, 65, 65
2, 22016, Note_on_c, 0, 69, 65
2, 22016, Note_on_c, 0, 38, 72
2, 22144, Note_on_c, 0, 67, 63
2, 22144, Note_on_c, 0, 70, 63
2, 22272, Note_on_c, 0, 69, 66
2, 22272, Note_on_c, 0, 72, 66
2, 22272, Note_on_c, 0, 41, 76
2, 22528, Note_on_c, 0, 65, 61
2, 22528, Note_on_c, 0, 69, 61
2, 22528, Note_on_c, 0, 48, 75
2, 22784, Note_on_c, 0, 67, 66
2, 22784, Note_on_c, 0, 70, 66
2, 22784, Note_on_c, 0, 46, 70
2, 23040, Note_on_c, 0, 65, 63
2, 23040, Note_on_c, 0, 69, 63
2, 23040, Note_on_c, 0, 46, 71
2, 23168, Note_on_c, 0, 60, 60
2, 23168, Note_on_c, 0, 65, 60
2, 23296, Note_on_c, 0, 60, 67
2, 23296, Note_on_c, 0, 67, 67
2, 23296, Note_on_c, 0, 48, 74
2, 23552, Note_on_c, 0, 58, 64
2, 23552, Note_on_c, 0, 67, 64
2, 23552, Note_on_c, 0, 36, 68
2, 23808, Note_on_c, 0, 57, 61
2, 23808, Note_on_c, 0, 65, 61
2, 23808, Note_on_c, 0, 41, 74
2, 24576, Note_on_c, 0, 57, 63
2, 24576, Note_on_c, 0, 65, 63
2, 24576, Note_on_c, 0, 41, 71
2, 24704, Note_on_c, 0, 60, 65
2, 24704, Note_on_c, 0, 69, 65
2, 24832, Note_on_c, 0, 65, 66
2, 24832, Note_on_c, 0, 72, 66
2, 24832, Note_on_c, 0, 41, 72
2, 25216, Note_on_c, 0, 70, 65
2, 25216, Note_on_c, 0, 74, 65
2, 25344, Note_on_c, 0, 69, 60
2, 25344, Note_on_c, 0, 72, 60
2, 25344, Note_on_c, 0, 41, 71
2, 25472, Note_on_c, 0, 67, 60
2, 25472, Note_on_c, 0, 70, 60
2, 25600, Note_on_c, 0, 65, 61
2, 25600, Note_on_c, 0, 69, 61
2, 25600, Note_on_c, 0, 48, 77
2, 25728, Note_on_c, 0, 64, 63
2, 25728, Note_on_c, 0, 67, 63
2, 25856, Note_on_c, 0, 62, 60
2, 25856, Note_on_c, 0, 65, 60
2, 25856, Note_on_c, 0, 50, 73
2, 25984, Note_on_c, 0, 64, 66
2, 25984, Note_on_c, 0, 67, 66
2, 26112, Note_on_c, 0, 65, 66
2, 26112, Note_on_c, 0, 69, 66
2, 26112, Note_on_c, 0, 46, 71
2, 26240, Note_on_c, 0, 67, 64
2, 26240, Note_on_c, 0, 70, 64
2, 26368, Note_on_c, 0, 69, 65
2, 26368, Note_on_c, 0, 72, 65
2, 26368, Note_on_c, 0, 45, 70
2, 26624, Note_on_c, 0, 58, 56
2, 26624, Note_on_c, 0, 60, 56
2, 26624, Note_on_c, 0, 43, 71
2, 26880, Note_on_c, 0, 57, 65
2, 26880, Note_on_c, 0, 65, 65
2, 26880, Note_on_c, 0, 41, 70
2, 27136, Note_on_c, 0, 60, 68
2, 27136, Note_on_c, 0, 69, 68
2, 27136, Note_on_c, 0, 41, 72
2, 27392, Note_on_c, 0, 58, 61
2, 27392, Note_on_c, 0, 67, 61
2, 27392, Note_on_c, 0, 43, 74
2, 27648, Note_on_c, 0, 57, 64
2, 27648, Note_on_c, 0, 65, 64
2, 27648, Note_on_c, 0, 45, 73
2, 27904, Note_on_c, 0, 52, 58
2, 27904, Note_on_c, 0, 60, 58
2, 27904, Note_on_c, 0, 48, 74
2, 28672, Note_on_c, 0, 58, 64
2, 28672, Note_on_c, 0, 60, 64
2, 28672, Note_on_c, 0, 36, 65
2, 28928, Note_on_c, 0, 57, 67
2, 28928, Note_on_c, 0, 65, 67
2, 28928, Note_on_c, 0, 41, 74
2, 29184, Note_on_c, 0, 58, 66
2, 29184, Note_on_c, 0, 65, 66
2, 29184, Note_on_c, 0, 41, 71
2, 29440, Note_on_c, 0, 57, 63
2, 29440, Note_on_c, 0, 65, 63
2, 29440, Note_on_c, 0, 41, 71
2, 29696, Note_on_c, 0, 60, 67
2, 29696, Note_on_c, 0, 67, 67
2, 29696, Note_on_c, 0, 40, 72
2, 29952, Note_on_c, 0, 65, 65
2, 29952, Note_on_c, 0, 69, 65
2, 29952, Note_on_c, 0, 38, 70
2, 30080, Note_on_c, 0, 64, 63
2, 30080, Note_on_c, 0, 67, 63
2, 30208, Note_on_c, 0, 65, 66
2, 30208, Note_on_c, 0, 69, 66
2, 30208, Note_on_c, 0, 38, 70
2, 30336, Note_on_c, 0, 67, 64
2, 30336, Note_on_c, 0, 70, 64
2, 30464, Note_on_c, 0, 69, 66
2, 30464, Note_on_c, 0, 72, 66
2, 30464, Note_on_c, 0, 41, 74
2, 30720, Note_on_c, 0, 65, 61
2, 30720, Note_on_c, 0, 69, 61
2, 30720, Note_on_c, 0, 48, 76
2, 30976, Note_on_c, 0, 67, 66
2, 30976, Note_on_c, 0, 70, 66
2, 30976, Note_on_c, 0, 46, 71
2, 31232, Note_on_c, 0, 65, 62
2, 31232, Note_on_c, 0, 69, 62
2, 31232, Note_on_c, 0, 46, 72
2, 31360, Note_on_c, 0, 60, 64
2, 31360, Note_on_c, 0, 65, 64
2, 31488, Note_on_c, 0, 58, 66
2, 31488, Note_on_c, 0, 67, 66
2, 31488, Note_on_c, 0, 48, 73
2, 31744, Note_on_c, 0, 58, 63
2, 31744, Note_on_c, 0, 67, 63
2, 31744, Note_on_c, 0, 36, 70
2, 32000, Note_on_c, 0, 57, 62
2, 32000, Note_on_c, 0, 65, 62
2, 32000, Note_on_c, 0, 41, 74
